<svg xmlns="http://www.w3.org/2000/svg" version="1.1" xmlns:xlink="http://www.w3.org/1999/xlink" xmlns:svgjs="http://svgjs.com/svgjs" width="512" height="512" x="0" y="0" viewBox="0 0 512 512" style="enable-background:new 0 0 512 512" xml:space="preserve" class=""><g><path fill="#4a78af" d="M207.91 171.477a17.984 17.984 0 0 0-16.832-3.793l-11.918 3.41a1.415 1.415 0 0 0-.812 2.11l34.617 55.374L256 213.645zm0 0" data-original="#10c6ff" class=""></path><path fill="#91a0b5" d="M119.613 331.125H87.195V138.973h32.418zm0 0" data-original="#91a0b5" class=""></path><path fill="#7c8fa5" d="M87.195 138.973v16.5c9.285 0 16.813 7.527 16.813 16.812v158.836h15.605V138.973zm0 0" data-original="#7c8fa5"></path><path fill="#91a0b5" d="M70.781 140.797h65.246a7.315 7.315 0 0 0 7.313-7.317V94.414a7.312 7.312 0 0 0-7.313-7.312H70.781a7.312 7.312 0 0 0-7.312 7.312v39.066a7.315 7.315 0 0 0 7.312 7.317zm0 0" data-original="#91a0b5" class=""></path><path fill="#d5e0f2" d="M79.352 67.992h48.015l6.625-37.281c1.13-6.371-3.77-12.215-10.238-12.215h-40.7c-6.46 0-11.355 5.828-10.242 12.192zm0 0" data-original="#d5e0f2"></path><path fill="#bdcde5" d="M123.754 18.496h-18.8c6.472 0 11.37 5.844 10.237 12.215l-6.62 37.281h18.796l6.625-37.281c1.13-6.371-3.77-12.215-10.238-12.215zm0 0" data-original="#bdcde5"></path><path fill="#4a78af" d="M57.387 111.852h92.035a8.18 8.18 0 0 0 8.18-8.18v-33.14a8.18 8.18 0 0 0-8.18-8.18H57.387a8.18 8.18 0 0 0-8.18 8.18v33.14a8.18 8.18 0 0 0 8.18 8.18zm0 0" data-original="#10c6ff" class=""></path><path fill="#395d87" d="M149.422 62.352h-26.3a8.18 8.18 0 0 1 8.179 8.18v33.14a8.18 8.18 0 0 1-8.18 8.18h26.3a8.18 8.18 0 0 0 8.18-8.18v-33.14a8.18 8.18 0 0 0-8.18-8.18zm0 0" data-original="#03b2e8" class=""></path><path fill="#d5e0f2" d="M17.531 409.473h172.61l-21.852-77.653c-6.32-22.46-26.809-37.98-50.144-37.98H68.789c-28.309 0-51.258 22.95-51.258 51.258zm0 0" data-original="#d5e0f2"></path><path fill="#bdcde5" d="M33.078 409.473h269.387l-72.594-65.278a25.825 25.825 0 0 0-17.27-6.625H114.27c-6.95 0-13.606 2.801-18.465 7.77zm0 0" data-original="#bdcde5"></path><path fill="#e4eef9" d="m483.887 196.094-204.469 57.57a30.334 30.334 0 0 1-8.152 1.18l-74.918.71a11.187 11.187 0 0 1-11.286-11.183c0-4.703 2.973-9.055 7.645-10.605l224.285-78.27a67.046 67.046 0 0 1 48.399 2.3l.98.43 17.664 7.837 1.871.828c13.305 5.894 11.977 25.199-2.02 29.203zm0 0" data-original="#e4eef9" class=""></path><path fill="#d5e0f2" d="m485.906 166.89-1.87-.827-17.669-7.836-.976-.43a67.046 67.046 0 0 0-48.399-2.3l-20.324 7.093a67.03 67.03 0 0 1 37.625 4.91l.98.43 17.668 7.836 1.871.828c11.551 5.117 12.063 20.344 2.836 26.886l26.239-7.386c13.996-4.004 15.324-23.309 2.02-29.203zm0 0" data-original="#d5e0f2"></path><path fill="#bdcde5" d="m382.488 245.54-32.433 9.276a7.718 7.718 0 0 1-9.543-5.296l-3.89-13.598a7.718 7.718 0 0 1 5.296-9.543l32.434-9.277a7.724 7.724 0 0 1 9.546 5.296l3.887 13.594c1.172 4.102-1.2 8.375-5.297 9.547zm0 0" data-original="#bdcde5"></path><path d="M504.496 401.969H305.344l-26.723-24.031a7.502 7.502 0 0 0-10.598.566c-2.77 3.078-2.515 7.824.563 10.594l14.316 12.87H50.91l50.262-51.382c3.426-3.5 8.2-5.512 13.098-5.512h98.332c4.53 0 8.882 1.668 12.253 4.7l16.524 14.859a7.506 7.506 0 0 0 10.598-.567c2.77-3.078 2.515-7.824-.567-10.593l-16.52-14.856a33.278 33.278 0 0 0-22.288-8.547H175.59l-.078-.277c-6.367-22.664-25.606-39.262-48.39-42.762V148.293h8.905c8.168 0 14.817-6.645 14.817-14.816V119.28c7.984-.718 14.265-7.441 14.265-15.61v-33.14c0-8.648-7.035-15.683-15.683-15.683h-12.098l4.055-22.828a17.86 17.86 0 0 0-3.906-14.625 17.86 17.86 0 0 0-13.723-6.403H110.91V7.504a7.504 7.504 0 1 0-15.008 0v3.488H83.055a17.867 17.867 0 0 0-13.703 6.38 17.881 17.881 0 0 0-3.93 14.612l4.008 22.864H57.387c-8.649 0-15.684 7.035-15.684 15.683v33.14c0 8.169 6.277 14.892 14.262 15.61v14.2c0 8.167 6.644 14.816 14.816 14.816h8.91v36.422a7.504 7.504 0 1 0 15.008 0v-36.422h17.418V286.34H94.7v-66.867a7.504 7.504 0 1 0-15.008 0v66.867H68.79c-32.402 0-58.762 26.36-58.762 58.762v56.87H7.504a7.5 7.5 0 0 0-7.504 7.5 7.504 7.504 0 0 0 7.504 7.505h496.992a7.504 7.504 0 1 0 0-15.008zM80.2 29.399c-.199-1.16.317-1.981.64-2.368a2.855 2.855 0 0 1 2.216-1.035h40.695a2.86 2.86 0 0 1 2.223 1.04 2.86 2.86 0 0 1 .632 2.362l-4.52 25.45h-37.42zM56.711 70.53c0-.37.3-.676.676-.676h92.035a.68.68 0 0 1 .68.676v33.14a.677.677 0 0 1-.68.677H57.387a.674.674 0 0 1-.676-.676zm14.258 48.824h64.867v13.934H70.969zM25.03 345.098c0-24.125 19.63-43.754 43.758-43.754h49.36c18.546 0 35.14 11.629 41.66 28.726h-45.54c-8.91 0-17.593 3.653-23.828 10.024l-60.52 61.875h-4.89zm0 0" fill="#000000" data-original="#000000" class=""></path><path d="M137.21 87.102a7.504 7.504 0 1 1-15.007 0 7.504 7.504 0 1 1 15.008 0zM111.512 87.102a7.504 7.504 0 1 1-15.008 0 7.504 7.504 0 1 1 15.008 0zM84.605 87.102a7.503 7.503 0 1 1-15.004 0 7.503 7.503 0 1 1 15.004 0zM200.656 223.047l-10.375 3.621a18.64 18.64 0 0 0-12.722 17.703c0 1.727.242 3.45.718 5.129 2.282 8 9.66 13.559 17.993 13.559h.148l74.898-.711a37.8 37.8 0 0 0 10.137-1.461l50.442-14.203 1.402 4.898a15.11 15.11 0 0 0 7.246 9.121 15.127 15.127 0 0 0 11.574 1.328l32.434-9.277c8.07-2.309 12.758-10.75 10.449-18.82l-1.328-4.641 92.277-25.984c9.446-2.704 15.992-10.782 16.668-20.582.684-9.805-4.683-18.715-13.672-22.696l-20.515-9.09a74.355 74.355 0 0 0-53.91-2.527l-47.993 16.746a7.51 7.51 0 0 0-4.613 9.559 7.505 7.505 0 0 0 9.559 4.61l47.941-16.731a59.39 59.39 0 0 1 34.504-.934l-6.938 1.914a7.503 7.503 0 0 0 1.992 14.734c.66 0 1.333-.085 2-.273l25.626-7.066 6.27 2.777c4.8 2.129 4.874 6.613 4.78 7.938-.09 1.32-.78 5.75-5.796 7.183l-93.38 26.297c-3.706-4.742-10.05-7.035-16.183-5.281l-32.434 9.277a15.142 15.142 0 0 0-9.12 7.25 15.247 15.247 0 0 0-1.801 5.516l-51.582 14.523a22.995 22.995 0 0 1-6.157.89l-74.906.708h-.031c-1.645 0-3.102-1.09-3.547-2.66a3.803 3.803 0 0 1-.145-1.02 3.661 3.661 0 0 1 2.504-3.484c.035-.012.07-.024.11-.035L335.73 191.8a7.5 7.5 0 0 0 4.61-9.555 7.499 7.499 0 0 0-9.555-4.61l-74.738 26.079-43.18-37.867c-6.547-5.77-15.469-7.778-23.855-5.38l-11.918 3.41a8.972 8.972 0 0 0-5.871 5.376 8.986 8.986 0 0 0 .761 7.926zm143.2 10.648c.042-.078.093-.093.128-.101l32.434-9.278a.157.157 0 0 1 .059-.011c.093 0 .18.062.207.156l3.89 13.598a.219.219 0 0 1-.148.265l-32.434 9.278c-.031.011-.086.027-.164-.02-.078-.043-.094-.098-.105-.129l-3.887-13.594c-.012-.03-.027-.086.02-.164zM193.14 174.898c3.449-.992 7.117-.16 9.824 2.22l36.805 32.28-24.586 8.579-26.188-41.895zm0 0" fill="#000000" data-original="#000000" class=""></path><path d="M411.328 191.86a7.5 7.5 0 0 0 4.848-9.438 7.5 7.5 0 0 0-9.438-4.848 7.5 7.5 0 0 0-4.847 9.438 7.5 7.5 0 0 0 9.437 4.847zM387.559 199.492a7.503 7.503 0 1 0-4.586-14.285 7.504 7.504 0 0 0-4.852 9.438 7.5 7.5 0 0 0 9.438 4.847zM363.79 207.129a7.506 7.506 0 0 0 4.85-9.438 7.506 7.506 0 0 0-9.437-4.851 7.504 7.504 0 0 0 4.586 14.29zM335.434 200.473a7.504 7.504 0 0 0 4.586 14.289 7.506 7.506 0 0 0 4.851-9.438 7.506 7.506 0 0 0-9.437-4.851zM311.664 208.105a7.504 7.504 0 0 0 4.586 14.29 7.504 7.504 0 0 0-4.586-14.29zM287.895 215.738a7.506 7.506 0 0 0-4.852 9.438 7.506 7.506 0 0 0 9.437 4.851 7.504 7.504 0 0 0-4.586-14.29zM125.152 355.59h-7.238a7.504 7.504 0 1 0 0 15.008h7.238a7.504 7.504 0 1 0 0-15.008zM153.516 355.59h-7.243c-4.14 0-7.5 3.36-7.5 7.504s3.36 7.504 7.5 7.504h7.243c4.14 0 7.5-3.36 7.5-7.504s-3.36-7.504-7.5-7.504zM181.875 355.59h-7.238a7.504 7.504 0 1 0 0 15.008h7.238a7.504 7.504 0 1 0 0-15.008zM210.234 355.59h-7.238a7.504 7.504 0 1 0 0 15.008h7.238a7.504 7.504 0 1 0 0-15.008zM125.152 379.07h-7.238a7.503 7.503 0 1 0 0 15.004h7.238a7.503 7.503 0 1 0 0-15.004zM94.434 379.07h-7.239a7.503 7.503 0 1 0 0 15.004h7.239a7.503 7.503 0 1 0 0-15.004zM234.559 379.07a7.503 7.503 0 1 0 0 15.004h7.242a7.503 7.503 0 0 0 0-15.004zM153.516 379.07h-7.243a7.502 7.502 0 0 0 0 15.004h7.243a7.503 7.503 0 0 0 0-15.004zM181.875 379.07h-7.238a7.503 7.503 0 1 0 0 15.004h7.238a7.503 7.503 0 1 0 0-15.004zM210.234 379.07h-7.238a7.503 7.503 0 1 0 0 15.004h7.238a7.503 7.503 0 1 0 0-15.004zm0 0" fill="#000000" data-original="#000000" class=""></path></g></svg>