<svg xmlns="http://www.w3.org/2000/svg" version="1.1" xmlns:xlink="http://www.w3.org/1999/xlink" xmlns:svgjs="http://svgjs.com/svgjs" width="512" height="512" x="0" y="0" viewBox="0 0 512 512" style="enable-background:new 0 0 512 512" xml:space="preserve" class=""><g><path d="M447.944 50.915H60.177a6.252 6.252 0 0 0-6.254 6.254v129.099c0 17.303 14.075 31.375 31.378 31.375h31.241v188.479c0 21.902 17.816 39.719 39.719 39.719h195.673c21.902 0 39.719-17.816 39.719-39.719V217.644h31.168c17.303 0 31.378-14.072 31.378-31.375v-129.1a6.253 6.253 0 0 0-6.255-6.254zM129.05 406.122V131.946h128.626v301.386H156.26c-15.003 0-27.21-12.203-27.21-27.21zm200.96-274.176v301.386h-59.825V131.946zm49.134 274.176c0 15.007-12.206 27.21-27.21 27.21h-9.415V131.946h36.625zm62.546-219.854c0 10.401-8.465 18.867-18.87 18.867h-31.168v-73.189h19.023c3.454 0 6.254-2.797 6.254-6.254s-2.8-6.254-6.254-6.254H97.519c-3.454 0-6.254 2.797-6.254 6.254s2.8 6.254 6.254 6.254h19.023v73.189H85.301c-10.405 0-18.87-8.465-18.87-18.867V63.424H441.69z" fill="#000000" data-original="#000000"></path><path d="M185.156 347.995a6.252 6.252 0 0 0-6.254 6.254v25.811c0 3.457 2.8 6.254 6.254 6.254s6.254-2.797 6.254-6.254v-25.811c0-3.457-2.8-6.254-6.254-6.254zM185.156 282.648a6.252 6.252 0 0 0-6.254 6.254v25.811c0 3.457 2.8 6.254 6.254 6.254s6.254-2.797 6.254-6.254v-25.811c0-3.456-2.8-6.254-6.254-6.254z" fill="#000000" data-original="#000000"></path></g></svg>