<svg clip-rule="evenodd" fill-rule="evenodd" height="512" stroke-linejoin="round" stroke-miterlimit="2" viewBox="0 0 64 64" width="512" xmlns="http://www.w3.org/2000/svg"><g><path d="m49 42.955v15.045c0 1.643-1.375 3-3.1 3h-37.8c-1.725 0-3.1-1.357-3.1-3v-44c0-1.657 1.343-3 3-3h1c0-1.657 1.343-3 3-3h10c0-2.76 2.24-5 5-5s5 2.24 5 5h10c1.657 0 3 1.343 3 3h1c1.657 0 3 1.343 3 3v7.045c5.603.506 10 5.221 10 10.955s-4.397 10.449-10 10.955zm-40-29.955h-1c-.552 0-1 .448-1 1v44c0 .566.505 1 1.1 1h37.8c.595 0 1.1-.434 1.1-1v-15.045c-5.603-.506-10-5.221-10-10.955s4.397-10.449 10-10.955v-7.045c0-.552-.448-1-1-1h-1c0 1.657-1.343 3-3 3h-30c-1.657 0-3-1.343-3-3zm14.126-3h-11.126c-.552 0-1 .448-1 1v2c0 .552.448 1 1 1h30c.552 0 1-.448 1-1v-2c0-.552-.448-1-1-1h-11.126c-.085 0-.168-.011-.25-.032-.441-.113-.75-.512-.75-.968 0-.084.01-.168.031-.25.062-.24.095-.491.095-.75 0-1.656-1.344-3-3-3s-3 1.344-3 3c0 .259.033.51.095.75.021.082.031.166.031.25 0 .456-.309.855-.75.968-.082.021-.165.032-.25.032zm24.874 31c4.967 0 9-4.033 9-9s-4.033-9-9-9-9 4.033-9 9 4.033 9 9 9zm-29-1v2c0 1.105-.895 2-2 2h-2c-1.105 0-2-.895-2-2v-2c0-1.105.895-2 2-2h2c1.105 0 2 .895 2 2zm-2 2v-2h-2v2zm5-16c-.552 0-1-.448-1-1s.448-1 1-1h14c.552 0 1 .448 1 1s-.448 1-1 1zm-3 22v2c0 1.105-.895 2-2 2h-2c-1.105 0-2-.895-2-2v-2c0-1.105.895-2 2-2h2c1.105 0 2 .895 2 2zm-2 2v-2h-2v2zm5-16c-.552 0-1-.448-1-1s.448-1 1-1h12c.552 0 1 .448 1 1s-.448 1-1 1zm-3-10v2c0 1.105-.895 2-2 2h-2c-1.105 0-2-.895-2-2v-2c0-1.105.895-2 2-2h2c1.105 0 2 .895 2 2zm-2 2v-2h-2v2zm5 16c-.552 0-1-.448-1-1s.448-1 1-1h14c.552 0 1 .448 1 1s-.448 1-1 1zm0 8c-.552 0-1-.448-1-1s.448-1 1-1h18c.552 0 1 .448 1 1s-.448 1-1 1zm-3-18v2c0 1.105-.895 2-2 2h-2c-1.105 0-2-.895-2-2v-2c0-1.105.895-2 2-2h2c1.105 0 2 .895 2 2zm-2 2v-2h-2v2zm26.741-1.099c-.359-.419-.311-1.051.108-1.409.419-.36 1.051-.312 1.41.107l2.048 2.389 3.311-6.209c.259-.487.866-.671 1.353-.411.487.259.671.866.411 1.353l-4 7.5c-.155.291-.444.487-.773.523-.328.036-.653-.092-.868-.343z"/></g></svg>