<svg xmlns="http://www.w3.org/2000/svg" version="1.1" xmlns:xlink="http://www.w3.org/1999/xlink" xmlns:svgjs="http://svgjs.com/svgjs" width="512" height="512" x="0" y="0" viewBox="0 0 64 64" style="enable-background:new 0 0 512 512" xml:space="preserve" class=""><g><path fill="#c1c8d1" d="M36 2h24v44H36z" data-original="#c1c8d1" class=""></path><path fill="#e6e9ed" d="M36 44.069C45.149 36.735 51 25.544 51 13c0-3.817-.553-7.504-1.564-11H36z" data-original="#e6e9ed" class=""></path><path fill="#ffffff" d="M40 36h6v6h-6z" data-original="#7fcdee" class=""></path><path fill="#ffffff" d="M43.628 36H40v4.376A40.185 40.185 0 0 0 43.628 36z" data-original="#b2e1f5" class=""></path><path fill="#acb3bc" d="M12 24h24v34H12z" data-original="#acb3bc" class=""></path><path fill="#e6e9ed" d="M12 52.963c9.082-.327 17.4-3.603 24-8.893V24H12z" data-original="#e6e9ed" class=""></path><path fill="#ffffff" d="M50 36h6v6h-6zM50 26h6v6h-6zM50 16h6v6h-6zM50 6h6v6h-6z" data-original="#7fcdee" class=""></path><path fill="#ffffff" d="M40 6h6v6h-6zM40 16h6v6h-6zM40 26h6v6h-6zM26 40h6v6h-6zM16 40h6v6h-6zM16 30h6v6h-6zM26 30h6v6h-6z" data-original="#b2e1f5" class=""></path><path fill="#ffffff" d="M36 46h24v12H36z" data-original="#758190" class=""></path><path fill="#c1c8d1" d="M44 58v-4a4 4 0 0 1 8 0v4z" data-original="#c1c8d1" class=""></path><path fill="#ffffff" d="M20 58v-4a4 4 0 0 1 8 0v4zM2 58h60v4H2z" data-original="#758190" class=""></path><circle cx="14" cy="14" r="12" fill="#395d87" data-original="#f9d18b" class=""></circle><path fill="#ffffff" d="M24.382 20a12.046 12.046 0 0 1-3.754 4H36v-4z" data-original="#758190" class=""></path><path fill="#4a78af" d="M2 14c0 3.531 1.534 6.696 3.962 8.892C14.979 21.941 22 14.52 22 5.5c0-.151-.019-.297-.023-.447A11.94 11.94 0 0 0 14 2C7.373 2 2 7.373 2 14z" data-original="#fbe3b9" class=""></path><path d="M62 63H2a1 1 0 0 1-1-1v-4a1 1 0 0 1 1-1h60a1 1 0 0 1 1 1v4a1 1 0 0 1-1 1zM3 61h58v-2H3z" fill="#000000" data-original="#000000" class=""></path><path d="M61 58h-2V3H37v55h-2V2a1 1 0 0 1 1-1h24a1 1 0 0 1 1 1z" fill="#000000" data-original="#000000" class=""></path><path d="M46 13h-6a1 1 0 0 1-1-1V6a1 1 0 0 1 1-1h6a1 1 0 0 1 1 1v6a1 1 0 0 1-1 1zm-5-2h4V7h-4zM56 13h-6a1 1 0 0 1-1-1V6a1 1 0 0 1 1-1h6a1 1 0 0 1 1 1v6a1 1 0 0 1-1 1zm-5-2h4V7h-4zM46 23h-6a1 1 0 0 1-1-1v-6a1 1 0 0 1 1-1h6a1 1 0 0 1 1 1v6a1 1 0 0 1-1 1zm-5-2h4v-4h-4zM56 23h-6a1 1 0 0 1-1-1v-6a1 1 0 0 1 1-1h6a1 1 0 0 1 1 1v6a1 1 0 0 1-1 1zm-5-2h4v-4h-4zM46 33h-6a1 1 0 0 1-1-1v-6a1 1 0 0 1 1-1h6a1 1 0 0 1 1 1v6a1 1 0 0 1-1 1zm-5-2h4v-4h-4zM56 33h-6a1 1 0 0 1-1-1v-6a1 1 0 0 1 1-1h6a1 1 0 0 1 1 1v6a1 1 0 0 1-1 1zm-5-2h4v-4h-4zM22 37h-6a1 1 0 0 1-1-1v-6a1 1 0 0 1 1-1h6a1 1 0 0 1 1 1v6a1 1 0 0 1-1 1zm-5-2h4v-4h-4zM32 37h-6a1 1 0 0 1-1-1v-6a1 1 0 0 1 1-1h6a1 1 0 0 1 1 1v6a1 1 0 0 1-1 1zm-5-2h4v-4h-4zM22 47h-6a1 1 0 0 1-1-1v-6a1 1 0 0 1 1-1h6a1 1 0 0 1 1 1v6a1 1 0 0 1-1 1zm-5-2h4v-4h-4zM32 47h-6a1 1 0 0 1-1-1v-6a1 1 0 0 1 1-1h6a1 1 0 0 1 1 1v6a1 1 0 0 1-1 1zm-5-2h4v-4h-4zM46 43h-6a1 1 0 0 1-1-1v-6a1 1 0 0 1 1-1h6a1 1 0 0 1 1 1v6a1 1 0 0 1-1 1zm-5-2h4v-4h-4zM56 43h-6a1 1 0 0 1-1-1v-6a1 1 0 0 1 1-1h6a1 1 0 0 1 1 1v6a1 1 0 0 1-1 1zm-5-2h4v-4h-4zM36 45h24v2H36zM53 58h-2v-4c0-1.654-1.346-3-3-3s-3 1.346-3 3v4h-2v-4c0-2.757 2.243-5 5-5s5 2.243 5 5zM29 58h-2v-4c0-1.654-1.346-3-3-3s-3 1.346-3 3v4h-2v-4c0-2.757 2.243-5 5-5s5 2.243 5 5zM11 25.716h2V58h-2zM24 19h12v2H24zM14 21c-2.206 0-4-1.794-4-4h2c0 1.103.897 2 2 2s2-.897 2-2-.897-2-2-2c-2.206 0-4-1.794-4-4s1.794-4 4-4 4 1.794 4 4h-2c0-1.103-.897-2-2-2s-2 .897-2 2 .897 2 2 2c2.206 0 4 1.794 4 4s-1.794 4-4 4z" fill="#000000" data-original="#000000" class=""></path><path d="M13 5h2v3h-2zM13 20h2v3h-2z" fill="#000000" data-original="#000000" class=""></path><path d="M14 27C6.832 27 1 21.168 1 14S6.832 1 14 1s13 5.832 13 13-5.832 13-13 13zm0-24C7.935 3 3 7.935 3 14s4.935 11 11 11 11-4.935 11-11S20.065 3 14 3z" fill="#000000" data-original="#000000" class=""></path><path d="M20.635 23H36v2H20.635z" fill="#000000" data-original="#000000" class=""></path></g></svg>