<svg xmlns="http://www.w3.org/2000/svg" version="1.1" xmlns:xlink="http://www.w3.org/1999/xlink" xmlns:svgjs="http://svgjs.com/svgjs" width="512" height="512" x="0" y="0" viewBox="0 0 64 64" style="enable-background:new 0 0 512 512" xml:space="preserve" class=""><g><path d="M29.351 39H14a1 1 0 1 1 0-2h15.351a1 1 0 1 1 0 2zM29.351 27H14a1 1 0 1 1 0-2h15.351a1 1 0 1 1 0 2zM28 33H8a1 1 0 1 1 0-2h20a1 1 0 1 1 0 2zM38 35.902c-1.987 0-4-1.34-4-3.902s2.013-3.902 4-3.902 4 1.34 4 3.902-2.013 3.902-4 3.902zm0-5.804c-.923 0-2 .498-2 1.902s1.077 1.902 2 1.902 2-.498 2-1.902-1.077-1.902-2-1.902z" fill="#282d6c" data-original="#000000"></path><path d="M40.121 30.879a.999.999 0 0 1-.707-1.707l5.657-5.657a.999.999 0 1 1 1.414 1.414l-5.657 5.657a.997.997 0 0 1-.707.293zM34.465 36.536a.999.999 0 0 1-.707-1.707l1.414-1.415a.999.999 0 1 1 1.414 1.414l-1.414 1.415a.997.997 0 0 1-.707.293zM38 51a1 1 0 0 1-1-1v-3a1 1 0 1 1 2 0v3a1 1 0 0 1-1 1zM50.728 45.728a.997.997 0 0 1-.707-.293L47.9 43.313a.999.999 0 1 1 1.414-1.414l2.121 2.122a.999.999 0 0 1-.707 1.707zM48.606 22.394a.999.999 0 0 1-.707-1.707l2.121-2.122a.999.999 0 1 1 1.414 1.414l-2.121 2.122a.997.997 0 0 1-.707.293zM38 18a1 1 0 0 1-1-1v-3a1 1 0 1 1 2 0v3a1 1 0 0 1-1 1zM56 33h-3a1 1 0 1 1 0-2h3a1 1 0 1 1 0 2zM30.789 21H20a1 1 0 1 1 0-2h10.789a1 1 0 1 1 0 2zM30.789 45H20a1 1 0 1 1 0-2h10.789a1 1 0 1 1 0 2z" fill="#282d6c" data-original="#000000"></path><path d="M37.938 50.981c-2.931 0-5.892-.675-8.642-2.092a1 1 0 1 1 .916-1.778c7.844 4.042 17.615 1.334 22.245-6.165 4.643-7.521 2.7-17.48-4.423-22.673-5.159-3.76-12.155-4.304-17.822-1.385a1 1 0 1 1-.916-1.778c6.333-3.264 14.149-2.657 19.916 1.546 7.962 5.804 10.135 16.935 4.946 25.34-3.551 5.754-9.81 8.985-16.22 8.985z" fill="#282d6c" data-original="#000000"></path></g></svg>