<svg xmlns="http://www.w3.org/2000/svg" version="1.1" xmlns:xlink="http://www.w3.org/1999/xlink" xmlns:svgjs="http://svgjs.com/svgjs" width="512" height="512" x="0" y="0" viewBox="0 0 512 512" style="enable-background:new 0 0 512 512" xml:space="preserve" class=""><g><path fill="#ffffff" d="M488.468 95.677H23.532c-8.854 0-16.032 7.178-16.032 16.032V400.29c0 8.854 7.178 16.032 16.032 16.032h464.935c8.854 0 16.032-7.178 16.032-16.032V111.71c.001-8.855-7.177-16.033-16.031-16.033z" data-original="#e5646e" class=""></path><path fill="#ffffff" d="M264.016 141.484H504.5v45.806H264.016zM256 233.096l8.016 45.807H504.5v-45.807z" data-original="#f2f2f6" class=""></path><path fill="#ffffff" d="M31.548 352.194V95.677h-8.016c-8.854 0-16.032 7.178-16.032 16.032V400.29c0 8.854 7.179 16.032 16.032 16.032h464.935c8.854 0 16.032-7.178 16.032-16.032v-8.016H71.629c-22.1 0-40.081-17.98-40.081-40.08z" data-original="#db4655" class=""></path><path fill="#ffffff" d="M264.016 95.677H23.532c-8.854 0-16.032 7.178-16.032 16.032v167.193h256.516z" data-original="#5055a0" class=""></path><path fill="#ffffff" d="M7.5 324.71h497v45.807H7.5z" data-original="#f2f2f6" class=""></path><path fill="#ffffff" d="M31.548 95.677h-8.016c-8.854 0-16.032 7.178-16.032 16.032v167.193h24.048z" data-original="#3f3f8f" class=""></path><path fill="#ffffff" d="M31.548 352.194V324.71H7.5v45.807h28.691c-2.868-5.518-4.643-11.688-4.643-18.323z" data-original="#e1e1e6" class=""></path><path d="M488.468 88.178H23.532C10.557 88.178 0 98.734 0 111.71v288.58c0 12.976 10.557 23.532 23.532 23.532h464.936c12.976 0 23.532-10.556 23.532-23.532V111.71c0-12.976-10.557-23.532-23.532-23.532zM15 332.21h24.565a7.5 7.5 0 0 0 0-15H15v-30.807h482v30.807H71.625a7.5 7.5 0 0 0 0 15H497v30.806H15zm256.516-137.42H497v30.807H271.516zm0 45.807H497v30.807H271.516zM497 111.71v22.274h-16.548a7.5 7.5 0 0 0 0 15H497v30.806H271.516v-30.806h176.869a7.5 7.5 0 0 0 0-15H271.516v-30.806h216.952c4.704 0 8.532 3.827 8.532 8.532zm-473.468-8.532h232.984v168.226H15V111.71c0-4.705 3.828-8.532 8.532-8.532zm464.936 305.644H23.532c-4.705 0-8.532-3.827-8.532-8.532v-22.274h482v22.274c0 4.705-3.828 8.532-8.532 8.532z" fill="#000000" data-original="#000000" class=""></path><path d="M39.645 130.9a7.5 7.5 0 0 0 0-15h-.08c-4.142 0-7.46 3.358-7.46 7.5s3.397 7.5 7.54 7.5zM39.645 195.029a7.5 7.5 0 0 0 0-15h-.08c-4.142 0-7.46 3.358-7.46 7.5s3.397 7.5 7.54 7.5zM39.645 259.158a7.5 7.5 0 0 0 0-15h-.08c-4.142 0-7.46 3.357-7.46 7.5-.001 4.142 3.397 7.5 7.54 7.5zM39.645 162.964a7.5 7.5 0 0 0 0-15h-.08c-4.142 0-7.46 3.358-7.46 7.5s3.397 7.5 7.54 7.5zM39.645 227.094a7.5 7.5 0 0 0 0-15h-.08c-4.142 0-7.46 3.357-7.46 7.5-.001 4.141 3.397 7.5 7.54 7.5zM232.032 130.9a7.5 7.5 0 0 0 0-15h-.08c-4.142 0-7.46 3.358-7.46 7.5s3.398 7.5 7.54 7.5zM232.032 195.029a7.5 7.5 0 0 0 0-15h-.08c-4.142 0-7.46 3.358-7.46 7.5s3.398 7.5 7.54 7.5zM232.032 259.158a7.5 7.5 0 0 0 0-15h-.08c-4.142 0-7.46 3.357-7.46 7.5 0 4.142 3.398 7.5 7.54 7.5zM232.032 162.964a7.5 7.5 0 0 0 0-15h-.08c-4.142 0-7.46 3.358-7.46 7.5s3.398 7.5 7.54 7.5zM232.032 227.094a7.5 7.5 0 0 0 0-15h-.08c-4.142 0-7.46 3.357-7.46 7.5 0 4.141 3.398 7.5 7.54 7.5zM87.741 130.9a7.5 7.5 0 0 0 0-15h-.08c-4.142 0-7.46 3.358-7.46 7.5s3.398 7.5 7.54 7.5zM87.741 195.029a7.5 7.5 0 0 0 0-15h-.08c-4.142 0-7.46 3.358-7.46 7.5s3.398 7.5 7.54 7.5zM87.741 259.158a7.5 7.5 0 0 0 0-15h-.08c-4.142 0-7.46 3.357-7.46 7.5 0 4.142 3.398 7.5 7.54 7.5zM87.741 162.964a7.5 7.5 0 0 0 0-15h-.08c-4.142 0-7.46 3.358-7.46 7.5s3.398 7.5 7.54 7.5zM87.741 227.094a7.5 7.5 0 0 0 0-15h-.08c-4.142 0-7.46 3.357-7.46 7.5 0 4.141 3.398 7.5 7.54 7.5zM63.693 146.932a7.5 7.5 0 0 0 0-15h-.08c-4.142 0-7.46 3.358-7.46 7.5s3.398 7.5 7.54 7.5zM63.693 211.061a7.5 7.5 0 0 0 0-15h-.08c-4.142 0-7.46 3.358-7.46 7.5s3.398 7.5 7.54 7.5zM63.693 178.997a7.5 7.5 0 0 0 0-15h-.08c-4.142 0-7.46 3.358-7.46 7.5s3.398 7.5 7.54 7.5zM63.693 243.126a7.5 7.5 0 0 0 0-15h-.08c-4.142 0-7.46 3.357-7.46 7.5 0 4.142 3.398 7.5 7.54 7.5zM135.838 130.9a7.5 7.5 0 0 0 0-15h-.08c-4.142 0-7.46 3.358-7.46 7.5s3.398 7.5 7.54 7.5zM135.838 195.029a7.5 7.5 0 0 0 0-15h-.08c-4.142 0-7.46 3.358-7.46 7.5s3.398 7.5 7.54 7.5zM135.838 259.158a7.5 7.5 0 0 0 0-15h-.08c-4.142 0-7.46 3.357-7.46 7.5 0 4.142 3.398 7.5 7.54 7.5zM135.838 162.964a7.5 7.5 0 0 0 0-15h-.08c-4.142 0-7.46 3.358-7.46 7.5s3.398 7.5 7.54 7.5zM135.838 227.094a7.5 7.5 0 0 0 0-15h-.08c-4.142 0-7.46 3.357-7.46 7.5 0 4.141 3.398 7.5 7.54 7.5zM111.79 146.932a7.5 7.5 0 0 0 0-15h-.081c-4.142 0-7.459 3.358-7.459 7.5s3.398 7.5 7.54 7.5zM111.79 211.061a7.5 7.5 0 0 0 0-15h-.081c-4.142 0-7.459 3.358-7.459 7.5s3.398 7.5 7.54 7.5zM111.79 178.997a7.5 7.5 0 0 0 0-15h-.081c-4.142 0-7.459 3.358-7.459 7.5s3.398 7.5 7.54 7.5zM111.79 243.126a7.5 7.5 0 0 0 0-15h-.081c-4.142 0-7.459 3.357-7.459 7.5 0 4.142 3.398 7.5 7.54 7.5zM183.855 130.9a7.5 7.5 0 0 0 0-15h-.08c-4.142 0-7.46 3.358-7.46 7.5s3.398 7.5 7.54 7.5zM183.855 195.029a7.5 7.5 0 0 0 0-15h-.08c-4.142 0-7.46 3.358-7.46 7.5s3.398 7.5 7.54 7.5zM183.855 259.158a7.5 7.5 0 0 0 0-15h-.08c-4.142 0-7.46 3.357-7.46 7.5 0 4.142 3.398 7.5 7.54 7.5zM183.855 162.964a7.5 7.5 0 0 0 0-15h-.08c-4.142 0-7.46 3.358-7.46 7.5s3.398 7.5 7.54 7.5zM183.855 227.094a7.5 7.5 0 0 0 0-15h-.08c-4.142 0-7.46 3.357-7.46 7.5 0 4.141 3.398 7.5 7.54 7.5zM159.807 146.932a7.5 7.5 0 0 0 0-15h-.081c-4.142 0-7.459 3.358-7.459 7.5s3.398 7.5 7.54 7.5zM159.807 211.061a7.5 7.5 0 0 0 0-15h-.081c-4.142 0-7.459 3.358-7.459 7.5s3.398 7.5 7.54 7.5zM159.807 178.997a7.5 7.5 0 0 0 0-15h-.081c-4.142 0-7.459 3.358-7.459 7.5s3.398 7.5 7.54 7.5zM159.807 243.126a7.5 7.5 0 0 0 0-15h-.081c-4.142 0-7.459 3.357-7.459 7.5 0 4.142 3.398 7.5 7.54 7.5zM207.983 146.932a7.5 7.5 0 0 0 0-15h-.08c-4.142 0-7.46 3.358-7.46 7.5s3.398 7.5 7.54 7.5zM207.983 211.061a7.5 7.5 0 0 0 0-15h-.08c-4.142 0-7.46 3.358-7.46 7.5s3.398 7.5 7.54 7.5zM207.983 178.997a7.5 7.5 0 0 0 0-15h-.08c-4.142 0-7.46 3.358-7.46 7.5s3.398 7.5 7.54 7.5zM207.983 243.126a7.5 7.5 0 0 0 0-15h-.08c-4.142 0-7.46 3.357-7.46 7.5 0 4.142 3.398 7.5 7.54 7.5z" fill="#000000" data-original="#000000" class=""></path></g></svg>