<svg xmlns="http://www.w3.org/2000/svg" version="1.1" xmlns:xlink="http://www.w3.org/1999/xlink" xmlns:svgjs="http://svgjs.com/svgjs" width="512" height="512" x="0" y="0" viewBox="0 0 512 512" style="enable-background:new 0 0 512 512" xml:space="preserve" class=""><g><g data-name="Layer 26"><path fill="#e3e8f6" d="M16 224h480v256H16z" data-original="#e3e8f6" class=""></path><path fill="#f8f7fe" d="M32 440a24 24 0 0 0 24 24h440V224H32z" data-original="#f8f7fe" class=""></path><path fill="#f8f7fe" d="M168 368h176v128H168z" data-original="#f8f7fe" class=""></path><path fill="#395d87" d="M112 192h288v32H112z" data-original="#64a5f8" class=""></path><path fill="#4a78af" d="M152 208h248v-16H129.47A23.928 23.928 0 0 0 152 208z" data-original="#a4cafb" class=""></path><path fill="#395d87" d="M112 336h288v32H112z" data-original="#64a5f8" class=""></path><path fill="#4a78af" d="M128 368h48v32h-48z" data-original="#a4cafb" class=""></path><path fill="#c4dcfc" d="M168 392h8v-24h-38.869A31.926 31.926 0 0 0 168 392z" data-original="#c4dcfc" class=""></path><path fill="#4a78af" d="M128 464h48v32h-48z" data-original="#a4cafb" class=""></path><path fill="#c4dcfc" d="M168 488h8v-24h-38.869A31.926 31.926 0 0 0 168 488z" data-original="#c4dcfc" class=""></path><path fill="#4a78af" d="M336 464h48v32h-48z" data-original="#a4cafb" class=""></path><path fill="#c4dcfc" d="M376 488h8v-24h-38.869A31.926 31.926 0 0 0 376 488z" data-original="#c4dcfc" class=""></path><path fill="#4a78af" d="M336 368h48v32h-48z" data-original="#a4cafb" class=""></path><path fill="#c4dcfc" d="M376 392h8v-24h-38.869A31.926 31.926 0 0 0 376 392z" data-original="#c4dcfc" class=""></path><path fill="#395d87" d="M136 400h32v64h-32zM208 400h96v96h-96z" data-original="#64a5f8" class=""></path><path fill="#e3e8f6" d="M96 160h320v32H96z" data-original="#e3e8f6" class=""></path><path fill="#f8f7fe" d="M144 176h272v-16H116.438A31.863 31.863 0 0 0 144 176z" data-original="#f8f7fe" class=""></path><path fill="#395d87" d="M394.465 152.093a169.017 169.017 0 0 0-276.93 0L112 160h288z" data-original="#64a5f8" class=""></path><path fill="#4a78af" d="M272 80.835a168.966 168.966 0 0 0-122.465 71.258L144 160h256l-5.535-7.907A168.966 168.966 0 0 0 272 80.835z" data-original="#a4cafb" class=""></path><path fill="#395d87" d="M48 256h32v64H48z" data-original="#64a5f8" class=""></path><path fill="#4a78af" d="M56 280a31.926 31.926 0 0 0 24 30.869V256H56z" data-original="#a4cafb" class=""></path><path fill="#395d87" d="M48 352h32v64H48z" data-original="#64a5f8" class=""></path><path fill="#4a78af" d="M56 376a31.926 31.926 0 0 0 24 30.869V352H56z" data-original="#a4cafb" class=""></path><path fill="#395d87" d="M432 256h32v64h-32z" data-original="#64a5f8" class=""></path><path fill="#4a78af" d="M440 280a31.926 31.926 0 0 0 24 30.869V256h-24z" data-original="#a4cafb" class=""></path><path fill="#395d87" d="M432 352h32v64h-32z" data-original="#64a5f8" class=""></path><path fill="#4a78af" d="M440 376a31.926 31.926 0 0 0 24 30.869V352h-24z" data-original="#a4cafb" class=""></path><path fill="#395d87" d="M352 256h32v64h-32z" data-original="#64a5f8" class=""></path><path fill="#4a78af" d="M360 280a31.926 31.926 0 0 0 24 30.869V256h-24z" data-original="#a4cafb" class=""></path><path fill="#395d87" d="M128 256h32v64h-32z" data-original="#64a5f8" class=""></path><path fill="#4a78af" d="M136 280a31.926 31.926 0 0 0 24 30.869V256h-24z" data-original="#a4cafb" class=""></path><path fill="#4a78af" d="m256 256-128 56v24h256v-24z" data-original="#a4cafb" class=""></path><path fill="#c4dcfc" d="M145.567 304.315A23.94 23.94 0 0 0 168 320h216v-8l-128-56z" data-original="#c4dcfc" class=""></path><path fill="#395d87" d="M344 400h32v64h-32z" data-original="#64a5f8" class=""></path><path fill="#4a78af" d="M272 400h32v80a32 32 0 0 1-32-32v-48zM224 400h32v80a32 32 0 0 1-32-32v-48z" data-original="#a4cafb" class=""></path><path fill="#4ca587" d="M256 16h48v32h-48z" data-original="#eb445c" class=""></path><path fill="#5fcfa9" d="M296 40h8V16h-38.869A31.926 31.926 0 0 0 296 40z" data-original="#ee6a79" class=""></path><path d="M440 472h-48v-8a8 8 0 0 0-8-8v-48a8 8 0 0 0 8-8v-24h8a8 8 0 0 0 8-8v-32a8 8 0 0 0-8-8h-8v-72a8 8 0 0 0-8-8h-32a8 8 0 0 0-8 8v29.771l-84.8-37.1a8.019 8.019 0 0 0-6.406 0l-84.8 37.1V256a8 8 0 0 0-8-8H128a8 8 0 0 0-8 8v72h-8a8 8 0 0 0-8 8v32a8 8 0 0 0 8 8h8v24a8 8 0 0 0 8 8v48a8 8 0 0 0-8 8v8H24V280a8 8 0 0 0-16 0v200a8 8 0 0 0 8 8h104v8a8 8 0 0 0 8 8h256a8 8 0 0 0 8-8v-8h48a8 8 0 0 0 0-16zm-80-208h16v35.771l-16-7zm-224 0h16v28.771l-16 7zm0 53.235 120-52.5 120 52.5V328H136zM168 488h-32v-16h32zm-24-32v-48h16v48zm24-64h-32v-16h32zm80 96h-32v-80h32zm48 0h-32v-80h32zm40-32a8 8 0 0 0-8 8v24h-16v-88a8 8 0 0 0-8-8h-96a8 8 0 0 0-8 8v88h-16v-24a8 8 0 0 0-8-8v-48a8 8 0 0 0 8-8v-24h144v24a8 8 0 0 0 8 8zm40 32h-32v-16h32zm-24-32v-48h16v48zm24-64h-32v-16h32zm-256-32v-16h272v16z" fill="#000000" data-original="#000000" class=""></path><path d="M496 216h-88v-16h8a8 8 0 0 0 8-8v-32a8 8 0 0 0-8-8h-11.834l-3.15-4.492A177.1 177.1 0 0 0 264 72.245V56h40a8 8 0 0 0 8-8V16a8 8 0 0 0-8-8h-48a8 8 0 0 0-8 8v56.245A177.116 177.116 0 0 0 110.984 147.5l-3.152 4.5H96a8 8 0 0 0-8 8v32a8 8 0 0 0 8 8h8v16H16a8 8 0 0 0-8 8v24a8 8 0 0 0 16 0v-16h464v240h-16a8 8 0 0 0 0 16h24a8 8 0 0 0 8-8V224a8 8 0 0 0-8-8zM264 24h32v16h-32zM104 168h232a8 8 0 0 0 0-16H127.586a160.824 160.824 0 0 1 256.823 0H368a8 8 0 0 0 0 16h40v16H104zm16 32h272v16H120z" fill="#000000" data-original="#000000" class=""></path><path d="M48 328h32a8 8 0 0 0 8-8v-64a8 8 0 0 0-8-8H48a8 8 0 0 0-8 8v64a8 8 0 0 0 8 8zm8-64h16v48H56zM40 416a8 8 0 0 0 8 8h32a8 8 0 0 0 8-8v-64a8 8 0 0 0-8-8H48a8 8 0 0 0-8 8zm16-56h16v48H56zM432 328h32a8 8 0 0 0 8-8v-64a8 8 0 0 0-8-8h-32a8 8 0 0 0-8 8v64a8 8 0 0 0 8 8zm8-64h16v48h-16zM424 416a8 8 0 0 0 8 8h32a8 8 0 0 0 8-8v-64a8 8 0 0 0-8-8h-32a8 8 0 0 0-8 8zm16-56h16v48h-16z" fill="#000000" data-original="#000000" class=""></path></g></g></svg>