<svg xmlns="http://www.w3.org/2000/svg" version="1.1" xmlns:xlink="http://www.w3.org/1999/xlink" xmlns:svgjs="http://svgjs.com/svgjs" width="512" height="512" x="0" y="0" viewBox="0 0 512.002 512.002" style="enable-background:new 0 0 512 512" xml:space="preserve" class=""><g><path d="M256.102 346.442c-6.105-4.624-13.603-6.152-20.597-4.848a25.975 25.975 0 0 0-10.003-16.559c-5.571-4.219-12.449-6.015-19.372-5.06a26.437 26.437 0 0 0-4.983 1.188 26.024 26.024 0 0 0-9.3-13.503c-7.651-5.795-17.487-6.722-25.779-3.312-1.651-4.969-4.752-9.325-9.016-12.555-5.57-4.219-12.452-6.014-19.372-5.06-5.613.775-10.707 3.285-14.683 7.176l-27.452-1.825 16.826-136.683 30.15 2.049a7.5 7.5 0 0 0 7.182-4.063l11.299-22.047c2.863-5.581 9.326-8.418 15.369-6.745l16.78 4.64a7.505 7.505 0 0 0 9.228-5.23 7.5 7.5 0 0 0-5.23-9.228l-16.777-4.639c-12.86-3.56-26.62 2.476-32.715 14.357l-9.047 17.653-24.402-1.658.578-4.696c1.848-15.009-8.859-28.722-23.868-30.57l-57.788-7.11a7.5 7.5 0 0 0-1.833 14.887l57.788 7.114a12.34 12.34 0 0 1 8.275 4.685 12.344 12.344 0 0 1 2.538 9.165l-19.844 161.2c-.837 6.799-7.051 11.646-13.85 10.814l-57.788-7.114a7.5 7.5 0 0 0-1.833 14.887l57.788 7.114c1.132.139 2.257.207 3.37.207 10.13 0 19.269-5.628 24.004-14.207l20.537 1.365a25.973 25.973 0 0 0-2.65 15.538c.956 6.921 4.55 13.057 10.12 17.275 4.593 3.479 10.075 5.31 15.739 5.31 1.205 0 2.418-.083 3.633-.25.078-.011.154-.026.231-.038.01.078.016.155.026.233.956 6.921 4.55 13.057 10.12 17.275a26.027 26.027 0 0 0 15.762 5.295c1.29 0 2.577-.105 3.851-.293.864 6.728 4.315 13.119 10.137 17.528a26.02 26.02 0 0 0 15.762 5.295c1.286 0 2.569-.104 3.839-.291.011.083.017.167.028.25.956 6.921 4.55 13.057 10.121 17.275 4.593 3.478 10.075 5.31 15.738 5.31a26.65 26.65 0 0 0 3.633-.25c6.922-.956 13.057-4.55 17.275-10.12l15.514-20.485c8.71-11.498 6.44-27.938-5.059-36.646zm-119.029-15.196a11.084 11.084 0 0 1-8.263-2.159 11.087 11.087 0 0 1-4.317-7.369 11.085 11.085 0 0 1 2.159-8.264l5.713-7.544a11.087 11.087 0 0 1 7.369-4.317 11.098 11.098 0 0 1 8.264 2.159 11.087 11.087 0 0 1 4.317 7.369 11.087 11.087 0 0 1-2.158 8.263l-5.714 7.544a11.09 11.09 0 0 1-7.37 4.318zm21.486 20.371a11.087 11.087 0 0 1-4.317-7.369 11.085 11.085 0 0 1 2.159-8.264l5.713-7.543.001-.002 5.045-6.662a11.148 11.148 0 0 1 8.909-4.417 11.1 11.1 0 0 1 6.723 2.259c4.905 3.715 5.874 10.727 2.159 15.633l-10.759 14.207c-3.715 4.905-10.728 5.873-15.633 2.158zm29.75 22.53a11.087 11.087 0 0 1-4.317-7.37 11.082 11.082 0 0 1 2.156-8.26l.002-.003 10.759-14.208 3.904-5.155a11.087 11.087 0 0 1 7.37-4.317 11.092 11.092 0 0 1 8.264 2.159c4.903 3.713 5.872 10.722 2.162 15.627l-14.667 19.367-.002.003c-3.716 4.903-10.725 5.872-15.631 2.157zm60.896-.114-15.514 20.485a11.087 11.087 0 0 1-7.369 4.317c-2.955.407-5.888-.359-8.264-2.158s-3.909-4.417-4.317-7.369a11.085 11.085 0 0 1 2.159-8.264l14.664-19.362.008-.01.843-1.113a11.087 11.087 0 0 1 7.37-4.317 11.098 11.098 0 0 1 8.264 2.159c4.902 3.713 5.871 10.727 2.156 15.632z" fill="#282d6c" data-original="#000000"></path><path d="M511.945 305.392a7.501 7.501 0 0 0-8.36-6.527l-57.787 7.114c-6.809.837-13.013-4.015-13.85-10.814l-.592-4.811-.137-1.114-19.114-155.275a12.345 12.345 0 0 1 2.538-9.165 12.34 12.34 0 0 1 8.275-4.685l57.788-7.114a7.5 7.5 0 1 0-1.833-14.887l-57.788 7.114c-14.123 1.739-24.433 13.984-24.062 27.929l-14.573 1.794-45.126-25.395a35.814 35.814 0 0 0-20.949-4.474l-.045.006-13.583 1.256a7.499 7.499 0 0 0-6.777 8.159c.381 4.124 4.028 7.153 8.159 6.777l13.621-1.26a20.878 20.878 0 0 1 12.214 2.606l46.787 26.33a7.501 7.501 0 0 0 5.048 1.187l16.926-2.083 12.415 100.843 4.293 34.874-26.997.022c-1.8.001-3.538.65-4.897 1.825l-2.089 1.626-67.778-58.416c15.489-4.453 30.254-15.224 44.059-32.177a7.501 7.501 0 0 0-11.632-9.472c-15.43 18.95-31.654 28.704-48.222 28.99-24.137.454-41.872-19.56-42.035-19.747a7.534 7.534 0 0 0-5.891-2.595 7.502 7.502 0 0 0-5.733 2.927l-20.147 26.22c-10.615 13.816-28.698 18.964-44.999 12.806l-2.151-.813c-1.889-.714-2.659-2.19-2.949-3.007s-.626-2.448.388-4.194l52.584-90.507a21.006 21.006 0 0 1 16.199-10.345l31.133-2.879a7.5 7.5 0 1 0-1.382-14.936l-31.133 2.879a36.035 36.035 0 0 0-27.788 17.746l-52.584 90.507a19.974 19.974 0 0 0-1.551 16.756 19.973 19.973 0 0 0 11.782 12.013l2.151.813a54.64 54.64 0 0 0 19.331 3.553c16.453-.001 32.323-7.535 42.863-21.252l15.031-19.562c8.055 6.942 23.082 17.224 42.264 18.487l97.945 84.416c1.761 1.517 2.826 3.629 2.998 5.947s-.568 4.565-2.083 6.324l-3.817 4.427c-4.795 5.554-13.224 6.171-18.788 1.378a7.497 7.497 0 0 0-.981-.706l-25.426-21.924a7.501 7.501 0 0 0-9.795 11.361l20.662 17.816-9.425 10.938a13.32 13.32 0 0 1-11.653 4.539 13.255 13.255 0 0 1-7.128-3.15c-.036-.031-.075-.057-.111-.087l-23.625-20.37a7.501 7.501 0 0 0-9.795 11.361l18.054 15.567-9.481 11.011a13.337 13.337 0 0 1-11.665 4.539 7.497 7.497 0 0 0-8.324 6.573 7.5 7.5 0 0 0 6.573 8.324 28.319 28.319 0 0 0 24.78-9.645l10.136-11.771a28.141 28.141 0 0 0 8.834 2.546 28.294 28.294 0 0 0 24.767-9.643l10.153-11.783c11.228 5.326 25.096 2.771 33.596-7.076l3.822-4.433a23.553 23.553 0 0 0 5.68-17.229 23.538 23.538 0 0 0-8.164-16.196l-6.156-5.305 22.501-.019c2.459 12.96 13.864 22.299 26.915 22.299 1.112 0 2.239-.068 3.37-.207l57.788-7.114a7.501 7.501 0 0 0 6.528-8.361z" fill="#282d6c" data-original="#000000"></path><path d="M464.003 251.249c-12.13 0-21.999 9.868-21.999 21.998s9.869 21.999 21.999 21.999 21.998-9.869 21.998-21.999-9.868-21.998-21.998-21.998zm0 28.997c-3.859 0-6.999-3.14-6.999-6.999s3.14-6.998 6.999-6.998 6.998 3.139 6.998 6.998-3.139 6.999-6.998 6.999zM69.189 273.247c0-12.13-9.868-21.998-21.998-21.998s-21.998 9.868-21.998 21.998 9.868 21.999 21.998 21.999 21.998-9.869 21.998-21.999zm-28.996 0c0-3.859 3.139-6.998 6.998-6.998s6.998 3.139 6.998 6.998-3.139 6.999-6.998 6.999-6.998-3.14-6.998-6.999z" fill="#282d6c" data-original="#000000"></path></g></svg>