<svg xmlns="http://www.w3.org/2000/svg" version="1.1" xmlns:xlink="http://www.w3.org/1999/xlink" xmlns:svgjs="http://svgjs.com/svgjs" width="512" height="512" x="0" y="0" viewBox="0 0 512 512" style="enable-background:new 0 0 512 512" xml:space="preserve" class=""><g><path fill="#f7f6f7" d="M15.5 504.5h90.975V166.144H37.5c-16.569 0-30 13.431-30 30V496.5a8 8 0 0 0 8 8z" data-original="#f7f6f7" class=""></path><path fill="#edebed" d="M76.475 166.144h30V504.5h-30z" data-original="#edebed" class=""></path><path fill="#4a78af" d="M106.475 211.144H60.5a8 8 0 0 0-8 8.036l.167 36.93a8 8 0 0 0 8 7.964h45.808zM106.475 309.074H60.5a8 8 0 0 0-8 8.036l.167 36.93a8 8 0 0 0 8 7.964h45.808z" data-original="#bed8fb" class=""></path><path fill="#395d87" d="M76.475 211.144h30v52.93h-30zM76.475 309.074h30v52.93h-30z" data-original="#9dc6fb" class=""></path><path fill="#4a78af" d="M106.475 406.57H60.5a8 8 0 0 0-8 8.036l.167 36.93a8 8 0 0 0 8 7.964h45.808z" data-original="#bed8fb" class=""></path><path fill="#395d87" d="M76.475 406.57h30v52.93h-30z" data-original="#9dc6fb" class=""></path><path fill="#f7f6f7" d="M405.525 504.5h-75L256 489.5l-74.525 15H106V126c0-16.569 13.431-30 30-30h239.525c16.569 0 30 13.431 30 30z" data-original="#f7f6f7" class=""></path><path fill="#edebed" d="M375.525 96h-30c16.569 0 30 13.432 30 30v378.5h30V126c0-16.568-13.432-30-30-30z" data-original="#edebed" class=""></path><circle cx="256" cy="96" r="88.5" fill="#ffffff" data-original="#dd636e" class=""></circle><path fill="#ffffff" d="M256 7.5c-5.112 0-10.123.441-15 1.277 41.68 7.146 73.5 43.536 73.5 87.223s-31.82 80.076-73.5 87.223a88.725 88.725 0 0 0 15 1.277c48.799 0 88.5-39.701 88.5-88.5S304.799 7.5 256 7.5z" data-original="#da4a54" class=""></path><path fill="#ffffff" d="M308.5 81H274a3 3 0 0 1-3-3V43.5a6 6 0 0 0-6-6h-18a6 6 0 0 0-6 6V78a3 3 0 0 1-3 3h-34.5a6 6 0 0 0-6 6v18a6 6 0 0 0 6 6H238a3 3 0 0 1 3 3v34.5a6 6 0 0 0 6 6h18a6 6 0 0 0 6-6V114a3 3 0 0 1 3-3h34.5a6 6 0 0 0 6-6V87a6 6 0 0 0-6-6z" data-original="#ffffff" class=""></path><path fill="#655e67" d="M181.475 357.426h149.049V504.5H181.475z" data-original="#655e67" class=""></path><path fill="#544f56" d="M300.525 357.426h30V504.5h-30z" data-original="#544f56" class=""></path><path fill="#4a78af" d="M225.5 282.43h-66.464a8 8 0 0 1-8-8.036l.167-36.93a8 8 0 0 1 8-7.964H225.5a8 8 0 0 1 8 8v36.93a8 8 0 0 1-8 8z" data-original="#bed8fb" class=""></path><path fill="#395d87" d="M225.5 229.5h-30a8 8 0 0 1 8 8v36.93a8 8 0 0 1-8 8h30a8 8 0 0 0 8-8V237.5a8 8 0 0 0-8-8z" data-original="#9dc6fb" class=""></path><path fill="#4a78af" d="M286.5 229.5h66.224a8 8 0 0 1 8 8.036l-.167 36.93a8 8 0 0 1-8 7.964H286.5a8 8 0 0 1-8-8V237.5a8 8 0 0 1 8-8z" data-original="#bed8fb" class=""></path><path fill="#395d87" d="M352.724 229.5h-30a8 8 0 0 1 8 8.036l-.167 36.93a8 8 0 0 1-8 7.964h30a8 8 0 0 0 8-7.964l.167-36.93a8 8 0 0 0-8-8.036z" data-original="#9dc6fb" class=""></path><path fill="#f7f6f7" d="M496.5 504.5h-90.975V166.144H474.5c16.569 0 30 13.431 30 30V496.5a8 8 0 0 1-8 8z" data-original="#f7f6f7" class=""></path><path fill="#edebed" d="M474.5 166.144h-30c16.569 0 30 13.432 30 30V496.5a8 8 0 0 1-8 8h30a8 8 0 0 0 8-8V196.144c0-16.569-13.431-30-30-30z" data-original="#edebed" class=""></path><g fill="#bed8fb"><path d="M405.525 211.144H451.5a8 8 0 0 1 8 8.036l-.167 36.93a8 8 0 0 1-8 7.964h-45.808M405.525 309.074H451.5a8 8 0 0 1 8 8.036l-.167 36.93a8 8 0 0 1-8 7.964h-45.808zM405.525 406.57H451.5a8 8 0 0 1 8 8.036l-.167 36.93a8 8 0 0 1-8 7.964h-45.808z" fill="#4a78af" data-original="#bed8fb" class=""></path></g><path fill="#8b808e" d="M339.525 327.426h-167.05a6 6 0 0 0-6 6v18a6 6 0 0 0 6 6h167.049a6 6 0 0 0 6-6v-18a6 6 0 0 0-5.999-6z" data-original="#8b808e" class=""></path><path fill="#766d78" d="M339.525 327.426h-30a6 6 0 0 1 6 6v18a6 6 0 0 1-6 6h30a6 6 0 0 0 6-6v-18a6 6 0 0 0-6-6z" data-original="#766d78" class=""></path><path d="M474.5 158.644h-33.976a7.5 7.5 0 0 0 0 15H474.5c12.407 0 22.5 10.093 22.5 22.5V496.5a.5.5 0 0 1-.5.5h-83.48v-30h38.312c8.508 0 15.461-6.922 15.5-15.43l.168-36.93c.079-8.475-7.05-15.612-15.5-15.57h-38.48v-29.566h38.312c8.508 0 15.461-6.921 15.5-15.429l.168-36.931c.079-8.475-7.05-15.611-15.5-15.57h-38.48v-30h38.312c8.508 0 15.461-6.922 15.5-15.43l.168-36.931c.079-8.474-7.05-15.611-15.5-15.57h-38.48V126c0-20.678-16.822-37.5-37.5-37.5h-23.812C347.87 39.057 306.411 0 256 0s-91.87 39.057-95.708 88.5H136c-20.678 0-37.5 16.822-37.5 37.5v32.644h-61c-20.678 0-37.5 16.822-37.5 37.5V496.5c0 8.547 6.953 15.5 15.5 15.5h481c8.547 0 15.5-6.953 15.5-15.5V196.144c0-20.678-16.822-37.5-37.5-37.5zm-61.48 60h38.48c.051 0 .208 0 .354.147s.146.303.146.354l-.167 36.93a.501.501 0 0 1-.5.498H413.02zm0 97.93h38.48c.051 0 .208 0 .354.147s.146.304.146.355l-.167 36.93a.502.502 0 0 1-.5.498H413.02zm0 97.496h38.48c.051 0 .208 0 .354.147s.146.304.146.355l-.167 36.93a.502.502 0 0 1-.5.498H413.02zM98.5 452H60.67a.493.493 0 0 1-.5-.495L60 414.576c0-.053-.001-.212.146-.359.146-.147.303-.147.354-.147h38zm0-97.5H60.67a.493.493 0 0 1-.5-.495L60 317.076c0-.052-.001-.208.148-.358.147-.148.301-.148.352-.148h38zm0-97.93H60.67a.493.493 0 0 1-.5-.495L60 219.146c0-.052-.001-.208.148-.358.147-.148.301-.148.352-.148h38zm0-52.93h-38c-8.481-.047-15.575 7.11-15.5 15.575l.17 36.929c.039 8.506 6.992 15.426 15.5 15.426H98.5v30h-38c-8.481-.047-15.575 7.111-15.5 15.575l.17 36.93c.039 8.506 6.992 15.426 15.5 15.426H98.5v29.57h-38c-8.486-.047-15.575 7.105-15.5 15.575l.17 36.93C45.208 460.08 52.162 467 60.67 467H98.5v30h-83a.5.5 0 0 1-.5-.5V196.144c0-12.407 10.093-22.5 22.5-22.5h61zM256 15c44.664 0 81 36.336 81 81s-36.336 81-81 81-81-36.336-81-81 36.336-81 81-81zm67.024 482H263.5V364.926h59.524zM173.976 349.926v-15h164.049v15zM398.02 497h-59.996V364.926c7.829.454 15.05-5.272 15-13.5v-18c0-7.444-6.056-13.5-13.5-13.5H172.476c-7.444 0-13.5 6.056-13.5 13.5v18c-.053 7.882 7.039 14.32 15 13.5v53.109a7.5 7.5 0 0 0 15 0v-53.109H248.5V497h-59.524v-43.965a7.5 7.5 0 0 0-15 0V497H113.5V126c0-12.407 10.093-22.5 22.5-22.5h24.292C164.13 152.943 205.589 192 256 192s91.87-39.057 95.708-88.5h23.812c12.407 0 22.5 10.093 22.5 22.5zM233.5 118.5v30c0 7.444 6.056 13.5 13.5 13.5h18c7.444 0 13.5-6.056 13.5-13.5v-30h30c7.444 0 13.5-6.056 13.5-13.5V87c0-7.444-6.056-13.5-13.5-13.5h-30v-30c0-7.444-6.056-13.5-13.5-13.5h-18c-7.444 0-13.5 6.056-13.5 13.5v30h-30c-7.444 0-13.5 6.056-13.5 13.5v18c0 7.444 6.056 13.5 13.5 13.5zm-28.5-30h33c5.79 0 10.5-4.71 10.5-10.5V45h15v33c0 5.79 4.71 10.5 10.5 10.5h33v15h-33c-5.79 0-10.5 4.71-10.5 10.5v33h-15v-33c0-5.79-4.71-10.5-10.5-10.5h-33zm21 357.639a7.5 7.5 0 0 0 7.5-7.5v-15.351a7.5 7.5 0 0 0-15 0v15.351a7.5 7.5 0 0 0 7.5 7.5zM225.5 222h-66.296c-8.509 0-15.462 6.922-15.5 15.43l-.167 36.929c-.09 8.432 7.032 15.619 15.5 15.571H225.5c8.547 0 15.5-6.953 15.5-15.5V237.5c0-8.547-6.953-15.5-15.5-15.5zm.5 52.43a.5.5 0 0 1-.5.5h-66.464c-.199.026-.527-.303-.5-.502l.167-36.931a.5.5 0 0 1 .5-.497H225.5a.5.5 0 0 1 .5.5zm60 171.709a7.5 7.5 0 0 0 7.5-7.5v-15.351a7.5 7.5 0 0 0-15 0v15.351a7.5 7.5 0 0 0 7.5 7.5zM352.724 222H286.5c-8.547 0-15.5 6.953-15.5 15.5v36.93c0 8.547 6.953 15.5 15.5 15.5h66.056c8.508 0 15.461-6.922 15.5-15.43l.167-36.931c.08-8.473-7.05-15.61-15.499-15.569zm.332 52.432a.502.502 0 0 1-.5.498H286.5a.5.5 0 0 1-.5-.5V237.5a.5.5 0 0 1 .5-.5h66.224c.051 0 .208 0 .354.147s.146.303.146.354z" fill="#000000" data-original="#000000" class=""></path></g></svg>