<svg id="Icon" height="512" viewBox="0 0 64 64" width="512" xmlns="http://www.w3.org/2000/svg"><path d="m61.12012 40.52051-3.1582-3.16016c-1.1709-1.16895-3.07422-1.16602-4.24316.00098l-.47021.47021-3.51611-3.51611c.87695-1.1748 1.35059-2.59473 1.35059-4.08691 0-1.83008-.71289-3.55078-2.00684-4.84473l-9.61072-9.60999 3.25037-3.25037c.24512-.24512.3457-.60059.26563-.93848-.49902-2.10254.10938-4.26465 1.62891-5.7832 1.54688-1.5459 3.75-2.13379 5.80273-1.63184l-.84375.84375c-.17773.17773-.28223.41699-.29199.66895l-.125 3.24902c-.01074.27832.09473.54785.29199.74512.19629.19629.46094.30859.74512.29199l3.24902-.125c.25195-.00977.49121-.11426.66895-.29199l.84375-.84375c.50098 2.05469-.08496 4.25684-1.63184 5.80273-1.51953 1.51953-3.68066 2.12891-5.7832 1.62891-.33691-.0791-.69238.02051-.93848.26563l-1.12891 1.12891c-.39063.39063-.39063 1.02344 0 1.41406s1.02344.39063 1.41406 0l.75-.75c2.60254.43359 5.22168-.39453 7.10059-2.27344 2.50781-2.50684 3.11035-6.31445 1.49805-9.47461-.14551-.28516-.41797-.4834-.73438-.5332-.31348-.05469-.6377.05371-.86328.28027l-1.66309 1.66309-1.77832.06836.06836-1.77832 1.66309-1.66309c.22656-.22656.33105-.54688.28027-.86328-.0498-.31641-.24805-.58887-.5332-.73438-3.15918-1.61133-6.9668-1.00879-9.47461 1.49805-1.87988 1.87793-2.70801 4.49707-2.27344 7.10059l-2.87152 2.87152-1.11578-1.11566c-.88086-.88184-2.05273-1.36621-3.29883-1.36621-.35333 0-.69733.04895-1.03375.12494l-5.0556-5.0556c-1.81982-1.81836-4.7793-1.81836-6.59717 0-1.05658 1.05658-1.48004 2.49591-1.30939 3.87482-1.37897-.17047-2.81824.25281-3.87421 1.30878-.88135.88086-1.36621 2.05273-1.36621 3.29883 0 1.198.45844 2.31995 1.27588 3.18799-.91644.15784-1.79504.58167-2.50098 1.2876-1.78491 1.78491-1.80774 4.66058-.09033 6.487-.94208.16174-1.81195.59888-2.50146 1.28839-.88086.88086-1.36621 2.05176-1.36621 3.29883 0 1.24609.48535 2.41699 1.36621 3.29785l2.72656 2.72656c.36359.36359.7854.64166 1.23285.86432l-3.05365 3.05365c-2.60449-.43457-5.22168.39453-7.10059 2.27344-2.5083 2.50781-3.10986 6.31445-1.49756 9.47363.14551.28516.41846.4834.73438.5332.31689.05273.63721-.05371.86328-.28027l1.66357-1.66211 1.77783-.06934-.06885 1.7793-1.6626 1.66211c-.22607.22656-.33057.54688-.28076.86328s.24805.58887.5332.73438c1.18164.60254 2.45313.89648 3.71338.89648 2.11182-.00098 4.19189-.82324 5.76172-2.39355 1.87939-1.87891 2.70801-4.49805 2.27295-7.10059l15.3739-15.3739c-.01996.23901-.03015.47998-.03015.72253 0 2.27246.88477 4.40918 2.49219 6.01563.42745.55927 1.21451.99148 1.80176.3877.60393-.58756.17137-1.37426-.3877-1.80176-1.22949-1.22949-1.90625-2.86328-1.90625-4.60156s.67676-3.37207 1.90625-4.60156c.1875-.1875.29297-.44141.29297-.70703s-.10547-.51953-.29297-.70703l-4.22461-4.22363c-.39063-.39063-1.02344-.39063-1.41406 0-2.35791 2.35645-6.08984 2.52441-8.6416.5l8.5835-8.58301c1.00684-1.00879 2.76025-1.00781 3.76904 0l12.14063 12.13965c.91602.91602 1.4209 2.13477 1.4209 3.43066s-.50488 2.51465-1.4209 3.43066c-.39063.39063-.39063 1.02344 0 1.41406l4.17236 4.17236-12.15039 12.15039-4.17236-4.17236c-.39063-.39063-1.02344-.39063-1.41406 0-2.13477 2.13281-5.60645 2.13281-7.74023 0l-.9043-.9043c-.39063-.39063-1.02344-.39063-1.41406 0s-.39063 1.02344 0 1.41406l.9043.9043c2.67383 2.67383 6.88477 2.89355 9.81445.66016l3.51221 3.51221-.90967.90967c-1.16992 1.16992-1.16992 3.07324 0 4.24316l3.1582 3.1582c.58496.58496 1.35352.87793 2.12109.87793.76855 0 1.53711-.29297 2.12207-.87793l16.3584-16.3584c.56641-.56641.87891-1.32031.87891-2.12109 0-.80176-.3125-1.55566-.87891-2.12109zm-46.53076-19.20117c.51953-.51953 1.20215-.7793 1.88477-.7793.68213 0 1.36475.25977 1.88428.7793l5.31787 5.31836c1.03906 1.03906 1.03906 2.73047 0 3.76953-1.03809 1.03906-2.729 1.04004-3.76904 0l-5.31787-5.31836c-1.03906-1.03906-1.03906-2.73047 0-3.76953zm-2.5918 11.54395c-.50342-.50293-.78027-1.17188-.78027-1.88379 0-.71289.27686-1.38184.78027-1.88477.50342-.50391 1.17285-.78027 1.88428-.78027.71191 0 1.38135.27637 1.88477.78027l2.72656 2.72656c.50342.50293.78027 1.17188.78027 1.88477 0 .71191-.27686 1.38086-.78027 1.88379-1.00781 1.00781-2.76318 1.00684-3.76904 0l-2.72656-2.72656zm20.479-8.04199 2.85303 2.85205-18.92334 18.92334c-.24561.24512-.34619.60059-.26563.93848.49951 2.10254-.10889 4.26367-1.62842 5.7832-1.5459 1.5459-3.74854 2.13184-5.80273 1.63086l.84326-.84277c.17822-.17773.28271-.41699.29199-.66797l.12549-3.25c.01074-.2793-.09473-.54883-.29199-.74609-.19727-.19629-.46777-.31934-.74561-.29199l-3.24902.12598c-.25146.00977-.49023.11426-.66846.29199l-.84424.84375c-.50098-2.05469.08496-4.25586 1.63232-5.80273 1.51855-1.51953 3.68164-2.13086 5.78271-1.62891.33789.08301.69336-.01953.93848-.26563l4.37183-4.37183c1.13617-.06958 2.19916-.52637 3.01099-1.33911.88135-.88086 1.36621-2.05176 1.36621-3.29785 0-.1955-.03271-.38452-.05621-.5755.19116.02362.3819.05499.57428.05499 1.19482 0 2.38916-.45508 3.29883-1.36426 1.42328-1.42328 1.71674-3.5379.91315-5.26489 2.24878.3194 4.60199-.25806 6.47308-1.73511zm-10.75195-2.96387-4.54395-4.54395c-.50342-.50293-.78027-1.17188-.78027-1.88379s.27686-1.38086.78027-1.88477c1.03906-1.03906 2.73047-1.03906 3.76953 0l4.54358 4.54358-3.76917 3.76892zm5.18329-5.18292-4.54364-4.54364c-1.03906-1.03906-1.03906-2.73047 0-3.76953 1.03906-1.03809 2.72998-1.03906 3.76904 0l4.57703 4.57703c-.12451.10138-3.80243 3.73615-3.80243 3.73615zm32.79816 26.67413-16.3584 16.3584c-.38965.38965-1.02344.3916-1.41504 0l-3.1582-3.1582c-.38965-.39063-.38965-1.02441 0-1.41504l16.3584-16.35742c.19531-.19531.45117-.29297.70801-.29297.25586 0 .51172.09766.70703.29199l3.1582 3.16016c.18945.18848.29297.43848.29297.70605 0 .2666-.10449.51758-.29297.70703z"/></svg>