<?xml version="1.0" encoding="UTF-8" standalone="no"?>
<!-- Created with Inkscape (http://www.inkscape.org/) -->

<svg
   version="1.1"
   id="svg1128"
   xml:space="preserve"
   width="682.66669"
   height="682.66669"
   viewBox="0 0 682.66669 682.66669"
   xmlns="http://www.w3.org/2000/svg"
   xmlns:svg="http://www.w3.org/2000/svg"><defs
     id="defs1132"><clipPath
       clipPathUnits="userSpaceOnUse"
       id="clipPath1142"><path
         d="M 0,512 H 512 V 0 H 0 Z"
         id="path1140" /></clipPath></defs><g
     id="g1134"
     transform="matrix(1.3333333,0,0,-1.3333333,0,682.66667)"><g
       id="g1136"><g
         id="g1138"
         clip-path="url(#clipPath1142)"><g
           id="g1144"
           transform="translate(401,7.5)"><path
             d="m 0,0 h -290 c -13.807,0 -25,11.193 -25,25 V 205.5 H 25 V 25 C 25,11.193 13.807,0 0,0 Z"
             style="fill:none;stroke:#000000;stroke-width:15;stroke-linecap:round;stroke-linejoin:round;stroke-miterlimit:10;stroke-dasharray:221, 35, 800, 0;stroke-dashoffset:0;stroke-opacity:1"
             id="path1146" /></g><g
           id="g1148"
           transform="translate(154.5,136.3335)"><path
             d="m 0,0 v 40.76 c 0,3.314 2.687,6 6,6 h 191 c 3.313,0 6,-2.686 6,-6 V 0 c 0,-3.314 -2.687,-6 -6,-6 H 6 C 2.687,-6 0,-3.314 0,0 Z"
             style="fill:none;stroke:#000000;stroke-width:15;stroke-linecap:round;stroke-linejoin:round;stroke-miterlimit:10;stroke-dasharray:none;stroke-opacity:1"
             id="path1150" /></g><g
           id="g1152"
           transform="translate(426,213)"><path
             d="m 0,0 h -340 v 266.5 c 0,13.807 11.193,25 25,25 h 290 c 13.807,0 25,-11.193 25,-25 z"
             style="fill:none;stroke:#000000;stroke-width:15;stroke-linecap:round;stroke-linejoin:round;stroke-miterlimit:10;stroke-dasharray:114, 35, 600, 0;stroke-dashoffset:0;stroke-opacity:1"
             id="path1154" /></g><g
           id="g1156"
           transform="translate(127.75,430.6665)"><path
             d="m 0,0 v 30.833 c 0,4.419 3.582,8 8,8 H 45.061 V 0 Z"
             style="fill:none;stroke:#000000;stroke-width:15;stroke-linecap:round;stroke-linejoin:round;stroke-miterlimit:10;stroke-dasharray:none;stroke-opacity:1"
             id="path1158" /></g><path
           d="M 172.811,469.5 H 339.189 V 353 H 172.811 Z"
           style="fill:none;stroke:#000000;stroke-width:15;stroke-linecap:round;stroke-linejoin:round;stroke-miterlimit:10;stroke-dasharray:none;stroke-opacity:1"
           id="path1160" /><g
           id="g1162"
           transform="translate(282.75,248)"><path
             d="M 0,0 V 105 H 101.5 V 8 c 0,-4.418 -3.582,-8 -8,-8 z"
             style="fill:none;stroke:#000000;stroke-width:15;stroke-linecap:round;stroke-linejoin:round;stroke-miterlimit:10;stroke-dasharray:none;stroke-opacity:1"
             id="path1164" /></g><g
           id="g1166"
           transform="translate(309.75,300)"><path
             d="m 0,0 v 22 c 0,2.209 1.791,4 4,4 h 39.5 c 2.209,0 4,-1.791 4,-4 V 0 c 0,-2.209 -1.791,-4 -4,-4 H 4 C 1.791,-4 0,-2.209 0,0 Z"
             style="fill:none;stroke:#000000;stroke-width:15;stroke-linecap:round;stroke-linejoin:round;stroke-miterlimit:10;stroke-dasharray:none;stroke-opacity:1"
             id="path1168" /></g><path
           d="m 127.75,430.667 h 45.061 V 391.834 H 127.75 Z"
           style="fill:none;stroke:#000000;stroke-width:15;stroke-linecap:round;stroke-linejoin:round;stroke-miterlimit:10;stroke-dasharray:none;stroke-opacity:1"
           id="path1170" /><path
           d="m 127.75,391.833 h 45.061 V 353 H 127.75 Z"
           style="fill:none;stroke:#000000;stroke-width:15;stroke-linecap:round;stroke-linejoin:round;stroke-miterlimit:10;stroke-dasharray:none;stroke-opacity:1"
           id="path1172" /><g
           id="g1174"
           transform="translate(384.25,430.6665)"><path
             d="m 0,0 v 30.833 c 0,4.419 -3.582,8 -8,8 H -45.061 V 0 Z"
             style="fill:none;stroke:#000000;stroke-width:15;stroke-linecap:round;stroke-linejoin:round;stroke-miterlimit:10;stroke-dasharray:none;stroke-opacity:1"
             id="path1176" /></g><path
           d="M 384.25,430.667 H 339.189 V 391.834 H 384.25 Z"
           style="fill:none;stroke:#000000;stroke-width:15;stroke-linecap:round;stroke-linejoin:round;stroke-miterlimit:10;stroke-dasharray:none;stroke-opacity:1"
           id="path1178" /><path
           d="M 384.25,391.833 H 339.189 V 353 h 45.061 z"
           style="fill:none;stroke:#000000;stroke-width:15;stroke-linecap:round;stroke-linejoin:round;stroke-miterlimit:10;stroke-dasharray:none;stroke-opacity:1"
           id="path1180" /><g
           id="g1182"
           transform="translate(127.75,256)"><path
             d="M 0,0 V 97 H 155 V -8 H 8 C 3.582,-8 0,-4.418 0,0 Z"
             style="fill:none;stroke:#000000;stroke-width:15;stroke-linecap:round;stroke-linejoin:round;stroke-miterlimit:10;stroke-dasharray:none;stroke-opacity:1"
             id="path1184" /></g><g
           id="g1186"
           transform="translate(157.7876,326.5)"><path
             d="M 0,0 H 12"
             style="fill:none;stroke:#000000;stroke-width:15;stroke-linecap:round;stroke-linejoin:round;stroke-miterlimit:10;stroke-dasharray:none;stroke-opacity:1"
             id="path1188" /></g><g
           id="g1190"
           transform="translate(199.25,326.5)"><path
             d="M 0,0 H 12"
             style="fill:none;stroke:#000000;stroke-width:15;stroke-linecap:round;stroke-linejoin:round;stroke-miterlimit:10;stroke-dasharray:none;stroke-opacity:1"
             id="path1192" /></g><g
           id="g1194"
           transform="translate(240.7124,326.5)"><path
             d="M 0,0 H 12"
             style="fill:none;stroke:#000000;stroke-width:15;stroke-linecap:round;stroke-linejoin:round;stroke-miterlimit:10;stroke-dasharray:none;stroke-opacity:1"
             id="path1196" /></g><g
           id="g1198"
           transform="translate(157.7876,300.5)"><path
             d="M 0,0 H 12"
             style="fill:none;stroke:#000000;stroke-width:15;stroke-linecap:round;stroke-linejoin:round;stroke-miterlimit:10;stroke-dasharray:none;stroke-opacity:1"
             id="path1200" /></g><g
           id="g1202"
           transform="translate(199.25,300.5)"><path
             d="M 0,0 H 12"
             style="fill:none;stroke:#000000;stroke-width:15;stroke-linecap:round;stroke-linejoin:round;stroke-miterlimit:10;stroke-dasharray:none;stroke-opacity:1"
             id="path1204" /></g><g
           id="g1206"
           transform="translate(240.7124,300.5)"><path
             d="M 0,0 H 12"
             style="fill:none;stroke:#000000;stroke-width:15;stroke-linecap:round;stroke-linejoin:round;stroke-miterlimit:10;stroke-dasharray:none;stroke-opacity:1"
             id="path1208" /></g><g
           id="g1210"
           transform="translate(157.7876,274.5)"><path
             d="M 0,0 H 12"
             style="fill:none;stroke:#000000;stroke-width:15;stroke-linecap:round;stroke-linejoin:round;stroke-miterlimit:10;stroke-dasharray:none;stroke-opacity:1"
             id="path1212" /></g><g
           id="g1214"
           transform="translate(199.25,274.5)"><path
             d="M 0,0 H 12"
             style="fill:none;stroke:#000000;stroke-width:15;stroke-linecap:round;stroke-linejoin:round;stroke-miterlimit:10;stroke-dasharray:none;stroke-opacity:1"
             id="path1216" /></g><g
           id="g1218"
           transform="translate(240.7124,274.5)"><path
             d="M 0,0 H 12"
             style="fill:none;stroke:#000000;stroke-width:15;stroke-linecap:round;stroke-linejoin:round;stroke-miterlimit:10;stroke-dasharray:none;stroke-opacity:1"
             id="path1220" /></g><g
           id="g1222"
           transform="translate(196,156.7134)"><path
             d="M 0,0 H 120"
             style="fill:none;stroke:#000000;stroke-width:15;stroke-linecap:round;stroke-linejoin:round;stroke-miterlimit:10;stroke-dasharray:none;stroke-opacity:1"
             id="path1224" /></g></g></g></g></svg>
