<svg width="506" height="512" viewBox="0 0 506 512" fill="none" xmlns="http://www.w3.org/2000/svg">
<path d="M472.057 206.542C471.473 206.595 470.939 206.22 470.787 205.654C458.703 160.483 432.437 119.684 395.988 89.8116C355.986 57.0286 305.423 38.9746 253.613 38.9746V66.4616C341.099 66.4616 418.352 125.032 442.827 207.752C443.044 208.484 442.531 209.235 441.771 209.304L418.785 211.399C417.858 211.483 417.371 212.54 417.907 213.3L462.906 277.059C463.443 277.819 464.601 277.714 464.991 276.869L497.718 206.024C498.108 205.179 497.438 204.229 496.511 204.313L472.057 206.542Z" fill="white"/>
<path d="M127.789 146.665L160.506 75.8148C160.896 74.9698 160.226 74.0198 159.299 74.1038L81.582 81.1838C80.655 81.2678 80.167 82.3238 80.704 83.0848L94.862 103.149C95.2 103.628 95.142 104.278 94.728 104.693C61.651 137.743 39.45 180.89 31.805 227.391C23.415 278.426 33.061 331.242 58.966 376.111L82.771 362.368C39.028 286.602 51.125 190.414 110.524 127.858C111.05 127.304 111.956 127.373 112.396 127.997L125.704 146.856C126.241 147.616 127.399 147.51 127.789 146.665Z" fill="white"/>
<path d="M206.671 453.896L216.349 432.942C216.739 432.097 216.068 431.147 215.142 431.231L137.426 438.322C136.499 438.407 136.012 439.462 136.548 440.223L181.538 503.988C182.074 504.748 183.233 504.643 183.623 503.798L193.919 481.505C194.165 480.972 194.757 480.697 195.324 480.849C214.292 485.94 233.84 488.479 253.408 488.479C280.424 488.479 307.472 483.637 333.044 473.993C381.436 455.742 422.354 420.98 448.259 376.111L424.455 362.368C380.711 438.133 291.361 475.751 207.487 455.587C206.745 455.409 206.351 454.589 206.671 453.896Z" fill="white"/>
<path d="M305.067 113.007H202.159C201.441 113.007 200.859 112.425 200.859 111.707V8.8C200.859 8.082 201.441 7.5 202.159 7.5H305.067C305.785 7.5 306.367 8.082 306.367 8.8V111.708C306.366 112.425 305.784 113.007 305.067 113.007Z" fill="white"/>
<path d="M142.061 407.862H9.47402C8.44202 407.862 7.82202 406.718 8.38502 405.853L74.679 304.028C75.192 303.241 76.345 303.241 76.857 304.028L143.151 405.853C143.713 406.718 143.093 407.862 142.061 407.862Z" fill="white"/>
<path d="M434.58 435.473C403.364 435.473 378.058 410.167 378.058 378.951C378.058 347.735 403.364 322.429 434.58 322.429C465.796 322.429 491.102 347.735 491.102 378.951C491.102 410.168 465.796 435.473 434.58 435.473Z" fill="white"/>
<path d="M305.067 7.5H266.365V62.258C266.365 79.24 252.598 93.007 235.616 93.007H200.859V111.708C200.859 112.426 201.441 113.008 202.159 113.008H305.067C305.785 113.008 306.367 112.426 306.367 111.708V8.8C306.366 8.082 305.784 7.5 305.067 7.5Z" fill="white"/>
<path d="M143.15 405.853L76.857 304.028C76.344 303.241 75.191 303.241 74.679 304.028L62.278 323.075L85.53 358.789C93.676 371.301 84.697 387.861 69.767 387.861H20.098L8.38402 405.853C7.82102 406.718 8.44202 407.862 9.47302 407.862H142.06C143.093 407.862 143.713 406.718 143.15 405.853Z" fill="white"/>
<path d="M437.794 322.52C446.096 332.358 451.1 345.07 451.1 358.951C451.1 390.167 425.794 415.473 394.578 415.473C393.499 415.473 392.428 415.442 391.364 415.383C401.732 427.67 417.245 435.474 434.58 435.474C465.796 435.474 491.102 410.168 491.102 378.952C491.102 348.814 467.515 324.186 437.794 322.52Z" fill="white"/>
<path d="M149.797 410.757C151.338 407.916 151.199 404.47 149.436 401.761L83.143 299.938C81.513 297.432 78.756 295.937 75.768 295.937C72.779 295.937 70.022 297.432 68.393 299.936L67.648 301.081C56.187 243.356 72.059 183.009 110.779 138.713L119.576 151.18C121.364 153.714 124.393 155.123 127.482 154.832C130.571 154.551 133.298 152.627 134.599 149.811L167.317 78.9614C168.617 76.1454 168.314 72.8214 166.525 70.2874C164.735 67.7524 161.707 66.3474 158.621 66.6384L80.908 73.7174C77.82 73.9974 75.092 75.9194 73.79 78.7344C72.488 81.5494 72.789 84.8734 74.578 87.4124L85.713 103.191C53.661 136.765 31.96 180.23 24.406 226.176C17.676 267.113 22.089 309.114 37.161 347.91L2.10001 401.759C0.336011 404.467 0.197011 407.914 1.73701 410.755C3.27701 413.597 6.24101 415.361 9.47301 415.361H142.06C145.292 415.361 148.256 413.597 149.797 410.757ZM39.207 228.608C46.543 183.981 68.144 141.858 100.025 110.003C103.034 107.001 103.441 102.302 100.991 98.8254L93.116 87.6664L149.13 82.5634L125.549 133.626L118.523 123.669C115.365 119.198 108.883 118.696 105.085 122.692C55.843 174.552 37.327 249.259 56.348 318.435L47.424 332.143C36.357 298.789 33.505 263.288 39.207 228.608ZM20.909 400.361C28.68 388.425 68.029 327.986 75.767 316.1L130.626 400.361H20.909Z" fill="black"/>
<path d="M434.579 314.93C428.007 314.93 421.522 315.924 415.307 317.883C411.356 319.129 409.163 323.341 410.409 327.291C411.656 331.241 415.868 333.433 419.817 332.189C424.573 330.689 429.54 329.929 434.58 329.929C461.611 329.929 483.602 351.92 483.602 378.95C483.602 405.981 461.611 427.972 434.58 427.972C407.55 427.972 385.559 405.981 385.559 378.95C385.559 368.269 388.933 358.118 395.315 349.595C397.798 346.28 397.124 341.579 393.807 339.097C390.494 336.615 385.791 337.287 383.309 340.605C374.968 351.743 370.559 365.002 370.559 378.951C370.559 389.214 372.987 398.921 377.297 407.527C332.816 445.624 273.723 461.212 216.76 449.942L223.159 436.088C224.46 433.272 224.156 429.947 222.367 427.413C220.578 424.879 217.547 423.482 214.462 423.764L192.65 425.754C188.525 426.13 185.486 429.779 185.863 433.904C186.239 438.03 189.879 441.066 194.013 440.691L204.972 439.691L199.864 450.752C197.559 455.744 200.397 461.594 205.736 462.88C266.421 477.472 333.99 463.438 385.606 420.142C388.325 423.37 391.356 426.325 394.652 428.963C375.51 445.331 353.936 458.1 330.399 466.977C287.105 483.304 240.253 485.144 197.273 473.609C193.17 472.507 188.897 474.503 187.111 478.362L181.384 490.761L148.958 444.803L158.918 443.894C163.043 443.518 166.082 439.869 165.706 435.744C165.33 431.619 161.676 428.575 157.556 428.957L136.741 430.855C133.653 431.138 130.927 433.064 129.628 435.88C128.329 438.695 128.633 442.018 130.42 444.548L175.411 508.314C177.169 510.806 180.166 512.247 183.317 511.965C186.405 511.684 189.132 509.759 190.433 506.944L198.53 489.413C243.152 500.286 291.219 497.786 335.692 481.013C362.363 470.954 386.671 456.226 408.021 437.202C416.116 440.908 425.111 442.974 434.58 442.974C469.882 442.974 498.602 414.253 498.602 378.952C498.602 343.651 469.881 314.93 434.579 314.93Z" fill="black"/>
<path d="M503.734 200.491C501.945 197.958 498.91 196.564 495.831 196.844L476.598 198.597C463.547 154.051 436.756 113.526 400.743 84.011C375.502 63.324 345.574 47.989 313.867 39.451V8.8C313.867 3.947 309.92 0 305.068 0H202.159C197.307 0 193.359 3.947 193.359 8.8V32.155C193.359 36.298 196.717 39.655 200.859 39.655C205.001 39.655 208.359 36.298 208.359 32.155V15H298.866V105.508H208.359V67.157C208.359 63.014 205.001 59.657 200.859 59.657C196.717 59.657 193.359 63.014 193.359 67.157V111.708C193.359 116.561 197.307 120.508 202.159 120.508H305.067C309.919 120.508 313.866 116.561 313.866 111.708V83.886C369.618 102.77 414.343 147.149 433.297 202.544L418.109 203.929C415.019 204.209 412.292 206.132 410.991 208.949C409.689 211.765 409.991 215.089 411.78 217.624L456.783 281.389C458.582 283.936 461.623 285.319 464.691 285.035C467.779 284.752 470.503 282.827 471.8 280.015L504.529 209.165C505.828 206.348 505.523 203.024 503.734 200.491ZM462.752 263.832L430.318 217.878L442.453 216.772C447.936 216.271 451.576 210.878 450.018 205.624C440.198 172.435 421.78 141.985 396.754 117.566C373.386 94.765 344.829 77.746 313.865 68.115V55.024C342.081 63.192 368.663 77.115 391.233 95.612C426.212 124.279 451.891 164.047 463.54 207.59C464.637 211.692 468.492 214.397 472.736 214.011L486.339 212.771L462.752 263.832Z" fill="black"/>
<path d="M309.536 295.2C308.44 291.487 307.11 288.256 305.548 285.513C303.986 282.766 301.75 280.087 298.835 277.467C295.923 274.848 293.303 272.738 290.98 271.135C288.659 269.53 285.47 267.736 281.416 265.75C277.365 263.764 274.155 262.287 271.792 261.315C269.426 260.344 266.004 259.014 261.528 257.325C257.559 255.806 254.604 254.644 252.66 253.843C250.718 253.04 248.164 251.901 244.997 250.422C241.831 248.945 239.466 247.635 237.903 246.496C236.341 245.356 234.674 243.963 232.9 242.317C231.126 240.67 229.88 238.918 229.162 237.06C228.446 235.202 228.086 233.174 228.086 230.979C228.086 225.237 230.619 220.549 235.686 216.918C240.753 213.288 247.299 211.472 255.322 211.472C258.867 211.472 262.482 211.957 266.153 212.929C269.824 213.901 272.97 214.996 275.589 216.222C278.209 217.447 280.678 218.799 283.001 220.276C285.324 221.754 286.97 222.872 287.942 223.632C288.914 224.393 289.529 224.899 289.78 225.153C290.879 225.997 292.016 226.292 293.199 226.04C294.465 225.955 295.437 225.279 296.114 224.013L306.377 205.518C307.39 203.83 307.18 202.225 305.744 200.704C305.236 200.198 304.605 199.607 303.84 198.931C303.082 198.255 301.435 197.031 298.899 195.256C296.366 193.483 293.685 191.9 290.857 190.506C288.027 189.114 284.352 187.698 279.834 186.263C275.318 184.826 270.651 183.856 265.836 183.35V161.054C265.836 159.872 265.456 158.9 264.698 158.14C263.939 157.381 262.967 157 261.783 157H244.68C243.583 157 242.633 157.401 241.83 158.203C241.028 159.006 240.627 159.955 240.627 161.054V183.856C227.368 186.388 216.6 192.047 208.324 200.829C200.049 209.613 195.909 219.83 195.909 231.485C195.909 234.947 196.27 238.241 196.988 241.364C197.705 244.49 198.592 247.298 199.648 249.789C200.703 252.282 202.203 254.73 204.145 257.137C206.087 259.544 207.924 261.613 209.655 263.344C211.387 265.074 213.646 266.869 216.432 268.726C219.22 270.585 221.606 272.086 223.591 273.225C225.576 274.361 228.215 275.674 231.507 277.149C234.801 278.627 237.399 279.745 239.299 280.507C241.2 281.266 243.796 282.323 247.091 283.671C251.651 285.445 255.029 286.818 257.225 287.789C259.422 288.761 262.208 290.112 265.588 291.843C268.965 293.573 271.434 295.157 272.998 296.593C274.56 298.029 275.974 299.803 277.242 301.913C278.509 304.024 279.144 306.262 279.144 308.628C279.144 315.3 276.547 320.45 271.352 324.079C266.159 327.711 260.14 329.527 253.3 329.527C250.179 329.527 247.051 329.191 243.928 328.516C232.949 326.317 222.689 321.039 213.146 312.679L212.892 312.425C212.132 311.499 211.118 311.118 209.852 311.288C208.501 311.457 207.529 311.964 206.939 312.81L193.891 329.91C192.623 331.599 192.709 333.33 194.144 335.103C194.567 335.61 195.306 336.372 196.361 337.384C197.419 338.399 199.383 339.98 202.252 342.138C205.123 344.292 208.248 346.317 211.627 348.219C215.005 350.119 219.29 351.997 224.485 353.855C229.68 355.711 235.062 357.019 240.636 357.779V379.947C240.636 381.047 241.038 381.996 241.84 382.799C242.642 383.602 243.592 384.002 244.69 384.002H261.792C262.976 384.002 263.948 383.622 264.707 382.863C265.467 382.104 265.845 381.132 265.845 379.948V357.779C279.275 355.584 290.19 349.82 298.592 340.488C306.995 331.156 311.197 320.029 311.197 307.109C311.193 302.887 310.645 298.918 309.536 295.2Z" fill="black"/>
</svg>
