<svg xmlns="http://www.w3.org/2000/svg" version="1.1" xmlns:xlink="http://www.w3.org/1999/xlink" xmlns:svgjs="http://svgjs.com/svgjs" width="512" height="512" x="0" y="0" viewBox="0 0 455 455" style="enable-background:new 0 0 512 512" xml:space="preserve"><g><path d="M272.869 249.896a7.5 7.5 0 0 0-7.5 7.5v111.918H76.157V180.095h84.338c4.143 0 7.5-3.358 7.5-7.5s-3.357-7.5-7.5-7.5H76.157v-31.768c0-13.188 10.729-23.917 23.917-23.917h29.42c4.143 0 7.5-3.358 7.5-7.5s-3.357-7.5-7.5-7.5h-29.42c-21.459 0-38.917 17.458-38.917 38.917v282.755c0 21.459 17.458 38.917 38.917 38.917h141.378c21.459 0 38.917-17.458 38.917-38.917V257.396a7.5 7.5 0 0 0-7.5-7.5zM241.452 440H100.074c-13.188 0-23.917-10.729-23.917-23.917v-31.768h189.212v31.768c0 13.188-10.729 23.917-23.917 23.917z" fill="#282d6c" data-original="#000000"></path><path d="M272.869 0c-66.704 0-120.973 43.792-120.973 97.619 0 46.06 39.338 85.365 94.387 95.258.723 13.676-4.319 27.18-13.992 36.945a7.499 7.499 0 0 0 5.328 12.779c29.638 0 55.124-20.982 61.444-49.654 55.253-9.778 94.779-49.156 94.779-95.327C393.843 43.792 339.574 0 272.869 0zm18.541 178.969a7.501 7.501 0 0 0-6.459 7.917c-2.782 17.498-14.8 31.667-30.57 37.646a64.183 64.183 0 0 0 6.387-37.691 7.502 7.502 0 0 0-6.46-7.874c-50.649-7-87.411-41.212-87.411-81.347C166.896 52.063 214.436 15 272.869 15s105.974 37.063 105.974 82.619c0 40.143-36.771 74.356-87.433 81.35z" fill="#282d6c" data-original="#000000"></path><path d="M232.869 89.619c-4.411 0-8 3.589-8 8s3.589 8 8 8 8-3.589 8-8-3.589-8-8-8zM312.869 89.619c-4.411 0-8 3.589-8 8s3.589 8 8 8 8-3.589 8-8-3.589-8-8-8zM272.869 89.619c-4.411 0-8 3.589-8 8s3.589 8 8 8 8-3.589 8-8-3.589-8-8-8z" fill="#282d6c" data-original="#000000"></path></g></svg>