<?xml version="1.0" encoding="UTF-8" standalone="no"?>
<!-- Created with Inkscape (http://www.inkscape.org/) -->

<svg
   version="1.1"
   id="svg2607"
   xml:space="preserve"
   width="682.66669"
   height="682.66669"
   viewBox="0 0 682.66669 682.66669"
   xmlns="http://www.w3.org/2000/svg"
   xmlns:svg="http://www.w3.org/2000/svg"><defs
     id="defs2611"><clipPath
       clipPathUnits="userSpaceOnUse"
       id="clipPath2621"><path
         d="M 0,512 H 512 V 0 H 0 Z"
         id="path2619" /></clipPath></defs><g
     id="g2613"
     transform="matrix(1.3333333,0,0,-1.3333333,0,682.66667)"><g
       id="g2615"><g
         id="g2617"
         clip-path="url(#clipPath2621)"><g
           id="g2623"
           transform="translate(216.9849,427.1348)"><path
             d="m 0,0 h -17.854 v 53.831 c 0,8.856 -7.188,16.034 -16.054,16.034 h -157.131 c -8.235,0 -15.022,-6.193 -15.946,-14.172 v -160.664 c 0.924,-7.981 7.711,-14.194 15.946,-14.194 h 53.897 v -17.81 c 0,-13.608 11.044,-24.639 24.669,-24.639 13.624,0 24.668,11.031 24.668,24.639 v 17.81 h 53.897 c 8.866,0 16.054,7.201 16.054,16.057 v 53.831 H 0 c 13.624,0 24.668,11.031 24.668,24.638 C 24.668,-11.031 13.624,0 0,0 Z"
             style="fill:none;stroke:#000000;stroke-width:20;stroke-linecap:round;stroke-linejoin:round;stroke-miterlimit:10;stroke-dasharray:none;stroke-opacity:1"
             id="path2625" /></g><g
           id="g2627"
           transform="translate(286.2925,204.3867)"><path
             d="m 0,0 c -8.866,0 -16.053,-7.223 -16.053,-16.078 v -0.051 c 0.001,-0.094 0.003,-0.188 0.003,-0.284 v -53.831"
             style="fill:none;stroke:#000000;stroke-width:20;stroke-linecap:round;stroke-linejoin:round;stroke-miterlimit:10;stroke-dasharray:none;stroke-opacity:1"
             id="path2629" /></g><g
           id="g2631"
           transform="translate(288.0962,134.1426)"><path
             d="m 0,0 h -17.854 v 53.831 c 0,8.854 -7.185,16.076 -16.049,16.079 h -0.005 -53.896 V 52.1 c 0,-13.609 -11.045,-24.639 -24.669,-24.639 -13.624,0 -24.669,11.03 -24.669,24.639 v 17.81 h -53.897 -0.004 c -8.233,-0.003 -15.018,-6.234 -15.941,-14.216 v -160.665 c 0.923,-7.978 7.71,-14.172 15.945,-14.172 h 157.131 c 8.866,0 16.054,7.179 16.054,16.035 v 53.831 H 0 c 13.625,0 24.669,11.031 24.669,24.638 C 24.669,-11.031 13.625,0 0,0 Z"
             style="fill:none;stroke:#000000;stroke-width:20;stroke-linecap:round;stroke-linejoin:round;stroke-miterlimit:10;stroke-dasharray:none;stroke-opacity:1"
             id="path2633" /></g><g
           id="g2635"
           transform="translate(477.3311,323.5518)"><path
             d="m 0,0 h -17.854 v 53.831 c 0,8.856 -7.188,16.034 -16.054,16.034 h -157.131 c -8.865,0 -16.053,-7.178 -16.053,-16.034 v -0.05 c 0.002,-0.094 0.003,-0.189 0.003,-0.285 V -0.335 h 17.854 c 13.625,0 24.669,-11.03 24.669,-24.639 0,-13.607 -11.044,-24.638 -24.669,-24.638 h -17.854 v -53.781 c 0.152,-8.724 7.279,-15.772 16.05,-15.772 h 53.897 v -17.81 c 0,-13.608 11.045,-24.639 24.669,-24.639 13.624,0 24.669,11.031 24.669,24.639 v 17.81 h 53.896 c 8.866,0 16.054,7.201 16.054,16.057 v 53.831 H 0 c 13.625,0 24.669,11.031 24.669,24.638 C 24.669,-11.031 13.625,0 0,0 Z"
             style="fill:none;stroke:#000000;stroke-width:20;stroke-linecap:round;stroke-linejoin:round;stroke-miterlimit:10;stroke-dasharray:none;stroke-opacity:1"
             id="path2637" /></g><g
           id="g2639"
           transform="translate(82.1777,400.8262)"><path
             d="M 0,0 20.67,-18.252 54.329,25.504"
             style="fill:none;stroke:#000000;stroke-width:20;stroke-linecap:round;stroke-linejoin:round;stroke-miterlimit:10;stroke-dasharray:none;stroke-opacity:1"
             id="path2641" /></g><g
           id="g2643"
           transform="translate(270.2422,84.8652)"><path
             d="M 0,0 V -53.781 C 0.152,-62.505 7.279,-69.53 16.05,-69.53 h 157.131 c 8.866,0 16.054,7.178 16.054,16.034 v 30.252"
             style="fill:none;stroke:#000000;stroke-width:20;stroke-linecap:round;stroke-linejoin:round;stroke-miterlimit:10;stroke-dasharray:none;stroke-opacity:1"
             id="path2645" /></g><g
           id="g2647"
           transform="translate(459.4771,152.0332)"><path
             d="m 0,0 v 36.275 c 0,8.856 -7.187,16.079 -16.054,16.079 H -69.95"
             style="fill:none;stroke:#000000;stroke-width:20;stroke-linecap:round;stroke-linejoin:round;stroke-miterlimit:10;stroke-dasharray:none;stroke-opacity:1"
             id="path2649" /></g><g
           id="g2651"
           transform="translate(459.4771,106.6436)"><path
             d="M 0,0 V 0"
             style="fill:none;stroke:#000000;stroke-width:20;stroke-linecap:round;stroke-linejoin:round;stroke-miterlimit:10;stroke-dasharray:none;stroke-opacity:1"
             id="path2653" /></g></g></g></g></svg>
