<svg id="Layer_1" enable-background="new 0 0 128 128" height="512" viewBox="0 0 128 128" width="512" xmlns="http://www.w3.org/2000/svg"><path id="Minimize" d="m114.828 18.828-25.172 25.172h14.344c2.209 0 4 1.791 4 4s-1.791 4-4 4h-24c-2.209 0-4-1.791-4-4v-24c0-2.209 1.791-4 4-4s4 1.791 4 4v14.344l25.172-25.172c1.563-1.563 4.094-1.563 5.656 0s1.563 4.094 0 5.656zm-66.828 1.172c-2.209 0-4 1.791-4 4v14.344l-25.172-25.172c-1.563-1.563-4.094-1.563-5.656 0s-1.563 4.094 0 5.656l25.172 25.172h-14.344c-2.209 0-4 1.791-4 4s1.791 4 4 4h24c2.209 0 4-1.791 4-4v-24c0-2.209-1.791-4-4-4zm66.828 89.172-25.172-25.172h14.344c2.209 0 4-1.791 4-4s-1.791-4-4-4h-24c-2.209 0-4 1.791-4 4v24c0 2.209 1.791 4 4 4s4-1.791 4-4v-14.344l25.172 25.172c.781.781 1.805 1.172 2.828 1.172s2.047-.391 2.828-1.172c1.563-1.562 1.563-4.094 0-5.656zm-66.828-33.172h-24c-2.209 0-4 1.791-4 4s1.791 4 4 4h14.344l-25.172 25.172c-1.563 1.563-1.563 4.094 0 5.656.781.781 1.805 1.172 2.828 1.172s2.047-.391 2.828-1.172l25.172-25.172v14.344c0 2.209 1.791 4 4 4s4-1.791 4-4v-24c0-2.209-1.791-4-4-4z"/></svg>