<svg xmlns="http://www.w3.org/2000/svg" version="1.1" xmlns:xlink="http://www.w3.org/1999/xlink" xmlns:svgjs="http://svgjs.com/svgjs" width="512" height="512" x="0" y="0" viewBox="0 0 64 64" style="enable-background:new 0 0 512 512" xml:space="preserve" class=""><g><path fill="#ffffff" d="M15 4h36v56H15z" data-original="#717b7b" class=""></path><path fill="#4a78af" d="M27 48h12v12H27z" data-original="#ffe97f" class=""></path><path fill="#395d87" d="M27 48h6v12h-6zM27 8h4v6h-4z" data-original="#ffdc3d" class=""></path><path fill="#4a78af" d="M35 8h4v6h-4z" data-original="#ffe97f" class=""></path><path fill="#395d87" d="M43 8h4v6h-4z" data-original="#ffdc3d" class=""></path><path fill="#4a78af" d="M27 18h4v6h-4z" data-original="#ffe97f" class=""></path><path fill="#395d87" d="M35 18h4v6h-4z" data-original="#ffdc3d" class=""></path><path fill="#4a78af" d="M43 18h4v6h-4zM19 8h4v6h-4z" data-original="#ffe97f" class=""></path><path fill="#395d87" d="M19 18h4v6h-4z" data-original="#ffdc3d" class=""></path><path fill="#4a78af" d="M19 28h4v6h-4zM35 28h4v6h-4z" data-original="#ffe97f" class=""></path><path fill="#395d87" d="M43 28h4v6h-4z" data-original="#ffdc3d" class=""></path><path fill="#4a78af" d="M27 38h4v6h-4zM43 38h4v6h-4z" data-original="#ffe97f" class=""></path><path fill="#ffffff" d="M14.911 46.906a4.571 4.571 0 1 0-7.822 0A4.559 4.559 0 1 0 11 54.423a4.557 4.557 0 1 0 3.911-7.517z" data-original="#7dc834" class=""></path><path fill="#eceff0" d="M51 44h8v16h-8z" data-original="#eceff0"></path><path fill="#ffffff" d="M51 40h10v4H51z" data-original="#a76f2a" class=""></path><g fill="#ffdc3d"><path d="M27 28h4v6h-4zM19 38h4v6h-4zM35 38h4v6h-4z" fill="#395d87" data-original="#ffdc3d" class=""></path></g><path fill="#ffffff" d="M5.286 51.429a4.555 4.555 0 0 1 4.089-4.523 4.524 4.524 0 0 1 2.768-6.744A4.494 4.494 0 0 0 11 40a4.547 4.547 0 0 0-3.911 6.906A4.559 4.559 0 0 0 7.571 56a4.437 4.437 0 0 0 1.143-.162 4.56 4.56 0 0 1-3.428-4.409z" data-original="#96d24e" class=""></path><path d="M27 15h4a1 1 0 0 0 1-1V8a1 1 0 0 0-1-1h-4a1 1 0 0 0-1 1v6a1 1 0 0 0 1 1zm1-6h2v4h-2zM35 15h4a1 1 0 0 0 1-1V8a1 1 0 0 0-1-1h-4a1 1 0 0 0-1 1v6a1 1 0 0 0 1 1zm1-6h2v4h-2zM43 15h4a1 1 0 0 0 1-1V8a1 1 0 0 0-1-1h-4a1 1 0 0 0-1 1v6a1 1 0 0 0 1 1zm1-6h2v4h-2zM27 25h4a1 1 0 0 0 1-1v-6a1 1 0 0 0-1-1h-4a1 1 0 0 0-1 1v6a1 1 0 0 0 1 1zm1-6h2v4h-2zM35 25h4a1 1 0 0 0 1-1v-6a1 1 0 0 0-1-1h-4a1 1 0 0 0-1 1v6a1 1 0 0 0 1 1zm1-6h2v4h-2zM43 25h4a1 1 0 0 0 1-1v-6a1 1 0 0 0-1-1h-4a1 1 0 0 0-1 1v6a1 1 0 0 0 1 1zm1-6h2v4h-2zM19 15h4a1 1 0 0 0 1-1V8a1 1 0 0 0-1-1h-4a1 1 0 0 0-1 1v6a1 1 0 0 0 1 1zm1-6h2v4h-2zM19 25h4a1 1 0 0 0 1-1v-6a1 1 0 0 0-1-1h-4a1 1 0 0 0-1 1v6a1 1 0 0 0 1 1zm1-6h2v4h-2zM27 35h4a1 1 0 0 0 1-1v-6a1 1 0 0 0-1-1h-4a1 1 0 0 0-1 1v6a1 1 0 0 0 1 1zm1-6h2v4h-2zM19 35h4a1 1 0 0 0 1-1v-6a1 1 0 0 0-1-1h-4a1 1 0 0 0-1 1v6a1 1 0 0 0 1 1zm1-6h2v4h-2zM35 35h4a1 1 0 0 0 1-1v-6a1 1 0 0 0-1-1h-4a1 1 0 0 0-1 1v6a1 1 0 0 0 1 1zm1-6h2v4h-2zM43 35h4a1 1 0 0 0 1-1v-6a1 1 0 0 0-1-1h-4a1 1 0 0 0-1 1v6a1 1 0 0 0 1 1zm1-6h2v4h-2zM27 45h4a1 1 0 0 0 1-1v-6a1 1 0 0 0-1-1h-4a1 1 0 0 0-1 1v6a1 1 0 0 0 1 1zm1-6h2v4h-2zM19 45h4a1 1 0 0 0 1-1v-6a1 1 0 0 0-1-1h-4a1 1 0 0 0-1 1v6a1 1 0 0 0 1 1zm1-6h2v4h-2zM35 45h4a1 1 0 0 0 1-1v-6a1 1 0 0 0-1-1h-4a1 1 0 0 0-1 1v6a1 1 0 0 0 1 1zm1-6h2v4h-2zM43 45h4a1 1 0 0 0 1-1v-6a1 1 0 0 0-1-1h-4a1 1 0 0 0-1 1v6a1 1 0 0 0 1 1zm1-6h2v4h-2z" fill="#000000" data-original="#000000" class=""></path><path d="M61 39h-9V4a1 1 0 0 0-1-1H15a1 1 0 0 0-1 1v35.884a5.562 5.562 0 0 0-8.571 4.687 5.448 5.448 0 0 0 .255 1.637A5.559 5.559 0 0 0 7.571 57 5.466 5.466 0 0 0 10 56.414V60a1 1 0 0 0 2 0v-3.586a5.47 5.47 0 0 0 2 .549V60a1 1 0 0 0 1 1h44a1 1 0 0 0 1-1V45h1a1 1 0 0 0 1-1v-4a1 1 0 0 0-1-1zM11 51a1 1 0 0 0-1 1v2a3.487 3.487 0 0 1-2.429 1 3.559 3.559 0 0 1-.371-7.1 1 1 0 0 0 .752-1.507 3.511 3.511 0 0 1-.518-1.822 3.571 3.571 0 0 1 7.142 0 3.511 3.511 0 0 1-.518 1.822 1 1 0 0 0 .752 1.507 3.559 3.559 0 0 1-.376 7.1A3.487 3.487 0 0 1 12 54v-2a1 1 0 0 0-1-1zm27 8H28V49h10zm12 0H40V48a1 1 0 0 0-1-1H27a1 1 0 0 0-1 1v11H16v-2.229a5.555 5.555 0 0 0 .316-10.563 5.448 5.448 0 0 0 .255-1.637A5.527 5.527 0 0 0 16 42.13V5h34zm8 0h-6V45h6zm2-16h-8v-2h8z" fill="#000000" data-original="#000000" class=""></path></g></svg>