<svg xmlns="http://www.w3.org/2000/svg" version="1.1" xmlns:xlink="http://www.w3.org/1999/xlink" xmlns:svgjs="http://svgjs.com/svgjs" width="512" height="512" x="0" y="0" viewBox="0 0 496 496" style="enable-background:new 0 0 512 512" xml:space="preserve" class=""><g><circle cx="248" cy="104" r="96" style="" fill="#4a78af" data-original="#f0bc5e" class=""></circle><path d="M48 286.864V408h16V286.888c6.272-1.632 11.84-5.024 16-9.744C85.864 283.8 94.456 288 104 288s18.136-4.2 24-10.856C133.864 283.8 142.456 288 152 288s18.136-4.2 24-10.856C181.864 283.8 190.456 288 200 288s18.136-4.2 24-10.856C229.864 283.8 238.456 288 248 288s18.136-4.2 24-10.856C277.864 283.8 286.456 288 296 288s18.136-4.2 24-10.856C325.864 283.8 334.456 288 344 288s18.136-4.2 24-10.856C373.864 283.8 382.456 288 392 288s18.136-4.2 24-10.856c4.16 4.72 9.728 8.12 16 9.744V408h16V286.864c13.76-3.576 24-15.992 24-30.864v-25.296L421.768 80h-72.672C338.216 34.208 297.072 0 248 0s-90.216 34.208-101.096 80H74.232L24 230.704V256c0 14.872 10.24 27.288 24 30.864zM56 272c-8.824 0-16-7.176-16-16v-16h32v16c0 8.824-7.176 16-16 16zm152-160c-8.824 0-16-7.176-16-16 0-11.96 10.016-32 16-32s16 20.04 16 32c0 8.824-7.176 16-16 16zm9.576 91.44L216.432 224h-31.496l3.848-34.616c8.728 6.072 18.4 10.864 28.792 14.056zm89.64-14.056L311.064 224h-31.496l-1.144-20.56c10.392-3.192 20.064-7.984 28.792-14.056zM374.776 224 353.44 96h24.144l28.448 128h-31.256zm-16.216 0h-31.4l-5.216-46.976c9.888-10.008 17.688-22.04 22.896-35.368L358.56 224zm-95.968-17.144.952 17.144h-31.088l.952-17.144c4.784.672 9.624 1.144 14.592 1.144s9.808-.472 14.592-1.144zM168.84 224h-31.4l13.72-82.336c5.2 13.328 13.008 25.352 22.896 35.368L168.84 224zm-47.616 0H89.968l28.448-128h24.144l-21.336 128zM104 272c-8.824 0-16-7.176-16-16v-16h32v16c0 8.824-7.176 16-16 16zm48 0c-8.824 0-16-7.176-16-16v-16h32v16c0 8.824-7.176 16-16 16zm48 0c-8.824 0-16-7.176-16-16v-16h32v16c0 8.824-7.176 16-16 16zm48 0c-8.824 0-16-7.176-16-16v-16h32v16c0 8.824-7.176 16-16 16zm48 0c-8.824 0-16-7.176-16-16v-16h32v16c0 8.824-7.176 16-16 16zm48 0c-8.824 0-16-7.176-16-16v-16h32v16c0 8.824-7.176 16-16 16zm48 0c-8.824 0-16-7.176-16-16v-16h32v16c0 8.824-7.176 16-16 16zm48 0c-8.824 0-16-7.176-16-16v-16h32v16c0 8.824-7.176 16-16 16zm12.904-48h-30.488L393.968 96h16.264l42.672 128zM248 16c48.52 0 88 39.48 88 88 0 30.816-15.952 57.936-40 73.664v-50.8c13.76-3.576 24-15.992 24-30.864V56h-16v40c0 5.896-3.24 11-8 13.776V56h-16v53.776c-4.76-2.776-8-7.88-8-13.776V56h-16v40c0 14.872 10.24 27.288 24 30.864v59.024c-9.936 3.896-20.704 6.112-32 6.112s-22.064-2.216-32-6.112v-59.024c13.76-3.576 24-15.992 24-30.864 0-16.488-12.464-48-32-48s-32 31.512-32 48c0 14.872 10.24 27.288 24 30.864v50.8c-24.048-15.728-40-42.848-40-73.664 0-48.52 39.48-88 88-88zM85.768 96h16.264L73.584 224H43.096L85.768 96z" fill="#000000" data-original="#000000" class=""></path><path d="M208 392h16v16h-16zM88 376h64v-64H88v64zm16-48h32v32h-32v-32zM344 376h64v-64h-64v64zm16-48h32v32h-32v-32z" fill="#000000" data-original="#000000" class=""></path><path d="M480 464v16H352v-16h-16v16h-16V304H176v176h-16v-16h-16v16H16v-16H0v32h496v-32h-16zM192 320h112v160H192V320z" fill="#000000" data-original="#000000" class=""></path><path d="M496 464H336v-16c0-16.384 12.376-29.928 28.264-31.784 6.064-10.688 17.696-17.36 30.552-16.08 11.656-10.44 30.704-10.44 42.36 0 12.872-1.24 24.496 5.4 30.552 16.08C483.624 418.072 496 431.616 496 448v16zM160 464H0v-16c0-16.384 12.376-29.928 28.264-31.784 6.064-10.688 17.696-17.36 30.552-16.08 11.656-10.44 30.704-10.44 42.36 0 12.872-1.24 24.496 5.4 30.552 16.08C147.624 418.072 160 431.616 160 448v16z" style="" fill="#4a78af" data-original="#f0bc5e" class=""></path></g></svg>