<svg xmlns="http://www.w3.org/2000/svg" version="1.1" xmlns:xlink="http://www.w3.org/1999/xlink" xmlns:svgjs="http://svgjs.com/svgjs" width="512" height="512" x="0" y="0" viewBox="0 0 512 512" style="enable-background:new 0 0 512 512" xml:space="preserve" class=""><g><path fill="#4a78af" d="M256 35.557h56.113v40.081H256z" data-original="#ff8086" class=""></path><path fill="#395d87" d="M256 35.557h24.048v40.081H256z" data-original="#e5646e" class=""></path><path fill="#4a78af" d="M472.435 179.847H39.565L7.5 251.992h497z" data-original="#ff8086" class=""></path><path fill="#395d87" d="M18.188 227.944 7.5 251.992h497l-10.688-24.048z" data-original="#e5646e" class=""></path><path fill="#5fcfa9" d="M488.468 476.444H23.532V251.992h104.21L256 123.734l128.259 128.258h104.209z" data-original="#ffc269" class=""></path><path fill="#c38c66" d="M207.903 372.234h96.194v88.177h-96.194z" data-original="#c38c66" class=""></path><circle cx="256" cy="268.024" r="48.097" fill="#fff0af" data-original="#fff0af"></circle><circle cx="256" cy="268.024" r="24.048" fill="#ffffff" data-original="#ffffff"></circle><path fill="#c8c5c9" d="M191.871 444.379h128.258v32.065H191.871z" data-original="#c8c5c9" class=""></path><path fill="#4ca587" d="M384.26 251.992 256 123.734 127.741 251.992H23.532v224.452H47.58V292.073c0-8.854 7.178-16.032 16.032-16.032h61.998a32.066 32.066 0 0 0 22.797-9.516L256 157.744l107.592 108.78a32.062 32.062 0 0 0 22.797 9.516h102.079v-24.048z" data-original="#ffa95f" class=""></path><path fill="#edf4ff" d="M344.177 292.073h112.226v48.097H344.177z" data-original="#edf4ff" class=""></path><path fill="#dbeaff" d="M368.226 300.089v-8.016h-24.048v48.097h112.226v-24.048h-72.145c-8.855-.001-16.033-7.179-16.033-16.033z" data-original="#dbeaff" class=""></path><path fill="#edf4ff" d="M344.177 372.234h112.226v48.097H344.177z" data-original="#edf4ff" class=""></path><path fill="#dbeaff" d="M368.226 380.25v-8.016h-24.048v48.097h112.226v-24.048h-72.145c-8.855-.001-16.033-7.179-16.033-16.033z" data-original="#dbeaff" class=""></path><path fill="#edf4ff" d="M55.597 292.073h112.226v48.097H55.597z" data-original="#edf4ff" class=""></path><path fill="#dbeaff" d="M79.645 300.089v-8.016H55.597v48.097h112.226v-24.048H95.677c-8.854-.001-16.032-7.179-16.032-16.033z" data-original="#dbeaff" class=""></path><path fill="#edf4ff" d="M55.597 372.234h112.226v34.099H55.597z" data-original="#edf4ff" class=""></path><path fill="#dbeaff" d="M79.645 380.25v-8.016H55.597v48.097h112.226v-24.048H95.677c-8.854-.001-16.032-7.179-16.032-16.033z" data-original="#dbeaff" class=""></path><path d="M504.5 468.943h-8.532V259.492h8.532a7.5 7.5 0 0 0 6.854-10.546l-32.064-72.145a7.502 7.502 0 0 0-6.854-4.454H315.219l-51.719-51.72v-37.49h48.613a7.5 7.5 0 0 0 7.5-7.5v-40.08a7.5 7.5 0 0 0-7.5-7.5H256a7.5 7.5 0 0 0-7.5 7.5v85.071l-51.72 51.719H39.564a7.502 7.502 0 0 0-6.854 4.454L.646 248.946A7.502 7.502 0 0 0 7.5 259.492h8.532v209.452H7.5a7.5 7.5 0 0 0 0 15h497a7.5 7.5 0 0 0 0-15.001zM304.613 68.137H263.5v-25.08h41.113zM44.438 187.347H181.78l-57.145 57.145H19.041zm-13.406 72.145h96.709c1.989 0 3.897-.79 5.303-2.197L256 134.34l122.955 122.955a7.497 7.497 0 0 0 5.303 2.197h56.113a7.5 7.5 0 0 0 0-15h-53.006l-57.145-57.145h137.342l25.398 57.145h-20.524a7.5 7.5 0 0 0 0 15h8.532v209.452H327.629V444.38a7.5 7.5 0 0 0-7.5-7.5h-8.532v-64.645a7.5 7.5 0 0 0-7.5-7.5h-96.193a7.5 7.5 0 0 0-7.5 7.5v64.645h-8.532a7.5 7.5 0 0 0-7.5 7.5v24.564H31.032zm265.565 120.242v57.145H263.5v-57.145zM248.5 436.879h-33.097v-57.145H248.5zm64.129 15v17.064H199.371v-17.064z" fill="#000000" data-original="#000000" class=""></path><path d="M256 323.621c30.656 0 55.597-24.94 55.597-55.597s-24.94-55.597-55.597-55.597-55.597 24.941-55.597 55.597 24.941 55.597 55.597 55.597zm0-96.194c22.385 0 40.597 18.212 40.597 40.597S278.385 308.621 256 308.621s-40.597-18.211-40.597-40.597 18.212-40.597 40.597-40.597z" fill="#000000" data-original="#000000" class=""></path><path d="M256 291.557a7.5 7.5 0 0 0 7.5-7.5V272.66l11.886-5.943a7.499 7.499 0 0 0 3.354-10.062 7.498 7.498 0 0 0-10.062-3.354l-16.032 8.016a7.499 7.499 0 0 0-4.146 6.708v16.032a7.5 7.5 0 0 0 7.5 7.5zM167.823 364.734H55.597a7.5 7.5 0 0 0-7.5 7.5v48.097a7.5 7.5 0 0 0 7.5 7.5h16.035a7.5 7.5 0 0 0 0-15h-8.535v-33.097h41.113v33.097h-.515a7.5 7.5 0 0 0 0 15h64.128a7.5 7.5 0 0 0 7.5-7.5v-48.097a7.5 7.5 0 0 0-7.5-7.5zm-7.5 48.097H119.21v-33.097h41.113zM167.823 284.573H55.597a7.5 7.5 0 0 0-7.5 7.5v48.097a7.5 7.5 0 0 0 7.5 7.5h112.226a7.5 7.5 0 0 0 7.5-7.5v-48.097a7.5 7.5 0 0 0-7.5-7.5zm-104.726 15h41.113v33.097H63.097zm97.226 33.096H119.21v-33.097h41.113zM344.177 427.831h112.226a7.5 7.5 0 0 0 7.5-7.5v-48.097a7.5 7.5 0 0 0-7.5-7.5H344.177a7.5 7.5 0 0 0-7.5 7.5v48.097a7.5 7.5 0 0 0 7.5 7.5zm104.726-15H407.79v-33.097h41.113zm-97.226-33.097h41.113v33.097h-41.113zM344.177 347.669h112.226a7.5 7.5 0 0 0 7.5-7.5v-48.097a7.5 7.5 0 0 0-7.5-7.5H344.177a7.5 7.5 0 0 0-7.5 7.5v48.097a7.5 7.5 0 0 0 7.5 7.5zm104.726-15H407.79v-33.097h41.113zm-97.226-33.096h41.113v33.097h-41.113z" fill="#000000" data-original="#000000" class=""></path></g></svg>