<svg xmlns="http://www.w3.org/2000/svg" version="1.1" xmlns:xlink="http://www.w3.org/1999/xlink" xmlns:svgjs="http://svgjs.com/svgjs" width="512" height="512" x="0" y="0" viewBox="0 0 682.667 682.667" style="enable-background:new 0 0 512 512" xml:space="preserve"><g><defs stroke-width="25" style="stroke-width: 25;"><clipPath id="a" clipPathUnits="userSpaceOnUse" stroke-width="25" style="stroke-width: 25;"><path d="M0 512h512V0H0Z" fill="#ffffff" data-original="#000000" stroke-width="25" style="stroke-width: 25;"></path></clipPath></defs><g clip-path="url(#a)" transform="matrix(1.33333 0 0 -1.33333 0 682.667)" stroke-width="25" style="stroke-width: 25;"><path d="M0 0v-51.823c0-38.49 9.721-76.707 28.111-110.519 18.392-33.812 45.191-62.739 77.503-83.654l37.456-24.245a34.371 34.371 0 0 1 37.362-.001l37.457 24.245c32.31 20.916 59.11 49.843 77.502 83.655 18.39 33.812 28.111 72.029 28.111 110.519V62.036c0 2.619-2.019 4.827-4.633 4.985-33.348 2.021-61.264 24.522-71.295 55.056a5.008 5.008 0 0 1-4.751 3.463H80.679a5.007 5.007 0 0 1-4.751-3.463C65.896 91.543 37.981 69.042 4.633 67.021 2.019 66.863 0 64.655 0 62.036V35.52" style="stroke-width: 25; stroke-linecap: round; stroke-linejoin: round; stroke-miterlimit: 10; stroke-dasharray: none; stroke-opacity: 1;" transform="translate(94.249 333.96)" fill="none" stroke="#ffffff" stroke-width="25" stroke-linecap="round" stroke-linejoin="round" stroke-miterlimit="10" stroke-dasharray="none" stroke-opacity="" data-original="#000000"></path><path d="M0 0v28.08c0 10.49-8.504 18.994-18.993 18.994h-25.743c-19.424 0-35.171 15.746-35.171 35.171v6.495c0 9.389-7.612 17-17 17h-219.688c-9.388 0-17-7.611-17-17v-6.495c0-19.425-15.747-35.171-35.171-35.171h-25.743c-10.489 0-18.993-8.504-18.993-18.994v-144.703c0-93.708 47.495-181.029 126.161-231.949l53.654-34.731a49.572 49.572 0 0 1 53.872 0l53.654 34.73C-47.495-297.652 0-210.331 0-116.623v81.343" style="stroke-width: 25; stroke-linecap: round; stroke-linejoin: round; stroke-miterlimit: 10; stroke-dasharray: none; stroke-opacity: 1;" transform="translate(462.751 398.76)" fill="none" stroke="#ffffff" stroke-width="25" stroke-linecap="round" stroke-linejoin="round" stroke-miterlimit="10" stroke-dasharray="none" stroke-opacity="" data-original="#000000"></path><path d="m0 0 25.004-20.942a8.448 8.448 0 0 1 11.556.664l53.321 56.246" style="stroke-width: 25; stroke-linecap: round; stroke-linejoin: round; stroke-miterlimit: 10; stroke-dasharray: none; stroke-opacity: 1;" transform="translate(211.06 272.736)" fill="none" stroke="#ffffff" stroke-width="25" stroke-linecap="round" stroke-linejoin="round" stroke-miterlimit="10" stroke-dasharray="none" stroke-opacity="" data-original="#000000"></path><path d="M0 0c0-56.453-45.764-102.217-102.217-102.217-56.453 0-102.217 45.764-102.217 102.217 0 56.453 45.764 102.217 102.217 102.217C-45.764 102.217 0 56.453 0 0Z" style="stroke-width: 25; stroke-linecap: round; stroke-linejoin: round; stroke-miterlimit: 10; stroke-dasharray: none; stroke-opacity: 1;" transform="translate(358.217 279.263)" fill="none" stroke="#ffffff" stroke-width="25" stroke-linecap="round" stroke-linejoin="round" stroke-miterlimit="10" stroke-dasharray="none" stroke-opacity="" data-original="#000000"></path></g></g></svg>