<svg xmlns="http://www.w3.org/2000/svg" version="1.1" xmlns:xlink="http://www.w3.org/1999/xlink" xmlns:svgjs="http://svgjs.com/svgjs" width="512" height="512" x="0" y="0" viewBox="0 0 512 512" style="enable-background:new 0 0 512 512" xml:space="preserve" class=""><g transform="matrix(0.8000000000000006,0,0,0.8000000000000006,51.21218490600569,46.66054534912095)"><circle cx="257.752" cy="136.94" r="128.94" fill="#4a78af" transform="rotate(-45 257.747 136.997)" data-original="#ffba57" class=""></circle><path fill="#395d87" d="M257.752 247.879c-68.185 0-124.001-52.928-128.622-119.94a130.819 130.819 0 0 0-.318 9c0 71.212 57.728 128.94 128.94 128.94s128.94-57.728 128.94-128.94c0-3.026-.112-6.026-.318-9-4.621 67.012-60.436 119.94-128.622 119.94z" data-original="#ffac3e" class=""></path><g fill="#ff4755"><path d="m175.967 407.115-50.947-54.162-50.946 54.162h22.225V504h57.443v-96.885zM308.699 355.517l-50.947-54.163-50.946 54.163h22.225V504h57.443V355.517zM441.431 307.775l-50.947-54.162-50.946 54.162h22.225V504h57.443V307.775z" fill="#5fcfa9" data-original="#ff4755" class=""></path></g><path fill="#4ca587" d="M96.299 486h57.443v18H96.299zM229.031 486h57.443v18h-57.443zM361.763 486h57.443v18h-57.443z" data-original="#fc2b3a" class=""></path><circle cx="257.752" cy="136.94" r="91.174" fill="#4a78af" transform="rotate(-45 257.747 136.997)" data-original="#ffe27a" class=""></circle><path fill="#395d87" d="M257.752 210.113c-47.317 0-86.211-36.045-90.732-82.174a92.306 92.306 0 0 0-.442 9c0 50.354 40.82 91.174 91.174 91.174s91.174-40.82 91.174-91.174c0-3.037-.152-6.039-.442-9-4.52 46.13-43.415 82.174-90.732 82.174z" data-original="#f9cf58" class=""></path><path d="M257.756 273.413c75.381 0 136.707-61.326 136.707-136.707C394.463 61.326 333.137 0 257.756 0S121.049 61.326 121.049 136.706c0 75.381 61.327 136.707 136.707 136.707zm0-258.384c67.093 0 121.677 54.584 121.677 121.677s-54.584 121.678-121.677 121.678S136.078 203.8 136.078 136.706c0-67.092 54.585-121.677 121.678-121.677z" fill="#ffffff" data-original="#000000" class=""></path><path d="M257.755 235.574c54.516 0 98.868-44.352 98.868-98.867S312.271 37.84 257.755 37.84c-24.609 0-48.193 9.099-66.407 25.621a7.515 7.515 0 0 0 10.098 11.132c15.443-14.009 35.441-21.724 56.309-21.724 46.229 0 83.839 37.61 83.839 83.838s-37.61 83.838-83.839 83.838c-46.228 0-83.837-37.609-83.837-83.838 0-13.96 3.497-27.777 10.114-39.957a7.514 7.514 0 1 0-13.206-7.174c-7.809 14.375-11.937 30.673-11.937 47.131 0 54.515 44.351 98.867 98.866 98.867z" fill="#ffffff" data-original="#000000" class=""></path><path d="M254.898 172.111c-11.802-.719-15.044-7.822-15.645-9.491-.86-3.212-3.782-5.58-7.265-5.58a7.53 7.53 0 0 0-7.529 7.53c0 .604.079 1.188.213 1.751l-.003.001.04.144c.092.355.201.703.342 1.036 1.39 3.834 6.959 15.729 23.371 18.907v9.999a7.516 7.516 0 0 0 15.03 0v-9.773c7.193-1.252 12.025-4.396 15.046-7.239 5.621-5.29 8.977-13.286 8.977-21.39 0-7.615-2.986-25.655-30.649-28.707-5.48-.605-9.389-2.349-11.62-5.183-1.969-2.503-2.182-5.268-2.182-6.341 0-1.322.363-12.913 12.913-12.913 8.234 0 11.559 5.237 12.184 6.376a7.527 7.527 0 0 0 14.511-2.809c0-1.236-.304-2.4-.832-3.429l.004-.002c-2.118-4.604-8.099-11.807-18.353-14.287V80.624a7.515 7.515 0 1 0-15.03 0v10.055c-14.832 3.522-20.428 17.361-20.428 27.095 0 10.823 7.119 24.248 27.183 26.462 17.268 1.906 17.268 10.835 17.268 13.769 0 3.117-1.115 7.498-4.247 10.445-2.961 2.787-7.433 4.019-13.299 3.661zM130.238 347.994a7.514 7.514 0 0 0-10.948 0l-51.047 54.268a7.515 7.515 0 0 0 5.474 12.663h14.754v27.289a7.516 7.516 0 0 0 15.03 0V407.41a7.516 7.516 0 0 0-7.515-7.515h-4.884l33.661-35.786 33.661 35.786h-4.884a7.516 7.516 0 0 0-7.515 7.515v89.56h-42.526v-24.697a7.516 7.516 0 0 0-15.03 0v32.212A7.516 7.516 0 0 0 95.984 512h57.555a7.516 7.516 0 0 0 7.515-7.515v-89.56h14.754a7.515 7.515 0 0 0 5.474-12.663zM263.229 296.294a7.514 7.514 0 0 0-10.948 0l-51.046 54.269a7.513 7.513 0 0 0 5.474 12.663h14.754v141.259a7.516 7.516 0 0 0 7.515 7.515h57.555a7.515 7.515 0 0 0 7.515-7.515V363.226h14.754a7.514 7.514 0 0 0 5.473-12.663zm23.304 51.903a7.515 7.515 0 0 0-7.515 7.515v141.259h-42.526v-141.26a7.516 7.516 0 0 0-7.515-7.515h-4.884l33.661-35.786 33.661 35.786h-4.882zM396.221 248.46a7.514 7.514 0 0 0-10.948 0l-51.047 54.268a7.515 7.515 0 0 0 5.473 12.663h14.754v45.859a7.515 7.515 0 1 0 15.03 0v-53.373a7.515 7.515 0 0 0-7.515-7.515h-4.883l33.661-35.786 33.66 35.786h-4.883a7.515 7.515 0 0 0-7.515 7.515v189.094h-42.526V391.309a7.515 7.515 0 1 0-15.03 0v113.177a7.515 7.515 0 0 0 7.515 7.515h57.556a7.515 7.515 0 0 0 7.515-7.515V315.391h14.754a7.514 7.514 0 0 0 5.473-12.663zM92.805 139.396a7.516 7.516 0 0 0-7.515-7.515H41.215a7.516 7.516 0 0 0 0 15.03H85.29a7.516 7.516 0 0 0 7.515-7.515zM95.012 198.37l-15.676 6.141a7.514 7.514 0 1 0 5.482 13.993l15.676-6.141a7.514 7.514 0 1 0-5.482-13.993zM79.336 74.279l15.676 6.141a7.49 7.49 0 0 0 2.739.52 7.514 7.514 0 0 0 2.743-14.513l-15.676-6.141a7.514 7.514 0 1 0-5.482 13.993zM470.785 131.881H426.71a7.515 7.515 0 1 0 0 15.03h44.075a7.515 7.515 0 1 0 0-15.03zM411.506 212.365l15.675 6.141c.901.353 1.828.52 2.74.52a7.515 7.515 0 0 0 2.744-14.513l-15.675-6.141a7.515 7.515 0 0 0-5.484 13.993zM414.25 80.94c.912 0 1.84-.167 2.74-.52l15.675-6.141a7.515 7.515 0 1 0-5.484-13.994l-15.675 6.141a7.515 7.515 0 0 0-4.255 9.738 7.516 7.516 0 0 0 6.999 4.776z" fill="#ffffff" data-original="#000000" class=""></path></g></svg>