<svg xmlns="http://www.w3.org/2000/svg" version="1.1" xmlns:xlink="http://www.w3.org/1999/xlink" xmlns:svgjs="http://svgjs.com/svgjs" width="512" height="512" x="0" y="0" viewBox="0 0 682.667 682.667" style="enable-background:new 0 0 512 512" xml:space="preserve"><g transform="matrix(0.9,0,0,0.9,34.13325347900388,34.13344783782958)"><defs stroke-width="25" style="stroke-width: 25;"><clipPath id="a" clipPathUnits="userSpaceOnUse" stroke-width="25" style="stroke-width: 25;"><path d="M0 512h512V0H0Z" fill="#ffffff" data-original="#000000" stroke-width="25" style="stroke-width: 25;"></path></clipPath></defs><g clip-path="url(#a)" transform="matrix(1.33333 0 0 -1.33333 0 682.667)" stroke-width="25" style="stroke-width: 25;"><path d="M0 0v0c-12.026 0-21.775 9.749-21.775 21.775v47.796c0 12.026 9.749 21.775 21.775 21.775 12.026 0 21.775-9.749 21.775-21.775V21.775C21.775 9.749 12.026 0 0 0Z" style="stroke-width: 25; stroke-linecap: round; stroke-linejoin: round; stroke-miterlimit: 10; stroke-dasharray: none; stroke-opacity: 1;" transform="translate(146.365 413.154)" fill="none" stroke="#ffffff" stroke-width="25" stroke-linecap="round" stroke-linejoin="round" stroke-miterlimit="10" stroke-dasharray="none" stroke-opacity="" data-original="#000000"></path><path d="M0 0v0c-12.026 0-21.775 9.749-21.775 21.775v47.796c0 12.026 9.749 21.775 21.775 21.775 12.026 0 21.775-9.749 21.775-21.775V21.775C21.775 9.749 12.026 0 0 0Z" style="stroke-width: 25; stroke-linecap: round; stroke-linejoin: round; stroke-miterlimit: 10; stroke-dasharray: none; stroke-opacity: 1;" transform="translate(256 413.154)" fill="none" stroke="#ffffff" stroke-width="25" stroke-linecap="round" stroke-linejoin="round" stroke-miterlimit="10" stroke-dasharray="none" stroke-opacity="" data-original="#000000"></path><path d="M0 0v0c-12.026 0-21.776 9.749-21.776 21.775v47.796c0 12.026 9.75 21.775 21.776 21.775s21.775-9.749 21.775-21.775V21.775C21.775 9.749 12.026 0 0 0Z" style="stroke-width: 25; stroke-linecap: round; stroke-linejoin: round; stroke-miterlimit: 10; stroke-dasharray: none; stroke-opacity: 1;" transform="translate(365.635 413.154)" fill="none" stroke="#ffffff" stroke-width="25" stroke-linecap="round" stroke-linejoin="round" stroke-miterlimit="10" stroke-dasharray="none" stroke-opacity="" data-original="#000000"></path><path d="M0 0h26.33v69.505c0 10.82-8.771 19.591-19.591 19.591h-33.002" style="stroke-width: 25; stroke-linecap: round; stroke-linejoin: round; stroke-miterlimit: 10; stroke-dasharray: none; stroke-opacity: 1;" transform="translate(413.673 375.506)" fill="none" stroke="#ffffff" stroke-width="25" stroke-linecap="round" stroke-linejoin="round" stroke-miterlimit="10" stroke-dasharray="none" stroke-opacity="" data-original="#000000"></path><path d="M0 0h-33.002c-10.819 0-19.591-8.771-19.591-19.591v-69.505h306.676" style="stroke-width: 25; stroke-linecap: round; stroke-linejoin: round; stroke-miterlimit: 10; stroke-dasharray: none; stroke-opacity: 1;" transform="translate(124.59 464.602)" fill="none" stroke="#ffffff" stroke-width="25" stroke-linecap="round" stroke-linejoin="round" stroke-miterlimit="10" stroke-dasharray="none" stroke-opacity="" data-original="#000000"></path><path d="M0 0a179.107 179.107 0 0 0-179.11-179.109c40.974 0 74.19 33.215 74.19 74.19v13.894c0 9.298 7.538 16.836 16.836 16.836h13.895C-33.216-74.189 0-40.974 0 0Z" style="stroke-width: 25; stroke-linecap: round; stroke-linejoin: round; stroke-miterlimit: 10; stroke-dasharray: none; stroke-opacity: 1;" transform="translate(440.003 186.61)" fill="none" stroke="#ffffff" stroke-width="25" stroke-linecap="round" stroke-linejoin="round" stroke-miterlimit="10" stroke-dasharray="none" stroke-opacity="" data-original="#000000"></path><path d="m0 0-65.819 65.82 30.484 30.485L0 60.97l70.671 70.67 30.484-30.485z" style="stroke-width: 25; stroke-linecap: round; stroke-linejoin: round; stroke-miterlimit: 10; stroke-dasharray: none; stroke-opacity: 1;" transform="translate(238.332 125.683)" fill="none" stroke="#ffffff" stroke-width="25" stroke-linecap="round" stroke-linejoin="round" stroke-miterlimit="10" stroke-dasharray="none" stroke-opacity="" data-original="#000000"></path><path d="M0 0v-11.454c0-10.819 8.771-19.59 19.591-19.59h328.824c10.82 0 19.591 8.771 19.591 19.59v348.415" style="stroke-width: 25; stroke-linecap: round; stroke-linejoin: round; stroke-miterlimit: 10; stroke-dasharray: none; stroke-opacity: 1;" transform="translate(71.997 38.544)" fill="none" stroke="#ffffff" stroke-width="25" stroke-linecap="round" stroke-linejoin="round" stroke-miterlimit="10" stroke-dasharray="none" stroke-opacity="" data-original="#000000"></path><path d="M0 0v-301.961" style="stroke-width: 25; stroke-linecap: round; stroke-linejoin: round; stroke-miterlimit: 10; stroke-dasharray: none; stroke-opacity: 1;" transform="translate(71.997 375.506)" fill="none" stroke="#ffffff" stroke-width="25" stroke-linecap="round" stroke-linejoin="round" stroke-miterlimit="10" stroke-dasharray="none" stroke-opacity="" data-original="#000000"></path><path d="M0 0a128.435 128.435 0 0 1 1.048 16.4c0 70.273-56.968 127.24-127.24 127.24-70.273 0-127.241-56.967-127.241-127.24 0-70.272 56.968-127.239 127.241-127.239 29.887 0 57.368 10.304 79.083 27.554" style="stroke-width: 25; stroke-linecap: round; stroke-linejoin: round; stroke-miterlimit: 10; stroke-dasharray: none; stroke-opacity: 1;" transform="translate(382.192 175.102)" fill="none" stroke="#ffffff" stroke-width="25" stroke-linecap="round" stroke-linejoin="round" stroke-miterlimit="10" stroke-dasharray="none" stroke-opacity="" data-original="#000000"></path><path d="M0 0a127.19 127.19 0 0 1 16.946 28.14" style="stroke-width: 25; stroke-linecap: round; stroke-linejoin: round; stroke-miterlimit: 10; stroke-dasharray: none; stroke-opacity: 1;" transform="translate(355.685 112.42)" fill="none" stroke="#ffffff" stroke-width="25" stroke-linecap="round" stroke-linejoin="round" stroke-miterlimit="10" stroke-dasharray="none" stroke-opacity="" data-original="#000000"></path><path d="M0 0h-66.084" style="stroke-width: 25; stroke-linecap: round; stroke-linejoin: round; stroke-miterlimit: 10; stroke-dasharray: none; stroke-opacity: 1;" transform="translate(234.225 464.602)" fill="none" stroke="#ffffff" stroke-width="25" stroke-linecap="round" stroke-linejoin="round" stroke-miterlimit="10" stroke-dasharray="none" stroke-opacity="" data-original="#000000"></path><path d="M0 0h-66.083" style="stroke-width: 25; stroke-linecap: round; stroke-linejoin: round; stroke-miterlimit: 10; stroke-dasharray: none; stroke-opacity: 1;" transform="translate(343.858 464.602)" fill="none" stroke="#ffffff" stroke-width="25" stroke-linecap="round" stroke-linejoin="round" stroke-miterlimit="10" stroke-dasharray="none" stroke-opacity="" data-original="#000000"></path></g></g></svg>