<svg xmlns="http://www.w3.org/2000/svg" version="1.1" xmlns:xlink="http://www.w3.org/1999/xlink" xmlns:svgjs="http://svgjs.com/svgjs" width="512" height="512" x="0" y="0" viewBox="0 0 512.001 512.001" style="enable-background:new 0 0 512 512" xml:space="preserve"><g><circle cx="196.429" cy="311.63" r="44.715" style="fill-rule: evenodd; clip-rule: evenodd; stroke-width: 13; stroke-linecap: round; stroke-linejoin: round; stroke-miterlimit: 22.9256;" fill-rule="evenodd" clip-rule="evenodd" fill="none" stroke="#000000" stroke-width="13" stroke-linecap="round" stroke-linejoin="round" stroke-miterlimit="22.9256" data-original="#000000"></circle><circle cx="407.574" cy="311.63" r="44.715" style="fill-rule: evenodd; clip-rule: evenodd; stroke-width: 13; stroke-linecap: round; stroke-linejoin: round; stroke-miterlimit: 22.9256;" fill-rule="evenodd" clip-rule="evenodd" fill="none" stroke="#000000" stroke-width="13" stroke-linecap="round" stroke-linejoin="round" stroke-miterlimit="22.9256" data-original="#000000"></circle><path d="M110.945 262.973h17.358M298.429 160.127V222.2h203.572v94.43h-45.24m-98.373 0H245.616m-98.374 0h-36.297l-8.943-94.43h150.655v-62.073m158.895 60.815-57.108-65.286H197.698l-39.441 65.117M479.644 262.973h17.886M407.571 311.631h.007M196.425 311.631h.007M10 262.973h50.613M53.5 307.972h50.613M47.96 217.973h12.653M123.005 172.973h-.007m-44.997 0H23.005" style="fill-rule: evenodd; clip-rule: evenodd; stroke-width: 13; stroke-linecap: round; stroke-linejoin: round; stroke-miterlimit: 22.9256;" fill-rule="evenodd" clip-rule="evenodd" fill="none" stroke="#000000" stroke-width="13" stroke-linecap="round" stroke-linejoin="round" stroke-miterlimit="22.9256" data-original="#000000"></path></g></svg>