<svg xmlns="http://www.w3.org/2000/svg" version="1.1" xmlns:xlink="http://www.w3.org/1999/xlink" xmlns:svgjs="http://svgjs.com/svgjs" width="512" height="512" x="0" y="0" viewBox="0 0 682.667 682.667" style="enable-background:new 0 0 512 512" xml:space="preserve" class=""><g><defs stroke-width="22" style="stroke-width: 22;"><clipPath id="a" clipPathUnits="userSpaceOnUse" stroke-width="22" style="stroke-width: 22;"><path d="M0 512h512V0H0Z" fill="#ffffff" data-original="#000000" class="" stroke-width="22" style="stroke-width: 22;"></path></clipPath></defs><g clip-path="url(#a)" transform="matrix(1.33333 0 0 -1.33333 0 682.667)" stroke-width="22" style="stroke-width: 22;"><path d="M0 0h-350.365c-14.36 0-26 11.641-26 26v20a4 4 0 0 0 4 4h489a4 4 0 0 0 4-4V26c0-14.359-11.641-26-26-26H32.371" style="stroke-width: 22; stroke-linecap: round; stroke-linejoin: round; stroke-miterlimit: 10; stroke-dasharray: none; stroke-opacity: 1;" transform="translate(383.865 31)" fill="none" stroke="#ffffff" stroke-width="22" stroke-linecap="round" stroke-linejoin="round" stroke-miterlimit="10" stroke-dasharray="none" stroke-opacity="" data-original="#000000" class=""></path><path d="m0 0 .008-203.495c0-11.04-8.95-20-20-20l-389.99-.01c-11.05 0-20 8.95-20 20l-.01 259.99c0 11.04 8.95 20 20 20l214.865.01" style="stroke-width: 22; stroke-linecap: round; stroke-linejoin: round; stroke-miterlimit: 10; stroke-dasharray: none; stroke-opacity: 1;" transform="translate(470.992 304.505)" fill="none" stroke="#ffffff" stroke-width="22" stroke-linecap="round" stroke-linejoin="round" stroke-miterlimit="10" stroke-dasharray="none" stroke-opacity="" data-original="#000000" class=""></path><path d="M0 0h40.195c11.05 0 20-8.95 20-20l.001-24.681" style="stroke-width: 22; stroke-linecap: round; stroke-linejoin: round; stroke-miterlimit: 10; stroke-dasharray: none; stroke-opacity: 1;" transform="translate(410.795 381)" fill="none" stroke="#ffffff" stroke-width="22" stroke-linecap="round" stroke-linejoin="round" stroke-miterlimit="10" stroke-dasharray="none" stroke-opacity="" data-original="#000000" class=""></path><path d="M0 0h-56.642" style="stroke-width: 22; stroke-linecap: round; stroke-linejoin: round; stroke-miterlimit: 10; stroke-dasharray: none; stroke-opacity: 1;" transform="translate(371.586 381)" fill="none" stroke="#ffffff" stroke-width="22" stroke-linecap="round" stroke-linejoin="round" stroke-miterlimit="10" stroke-dasharray="none" stroke-opacity="" data-original="#000000" class=""></path><path d="m0 0-.007 158.392 200.89.009" style="stroke-width: 22; stroke-linecap: round; stroke-linejoin: round; stroke-miterlimit: 10; stroke-dasharray: none; stroke-opacity: 1;" transform="translate(71.007 192.599)" fill="none" stroke="#ffffff" stroke-width="22" stroke-linecap="round" stroke-linejoin="round" stroke-miterlimit="10" stroke-dasharray="none" stroke-opacity="" data-original="#000000" class=""></path><path d="M0 0h22.8l.01-239.99-369.991-.01-.002 49.227" style="stroke-width: 22; stroke-linecap: round; stroke-linejoin: round; stroke-miterlimit: 10; stroke-dasharray: none; stroke-opacity: 1;" transform="translate(418.19 351)" fill="none" stroke="#ffffff" stroke-width="22" stroke-linecap="round" stroke-linejoin="round" stroke-miterlimit="10" stroke-dasharray="none" stroke-opacity="" data-original="#000000" class=""></path><path d="M0 0h-68c-6.627 0-12 5.373-12 12v12h92V12C12 5.373 6.627 0 0 0Z" style="stroke-width: 22; stroke-linecap: round; stroke-linejoin: round; stroke-miterlimit: 10; stroke-dasharray: none; stroke-opacity: 1;" transform="translate(290 57)" fill="none" stroke="#ffffff" stroke-width="22" stroke-linecap="round" stroke-linejoin="round" stroke-miterlimit="10" stroke-dasharray="none" stroke-opacity="" data-original="#000000" class=""></path><path d="M0 0c0 18.414-14.965 33.341-33.424 33.341-18.46 0-33.424-14.927-33.424-33.341s14.964-33.342 33.424-33.342C-14.965-33.342 0-18.414 0 0Zm-14.155-62.953c-.557-3.948-1.887-9.603-3.075-14.198a9.718 9.718 0 0 0-9.407-7.294h-13.575a9.716 9.716 0 0 0-9.406 7.294c-1.189 4.595-2.519 10.25-3.075 14.198-.415 2.942-2.182 5.517-4.757 7.001l-12.543 7.223c-2.571 1.482-5.683 1.722-8.435.612-3.713-1.497-9.311-3.182-13.905-4.456a9.715 9.715 0 0 0-11.011 4.488l-6.778 11.712a9.692 9.692 0 0 0 1.617 11.783c3.399 3.327 7.65 7.31 10.801 9.766 2.342 1.825 3.691 4.639 3.691 7.609v14.43c0 2.969-1.349 5.784-3.691 7.608-3.151 2.456-7.402 6.439-10.801 9.766a9.692 9.692 0 0 0-1.617 11.783l6.778 11.712a9.715 9.715 0 0 0 11.011 4.488c4.594-1.274 10.192-2.958 13.905-4.456 2.752-1.11 5.864-.869 8.435.612l12.543 7.224c2.575 1.483 4.342 4.058 4.757 7 .556 3.948 1.886 9.604 3.075 14.198a9.716 9.716 0 0 0 9.406 7.294h13.575a9.718 9.718 0 0 0 9.407-7.294c1.188-4.594 2.518-10.25 3.075-14.198a9.646 9.646 0 0 1 4.757-7l12.543-7.224c2.572-1.481 5.682-1.722 8.434-.612 3.714 1.498 9.312 3.182 13.905 4.456a9.715 9.715 0 0 0 11.011-4.488l6.778-11.712a9.692 9.692 0 0 0-1.617-11.783c-3.398-3.327-7.648-7.31-10.8-9.766-2.342-1.824-3.692-4.639-3.692-7.608v-14.43c0-2.97 1.35-5.784 3.692-7.609 3.152-2.456 7.402-6.439 10.8-9.766a9.692 9.692 0 0 0 1.617-11.783l-6.778-11.712a9.715 9.715 0 0 0-11.011-4.488c-4.593 1.274-10.191 2.959-13.905 4.456-2.752 1.11-5.862.87-8.434-.612l-12.543-7.223a9.65 9.65 0 0 1-4.757-7.001z" style="stroke-width: 22; stroke-linecap: round; stroke-linejoin: round; stroke-miterlimit: 10; stroke-dasharray: none; stroke-opacity: 1;" transform="translate(376.69 396.556)" fill="none" stroke="#ffffff" stroke-width="22" stroke-linecap="round" stroke-linejoin="round" stroke-miterlimit="10" stroke-dasharray="none" stroke-opacity="" data-original="#000000" class=""></path><path d="M0 0c0 18.414-14.965 33.341-33.424 33.341-18.46 0-33.424-14.927-33.424-33.341s14.964-33.342 33.424-33.342C-14.965-33.342 0-18.414 0 0Zm-14.155-62.953c-.557-3.948-1.887-9.603-3.075-14.198a9.718 9.718 0 0 0-9.407-7.294h-13.575a9.716 9.716 0 0 0-9.406 7.294c-1.189 4.595-2.519 10.25-3.075 14.198-.415 2.942-2.182 5.517-4.757 7.001l-12.543 7.223c-2.571 1.482-5.683 1.722-8.435.612-3.714-1.497-9.311-3.182-13.905-4.456a9.715 9.715 0 0 0-11.011 4.488l-6.778 11.712a9.692 9.692 0 0 0 1.617 11.783c3.399 3.327 7.649 7.31 10.801 9.766 2.342 1.825 3.691 4.639 3.691 7.609v14.43c0 2.969-1.349 5.784-3.691 7.608-3.152 2.456-7.402 6.439-10.801 9.766a9.692 9.692 0 0 0-1.617 11.783l6.778 11.712a9.715 9.715 0 0 0 11.011 4.488c4.594-1.274 10.191-2.959 13.905-4.456 2.752-1.11 5.864-.869 8.435.612l12.543 7.224c2.575 1.483 4.342 4.058 4.757 7 .556 3.948 1.886 9.603 3.075 14.198a9.716 9.716 0 0 0 9.406 7.294h13.575a9.718 9.718 0 0 0 9.407-7.294c1.188-4.595 2.518-10.25 3.075-14.198a9.646 9.646 0 0 1 4.757-7l12.543-7.224c2.571-1.481 5.682-1.722 8.434-.612 3.714 1.497 9.312 3.182 13.905 4.456a9.715 9.715 0 0 0 11.011-4.488l6.778-11.712a9.692 9.692 0 0 0-1.617-11.783c-3.398-3.327-7.648-7.31-10.801-9.766-2.341-1.824-3.691-4.639-3.691-7.608v-14.43c0-2.97 1.35-5.784 3.691-7.609 3.153-2.456 7.403-6.439 10.801-9.766a9.692 9.692 0 0 0 1.617-11.783l-6.778-11.712a9.715 9.715 0 0 0-11.011-4.488c-4.593 1.274-10.191 2.959-13.905 4.456-2.752 1.11-5.863.87-8.434-.612l-12.543-7.223a9.65 9.65 0 0 1-4.757-7.001z" style="stroke-width: 22; stroke-linecap: round; stroke-linejoin: round; stroke-miterlimit: 10; stroke-dasharray: none; stroke-opacity: 1;" transform="translate(259.078 266.556)" fill="none" stroke="#ffffff" stroke-width="22" stroke-linecap="round" stroke-linejoin="round" stroke-miterlimit="10" stroke-dasharray="none" stroke-opacity="" data-original="#000000" class=""></path></g></g></svg>