<svg xmlns="http://www.w3.org/2000/svg" version="1.1" xmlns:xlink="http://www.w3.org/1999/xlink" xmlns:svgjs="http://svgjs.com/svgjs" width="512" height="512" x="0" y="0" viewBox="0 0 512 512" style="enable-background:new 0 0 512 512" xml:space="preserve" class=""><g><path d="M294.152 190.12c-8.599-12.323-30.223-21.481-58.485-12.92-25.951 7.861-37.579 49.624-3.732 65.675 5.311 2.519 18.921 7.896 39.455 15.195 45.958 16.337 47.469 77.038-7.076 81.829-18.175 1.597-44.092-3.317-57.883-20.534M253.754 341.812v14.144M253.754 156.044v16.815M253.403 450.306h233.403M462.625 479.847 492 450.306l-29.375-29.541M254.532 61.694H25.194M49.375 32.153 20 61.694l29.375 29.541" style="stroke-width: 30; stroke-linecap: round; stroke-linejoin: round; stroke-miterlimit: 10;" fill="none" stroke="#ffffff" stroke-width="30" stroke-linecap="round" stroke-linejoin="round" stroke-miterlimit="10" data-original="#000000"></path><path d="M440.16 206c-21.937-83.082-97.237-144.306-186.757-144.306-106.709 0-193.214 86.994-193.214 194.306s86.505 194.306 193.214 194.306c89.52 0 164.819-61.224 186.757-144.306" style="stroke-width: 30; stroke-linecap: round; stroke-linejoin: round; stroke-miterlimit: 10;" fill="none" stroke="#ffffff" stroke-width="30" stroke-linecap="round" stroke-linejoin="round" stroke-miterlimit="10" data-original="#000000"></path></g></svg>