<svg version="1.1" id="Layer_1" xmlns="http://www.w3.org/2000/svg" xmlns:xlink="http://www.w3.org/1999/xlink" x="0px" y="0px" viewBox="0 0 512 512" style="enable-background:new 0 0 512 512;" xml:space="preserve">
<g>
	<g>
		<path style="fill:none;stroke:#000000;stroke-width:40;stroke-linecap:round;stroke-linejoin:round;stroke-miterlimit:10;" d="&#10;&#9;&#9;&#9;M294.152,190.12c-8.599-12.323-30.223-21.481-58.485-12.92c-25.951,7.861-37.579,49.624-3.732,65.675&#10;&#9;&#9;&#9;c5.311,2.519,18.921,7.896,39.455,15.195c45.958,16.337,47.469,77.038-7.076,81.829c-18.175,1.597-44.092-3.317-57.883-20.534"/>
		
			<line style="fill:none;stroke:#000000;stroke-width:40;stroke-linecap:round;stroke-linejoin:round;stroke-miterlimit:10;" x1="253.754" y1="341.812" x2="253.754" y2="355.956"/>
		
			<line style="fill:none;stroke:#000000;stroke-width:40;stroke-linecap:round;stroke-linejoin:round;stroke-miterlimit:10;" x1="253.754" y1="156.044" x2="253.754" y2="172.859"/>
	</g>
	<path style="fill:none;stroke:#000000;stroke-width:40;stroke-linecap:round;stroke-linejoin:round;stroke-miterlimit:10;" d="&#10;&#9;&#9;M431.11,361.119c9.863-16.574,17.443-35.667,22.306-54.845l14.596-2.949c13.865-2.801,23.835-14.993,23.835-29.147V237.82&#10;&#9;&#9;c0-14.154-9.97-26.346-23.835-29.147l-14.596-2.949c-4.862-19.178-12.442-37.27-22.306-53.845l8.248-12.428&#10;&#9;&#9;c7.825-11.791,6.259-27.467-3.743-37.475l-25.693-25.71c-10.002-10.008-25.667-11.575-37.45-3.745l-12.42,8.253&#10;&#9;&#9;c-16.563-9.87-34.644-17.455-53.81-22.32l-2.947-14.605C300.496,29.977,288.312,20,274.168,20h-36.335&#10;&#9;&#9;c-14.145,0-26.329,9.977-29.128,23.85l-2.947,14.605c-19.165,4.866-37.246,12.451-53.81,22.32l-12.42-8.253&#10;&#9;&#9;c-11.783-7.83-27.449-6.263-37.45,3.745l-25.693,25.71c-10.002,10.008-11.567,25.684-3.743,37.475l8.248,12.428&#10;&#9;&#9;c-9.863,16.574-17.443,34.667-22.306,53.845l-14.596,2.949c-13.865,2.801-23.835,14.993-23.835,29.147v36.359&#10;&#9;&#9;c0,14.154,9.97,26.346,23.835,29.147l14.596,2.949c4.862,19.178,12.442,37.27,22.306,53.845l-8.248,12.428&#10;&#9;&#9;c-7.825,11.791-6.259,27.467,3.743,37.475l25.693,25.71c10.002,10.008,25.667,11.575,37.45,3.745l12.42-8.253&#10;&#9;&#9;c16.563,9.87,34.644,17.455,53.81,22.32l2.947,14.605c2.799,13.874,14.983,23.85,29.128,23.85h36.335&#10;&#9;&#9;c14.145,0,26.329-9.977,29.128-23.85l2.947-14.605c19.165-4.866,37.246-13.451,53.81-23.32"/>
</g>
<g>
</g>
<g>
</g>
<g>
</g>
<g>
</g>
<g>
</g>
<g>
</g>
<g>
</g>
<g>
</g>
<g>
</g>
<g>
</g>
<g>
</g>
<g>
</g>
<g>
</g>
<g>
</g>
<g>
</g>
</svg>