<svg xmlns="http://www.w3.org/2000/svg" version="1.1" xmlns:xlink="http://www.w3.org/1999/xlink" xmlns:svgjs="http://svgjs.com/svgjs" width="512" height="512" x="0" y="0" viewBox="0 0 512.001 512.001" style="enable-background:new 0 0 512 512" xml:space="preserve" class=""><g><circle cx="196.429" cy="311.631" r="44.715" style="fill-rule:evenodd;clip-rule:evenodd;" fill="#ffffff" data-original="#6d91ac" class=""></circle><circle cx="407.574" cy="311.631" r="44.715" style="fill-rule:evenodd;clip-rule:evenodd;" transform="rotate(-9.213 407.56 311.563)" fill="#ffffff" data-original="#6d91ac" class=""></circle><path d="M298.429 222.2h113.849l-.726-1.258-57.108-65.286h-56.015v4.471zM252.657 222.2v-66.544h-54.959l-39.441 65.117-.824 1.427z" style="fill-rule:evenodd;clip-rule:evenodd;" fill="#ffffff" data-original="#00ccf2" class=""></path><path d="M240.868 316.63h122.268a45.126 45.126 0 0 1-.276-5c0-24.696 20.02-44.715 44.715-44.715 24.695 0 44.715 20.02 44.715 44.715 0 1.69-.094 3.358-.276 5h49.988V222.2H298.429v-66.544h-45.772V222.2H102.002l8.943 94.43h41.044a45.126 45.126 0 0 1-.276-5c0-24.696 20.02-44.715 44.715-44.715 24.696 0 44.715 20.02 44.715 44.715a45.1 45.1 0 0 1-.275 5z" style="fill-rule:evenodd;clip-rule:evenodd;" fill="#4a78af" data-original="#ffc144" class=""></path><circle cx="196.429" cy="311.63" r="44.715" style="fill-rule:evenodd;clip-rule:evenodd;stroke-width:20.0001;stroke-linecap:round;stroke-linejoin:round;stroke-miterlimit:22.9256;" fill-rule="evenodd" clip-rule="evenodd" fill="none" stroke="#000000" stroke-width="20.0001" stroke-linecap="round" stroke-linejoin="round" stroke-miterlimit="22.9256" data-original="#000000" class=""></circle><circle cx="407.574" cy="311.63" r="44.715" style="fill-rule:evenodd;clip-rule:evenodd;stroke-width:20.0001;stroke-linecap:round;stroke-linejoin:round;stroke-miterlimit:22.9256;" fill-rule="evenodd" clip-rule="evenodd" fill="none" stroke="#000000" stroke-width="20.0001" stroke-linecap="round" stroke-linejoin="round" stroke-miterlimit="22.9256" data-original="#000000" class=""></circle><path d="M110.945 262.973h17.358M298.429 160.127V222.2h203.572v94.43h-45.24m-98.373 0H245.616m-98.374 0h-36.297l-8.943-94.43h150.655v-62.073m158.895 60.815-57.108-65.286H197.698l-39.441 65.117M479.644 262.973h17.886M407.571 311.631h.007M196.425 311.631h.007M10 262.973h50.613M53.5 307.972h50.613M47.96 217.973h12.653M123.005 172.973h-.007m-44.997 0H23.005" style="fill-rule:evenodd;clip-rule:evenodd;stroke-width:20.0001;stroke-linecap:round;stroke-linejoin:round;stroke-miterlimit:22.9256;" fill-rule="evenodd" clip-rule="evenodd" fill="none" stroke="#000000" stroke-width="20.0001" stroke-linecap="round" stroke-linejoin="round" stroke-miterlimit="22.9256" data-original="#000000" class=""></path></g></svg>