<?xml version="1.0" encoding="UTF-8"?>
<svg xmlns="http://www.w3.org/2000/svg" xmlns:xlink="http://www.w3.org/1999/xlink" version="1.1" id="Capa_1" x="0px" y="0px" viewBox="0 0 512 512" style="enable-background:new 0 0 512 512;" xml:space="preserve" width="512" height="512">
<g id="XMLID_319_">
	<g id="XMLID_320_">
		<path style="fill:none;stroke:#000000;stroke-width:20;stroke-linecap:round;stroke-linejoin:round;stroke-miterlimit:10;" d="&#10;&#9;&#9;&#9;M472,396.571H40c-16.569,0-30-13.431-30-30V145.429c0-16.569,13.431-30,30-30h432c16.569,0,30,13.431,30,30v221.143&#10;&#9;&#9;&#9;C502,383.14,488.569,396.571,472,396.571z"/>
		
			<rect x="10" y="175.673" style="fill:none;stroke:#000000;stroke-width:20;stroke-linecap:round;stroke-linejoin:round;stroke-miterlimit:10;" width="492" height="160.653"/>
		
			<polyline id="XMLID_321_" style="fill:none;stroke:#000000;stroke-width:20;stroke-linecap:round;stroke-linejoin:round;stroke-miterlimit:10;" points="&#10;&#9;&#9;&#9;50.163,215.837 120.449,215.837 50.163,296.163 120.449,296.163 &#9;&#9;"/>
		
			<line style="fill:none;stroke:#000000;stroke-width:20;stroke-linecap:round;stroke-linejoin:round;stroke-miterlimit:10;" x1="230.898" y1="215.837" x2="160.612" y2="296.163"/>
		
			<line style="fill:none;stroke:#000000;stroke-width:20;stroke-linecap:round;stroke-linejoin:round;stroke-miterlimit:10;" x1="230.898" y1="296.163" x2="160.612" y2="215.837"/>
		
			<polyline id="XMLID_322_" style="fill:none;stroke:#000000;stroke-width:20;stroke-linecap:round;stroke-linejoin:round;stroke-miterlimit:10;" points="&#10;&#9;&#9;&#9;361.429,296.163 361.429,215.837 341.347,225.878 &#9;&#9;"/>
		
			<line id="XMLID_323_" style="fill:none;stroke:#000000;stroke-width:20;stroke-linecap:round;stroke-linejoin:round;stroke-miterlimit:10;" x1="341.347" y1="296.163" x2="381.51" y2="296.163"/>
		
			<path id="XMLID_324_" style="fill:none;stroke:#000000;stroke-width:20;stroke-linecap:round;stroke-linejoin:round;stroke-miterlimit:10;" d="&#10;&#9;&#9;&#9;M421.673,215.837h20.082c11.091,0,20.082,8.991,20.082,20.082l0,0c0,11.091-8.991,20.082-20.082,20.082h-10.041h10.041&#10;&#9;&#9;&#9;c11.091,0,20.082,8.991,20.082,20.082l0,0c0,11.091-8.991,20.082-20.082,20.082h-20.082"/>
		
			<line style="fill:none;stroke:#000000;stroke-width:20;stroke-linecap:round;stroke-linejoin:round;stroke-miterlimit:10;" x1="271.061" y1="256" x2="301.184" y2="256"/>
	</g>
</g>















</svg>
