<svg xmlns="http://www.w3.org/2000/svg" version="1.1" xmlns:xlink="http://www.w3.org/1999/xlink" xmlns:svgjs="http://svgjs.com/svgjs" width="512" height="512" x="0" y="0" viewBox="0 0 512 512" style="enable-background:new 0 0 512 512" xml:space="preserve" class=""><g transform="matrix(0.9000000000000001,0,0,0.9000000000000001,25.59999847412098,25.600001525878838)"><path d="M376.661 393.213H59.038c-23.899 0-43.342-19.442-43.342-43.341V162.129c0-23.899 19.443-43.342 43.342-43.342h48.425a7.848 7.848 0 1 0 0-15.696H59.038C26.484 103.091 0 129.575 0 162.129v187.743c0 32.554 26.484 59.037 59.038 59.037h317.623a7.848 7.848 0 1 0 0-15.696zM452.962 103.091H138.855a7.848 7.848 0 1 0 0 15.696h314.107c23.899 0 43.342 19.443 43.342 43.342v187.743c0 23.899-19.443 43.341-43.342 43.341h-44.909a7.848 7.848 0 1 0 0 15.696h44.909c32.554 0 59.038-26.484 59.038-59.037V162.129c0-32.554-26.484-59.038-59.038-59.038z" fill="#000000" data-original="#000000" class=""></path><path d="M452.963 139.715H59.038c-12.359 0-22.414 10.056-22.414 22.414v187.742c0 12.359 10.055 22.414 22.414 22.414h393.925c12.359 0 22.413-10.055 22.413-22.414V162.129c0-12.359-10.054-22.414-22.413-22.414zm6.716 210.156a6.725 6.725 0 0 1-6.717 6.718H59.038a6.726 6.726 0 0 1-6.718-6.718v-29.906h407.359v29.906zm0-45.602H52.32v-96.538h407.359v96.538zm0-112.234H52.32v-29.906a6.726 6.726 0 0 1 6.718-6.718h393.925c3.703 0 6.716 3.014 6.716 6.718v29.906z" fill="#000000" data-original="#000000" class=""></path><path d="M100.322 217.31H81.79l-12.892 80.573h11.626l2.187-14.618H98.25l2.187 14.618h12.777l-12.892-80.573zm-16 55.019 6.101-40.747 6.101 40.747H84.322zM153.154 254.947c5.64-2.647 8.172-7.942 8.172-16.23v-2.878c0-12.431-5.64-18.532-18.762-18.532h-19.107v80.573h19.913c12.661.001 19.222-6.675 19.222-19.106v-6.562c.001-8.517-2.646-14.618-9.438-17.265zm-17.035-26.128h6.101c4.489 0 6.446 2.532 6.446 8.288v4.488c0 6.446-2.878 8.519-7.597 8.519h-4.95v-21.295zm13.813 49.611c0 5.985-2.302 7.942-6.561 7.942h-7.252v-24.748h5.64c5.755 0 8.172 2.302 8.172 9.784v7.022zM211.281 244.473v-7.827c0-12.892-6.446-20.258-18.877-20.258s-18.877 7.367-18.877 20.258v41.898c0 12.892 6.445 20.258 18.877 20.258 12.431 0 18.877-7.367 18.877-20.258V267.84H199.31v11.51c0 5.755-2.532 7.826-6.561 7.826s-6.561-2.071-6.561-7.826v-43.51c0-5.755 2.532-7.942 6.561-7.942s6.561 2.187 6.561 7.942v8.633h11.971zM245.004 251.838h23.021v11.51h-23.021zM325.001 217.309c-1.957 5.41-4.144 10.129-13.929 10.129v8.978h9.785v61.466h12.661v-80.573h-8.517zM365.862 286.371c-.115-.576-.115-1.151-.115-1.727 0-13.237 25.209-22.676 25.209-47.998 0-12.892-6.446-20.258-18.877-20.258s-18.877 7.367-18.877 20.258v7.827h11.97v-8.633c0-5.755 2.532-7.942 6.562-7.942 4.029 0 6.561 1.957 6.561 9.208 0 23.251-25.092 27.165-25.092 50.876v9.899h36.602v-11.51h-23.943zM440.219 238.718v-2.072c0-12.892-6.446-20.258-18.877-20.258s-18.877 7.367-18.877 20.258v4.374h11.97v-5.18c0-5.755 2.533-7.942 6.562-7.942s6.561 1.957 6.561 9.208v4.488c0 6.446-2.878 8.519-7.597 8.519h-4.948v11.51h4.258c5.755 0 8.288 2.764 8.288 10.244v6.331c0 7.136-2.532 9.093-6.561 9.093s-6.562-2.187-6.562-7.942v-7.482h-11.97v6.676c0 12.892 6.446 20.258 18.877 20.258s18.877-7.367 18.877-20.258v-6.331c0-8.172-2.532-14.158-8.863-16.92 6.099-2.531 8.862-7.941 8.862-16.574z" fill="#000000" data-original="#000000" class=""></path><circle cx="128.938" cy="173.86" r="8.598" fill="#000000" data-original="#000000" class=""></circle><circle cx="128.938" cy="338.313" r="8.598" fill="#000000" data-original="#000000" class=""></circle><circle cx="383.067" cy="173.86" r="8.598" fill="#000000" data-original="#000000" class=""></circle><circle cx="383.067" cy="338.313" r="8.598" fill="#000000" data-original="#000000" class=""></circle></g></svg>