<svg xmlns="http://www.w3.org/2000/svg" version="1.1" xmlns:xlink="http://www.w3.org/1999/xlink" xmlns:svgjs="http://svgjs.com/svgjs" width="512" height="512" x="0" y="0" viewBox="0 0 512 512" style="enable-background:new 0 0 512 512" xml:space="preserve" class=""><g><path d="M472 396.571H40c-16.569 0-30-13.431-30-30V145.429c0-16.569 13.431-30 30-30h432c16.569 0 30 13.431 30 30v221.143c0 16.568-13.431 29.999-30 29.999z" style="stroke-width:20;stroke-linecap:round;stroke-linejoin:round;stroke-miterlimit:10;" fill="none" stroke="#ffffff" stroke-width="20" stroke-linecap="round" stroke-linejoin="round" stroke-miterlimit="10" data-original="#000000" class=""></path><path d="M10 175.673h492v160.653H10z" style="stroke-width:20;stroke-linecap:round;stroke-linejoin:round;stroke-miterlimit:10;" fill="none" stroke="#ffffff" stroke-width="20" stroke-linecap="round" stroke-linejoin="round" stroke-miterlimit="10" data-original="#000000" class=""></path><path d="M50.163 215.837h70.286l-70.286 80.326h70.286M230.898 215.837l-70.286 80.326M230.898 296.163l-70.286-80.326M361.429 296.163v-80.326l-20.082 10.041M341.347 296.163h40.163M421.673 215.837h20.082c11.091 0 20.082 8.991 20.082 20.082h0c0 11.091-8.991 20.082-20.082 20.082h-10.041 10.041c11.091 0 20.082 8.991 20.082 20.082h0c0 11.091-8.991 20.082-20.082 20.082h-20.082M271.061 256h30.123" style="stroke-width:20;stroke-linecap:round;stroke-linejoin:round;stroke-miterlimit:10;" fill="none" stroke="#ffffff" stroke-width="20" stroke-linecap="round" stroke-linejoin="round" stroke-miterlimit="10" data-original="#000000" class=""></path></g></svg>