<svg xmlns="http://www.w3.org/2000/svg" version="1.1" xmlns:xlink="http://www.w3.org/1999/xlink" xmlns:svgjs="http://svgjs.com/svgjs" width="512" height="512" x="0" y="0" viewBox="0 0 682.667 682.667" style="enable-background:new 0 0 512 512" xml:space="preserve" class=""><g transform="matrix(0.9100000000000003,0,0,0.9100000000000003,30.719774322509636,30.72007481574991)"><defs stroke-width="25" style="stroke-width: 25;"><clipPath id="a" clipPathUnits="userSpaceOnUse" stroke-width="25" style="stroke-width: 25;"><path d="M0 512h512V0H0Z" fill="#ffffff" data-original="#000000" class="" stroke-width="25" style="stroke-width: 25;"></path></clipPath><clipPath id="b" clipPathUnits="userSpaceOnUse" stroke-width="25" style="stroke-width: 25;"><path d="M0 512h512V0H0Z" fill="#ffffff" data-original="#000000" class="" stroke-width="25" style="stroke-width: 25;"></path></clipPath></defs><g clip-path="url(#a)" transform="matrix(1.33333 0 0 -1.33333 0 682.667)" stroke-width="25" style="stroke-width: 25;"><path d="M0 0h-297.35" style="stroke-width: 25; stroke-linecap: round; stroke-linejoin: round; stroke-miterlimit: 10; stroke-dasharray: none; stroke-opacity: 1;" transform="translate(310.672 438.001)" fill="none" stroke="#ffffff" stroke-width="25" stroke-linecap="round" stroke-linejoin="round" stroke-miterlimit="10" stroke-dasharray="none" stroke-opacity="" data-original="#000000" class=""></path><path d="M0 0h206.708" style="stroke-width: 25; stroke-linecap: round; stroke-linejoin: round; stroke-miterlimit: 10; stroke-dasharray: none; stroke-opacity: 1;" transform="translate(13.322 74.001)" fill="none" stroke="#ffffff" stroke-width="25" stroke-linecap="round" stroke-linejoin="round" stroke-miterlimit="10" stroke-dasharray="none" stroke-opacity="" data-original="#000000" class=""></path></g><path d="M0 0v0" style="stroke-width: 25; stroke-linecap: round; stroke-linejoin: round; stroke-miterlimit: 10; stroke-dasharray: none; stroke-opacity: 1;" transform="matrix(1.33333 0 0 -1.33333 215.633 626.665)" fill="none" stroke="#ffffff" stroke-width="25" stroke-linecap="round" stroke-linejoin="round" stroke-miterlimit="10" stroke-dasharray="none" stroke-opacity="" data-original="#000000" class=""></path><g clip-path="url(#b)" transform="matrix(1.33333 0 0 -1.33333 0 682.667)" stroke-width="25" style="stroke-width: 25;"><path d="M0 0v-169c0-17.674 14.327-32 32-32h240c11.046 0 20.785 5.596 26.535 14.108" style="stroke-width: 25; stroke-linecap: round; stroke-linejoin: round; stroke-miterlimit: 10; stroke-dasharray: none; stroke-opacity: 1;" transform="translate(9.997 211.001)" fill="none" stroke="#ffffff" stroke-width="25" stroke-linecap="round" stroke-linejoin="round" stroke-miterlimit="10" stroke-dasharray="none" stroke-opacity="" data-original="#000000" class=""></path><path d="M0 0v187.333c0 17.673-14.327 32-32 32h-240c-17.673 0-32-14.327-32-32v-169" style="stroke-width: 25; stroke-linecap: round; stroke-linejoin: round; stroke-miterlimit: 10; stroke-dasharray: none; stroke-opacity: 1;" transform="translate(313.997 282.668)" fill="none" stroke="#ffffff" stroke-width="25" stroke-linecap="round" stroke-linejoin="round" stroke-miterlimit="10" stroke-dasharray="none" stroke-opacity="" data-original="#000000" class=""></path><path d="M0 0v0c-10.065-10.065-10.065-26.385 0-36.45l-14.496 14.496c-10.066 10.065-26.385 10.065-36.451 0-10.066-10.066-10.066-26.386 0-36.451-10.066 10.065-26.385 10.065-36.451 0-10.065-10.066-10.065-26.385 0-36.451l-80.549 80.548c-10.065 10.067-26.385 10.067-36.45 0-10.066-10.065-10.066-26.384 0-36.45l68.781-68.781 89.239-89.239-58.074 14.091c-14.277 3.465-28.709-5.098-32.511-19.289-3.667-13.685 3.846-27.882 17.225-32.547l95.475-33.289c45.907-16.005 96.924-4.332 131.302 30.045v.001c49.478 49.479 49.478 129.699 0 179.178L36.451 0C26.385 10.066 10.065 10.066 0 0Z" style="stroke-width: 25; stroke-linecap: round; stroke-linejoin: round; stroke-miterlimit: 10; stroke-dasharray: none; stroke-opacity: 1;" transform="translate(357.852 296.878)" fill="none" stroke="#ffffff" stroke-width="25" stroke-linecap="round" stroke-linejoin="round" stroke-miterlimit="10" stroke-dasharray="none" stroke-opacity="" data-original="#000000" class=""></path><path d="m0 0 49.526-49.525" style="stroke-width: 25; stroke-linecap: round; stroke-linejoin: round; stroke-miterlimit: 10; stroke-dasharray: none; stroke-opacity: 1;" transform="translate(270.454 202.022)" fill="none" stroke="#ffffff" stroke-width="25" stroke-linecap="round" stroke-linejoin="round" stroke-miterlimit="10" stroke-dasharray="none" stroke-opacity="" data-original="#000000" class=""></path><path d="m0 0 52.1-52.1" style="stroke-width: 25; stroke-linecap: round; stroke-linejoin: round; stroke-miterlimit: 10; stroke-dasharray: none; stroke-opacity: 1;" transform="translate(306.904 238.473)" fill="none" stroke="#ffffff" stroke-width="25" stroke-linecap="round" stroke-linejoin="round" stroke-miterlimit="10" stroke-dasharray="none" stroke-opacity="" data-original="#000000" class=""></path><path d="m0 0 38.081-38.081" style="stroke-width: 25; stroke-linecap: round; stroke-linejoin: round; stroke-miterlimit: 10; stroke-dasharray: none; stroke-opacity: 1;" transform="translate(357.852 260.428)" fill="none" stroke="#ffffff" stroke-width="25" stroke-linecap="round" stroke-linejoin="round" stroke-miterlimit="10" stroke-dasharray="none" stroke-opacity="" data-original="#000000" class=""></path><path d="M0 0c37.022 37.021 97.047 37.021 134.069 0" style="stroke-width: 25; stroke-linecap: round; stroke-linejoin: round; stroke-miterlimit: 10; stroke-dasharray: none; stroke-opacity: 1;" transform="translate(100.881 356.234)" fill="none" stroke="#ffffff" stroke-width="25" stroke-linecap="round" stroke-linejoin="round" stroke-miterlimit="10" stroke-dasharray="none" stroke-opacity="" data-original="#000000" class=""></path><path d="M0 0c18.77 18.77 49.201 18.77 67.97 0" style="stroke-width: 25; stroke-linecap: round; stroke-linejoin: round; stroke-miterlimit: 10; stroke-dasharray: none; stroke-opacity: 1;" transform="translate(133.931 323.185)" fill="none" stroke="#ffffff" stroke-width="25" stroke-linecap="round" stroke-linejoin="round" stroke-miterlimit="10" stroke-dasharray="none" stroke-opacity="" data-original="#000000" class=""></path><path d="M0 0v0" style="stroke-width: 25; stroke-linecap: round; stroke-linejoin: round; stroke-miterlimit: 10; stroke-dasharray: none; stroke-opacity: 1;" transform="translate(10 256.001)" fill="none" stroke="#ffffff" stroke-width="25" stroke-linecap="round" stroke-linejoin="round" stroke-miterlimit="10" stroke-dasharray="none" stroke-opacity="" data-original="#000000" class=""></path></g></g></svg>