<svg xmlns="http://www.w3.org/2000/svg" version="1.1" xmlns:xlink="http://www.w3.org/1999/xlink" xmlns:svgjs="http://svgjs.com/svgjs" width="512" height="512" x="0" y="0" viewBox="0 0 512 512" style="enable-background:new 0 0 512 512" xml:space="preserve"><g><path d="M291 146h183.5c16.569 0 30 13.431 30 30v106.192M504.5 317.192V336c0 16.569-13.431 30-30 30h-437c-16.569 0-30-13.431-30-30V176c0-16.569 13.431-30 30-30H256" style="stroke-width: 19; stroke-linecap: round; stroke-linejoin: round; stroke-miterlimit: 10;" fill="none" stroke="#000000" stroke-width="19" stroke-linecap="round" stroke-linejoin="round" stroke-miterlimit="10" data-original="#000000"></path><path d="M37.5 210.801V176h437v160h-437v-90.199" style="stroke-width: 19; stroke-linecap: round; stroke-linejoin: round; stroke-miterlimit: 10;" fill="none" stroke="#000000" stroke-width="19" stroke-linecap="round" stroke-linejoin="round" stroke-miterlimit="10" data-original="#000000"></path><path d="m84.594 283.5 20.531-53.909c.25-.657.88-1.091 1.584-1.091h0c.705 0 1.336.437 1.585 1.096l20.343 53.904M91.126 269.802h31.083M186.18 241.163c0 6.994-5.669 12.685-12.663 12.685h-15.986V228.5h15.986c6.994 0 12.663 5.669 12.663 12.663zM191.122 268.654c0 8.181-6.632 14.846-14.813 14.846h-18.777v-29.652h18.777c8.181 0 14.813 6.625 14.813 14.806zM260.802 233.197a27.374 27.374 0 0 0-15.376-4.697c-15.188 0-27.5 12.312-27.5 27.5s12.312 27.5 27.5 27.5c6.168 0 11.242-2.031 15.093-5.46a22.084 22.084 0 0 0 2.232-2.303M285.398 228.67h11.683v54.66M356.925 283.33h-27.402l19.14-27.146c4.09-6.162 6.532-10.469 5.766-16.199-.887-6.635-6.778-11.315-13.543-11.315-6.687 0-12.26 4.77-13.501 11.093M388.715 228.5l38.691 55M424.684 228.5l-38.746 55" style="stroke-width: 19; stroke-linecap: round; stroke-linejoin: round; stroke-miterlimit: 10;" fill="none" stroke="#000000" stroke-width="19" stroke-linecap="round" stroke-linejoin="round" stroke-miterlimit="10" data-original="#000000"></path></g></svg>