<svg xmlns="http://www.w3.org/2000/svg" version="1.1" xmlns:xlink="http://www.w3.org/1999/xlink" xmlns:svgjs="http://svgjs.com/svgjs" width="512" height="512" x="0" y="0" viewBox="0 0 496 496" style="enable-background:new 0 0 512 512" xml:space="preserve"><g><path d="M480 0H16C7.176 0 0 7.176 0 16v288c0 8.824 7.176 16 16 16h464c8.824 0 16-7.176 16-16V16c0-8.824-7.176-16-16-16zm-.023 304H16V16h464zm0 0" fill="#ffffff" data-original="#000000"></path><path d="M464 32H32v256h432zm-16 240H48V48h400zm0 0" fill="#ffffff" data-original="#000000"></path><path d="M416 64h16v16h-16zM64 64h16v16H64zM416 240h16v16h-16zM64 240h16v16H64zM72 176c0 10.594 4.145 20.633 11.742 28.336C91.375 211.856 101.414 216 112 216c22.055 0 40-17.945 40-40h-16c0 13.23-10.77 24-24 24-6.36 0-12.406-2.504-16.945-6.977C90.504 188.406 88 182.36 88 176v-32c0-13.23 10.77-24 24-24 6.36 0 12.406 2.504 16.945 6.977C133.496 131.594 136 137.64 136 144h16c0-10.594-4.145-20.633-11.742-28.336C132.625 108.144 122.586 104 112 104c-22.055 0-40 17.945-40 40zM168 152h48v16h-48zM264 128v16c0 4.406-3.586 8-8 8h-24v16h24c4.414 0 8 3.594 8 8v16c0 4.406-3.586 8-8 8h-40v16h40c13.23 0 24-10.77 24-24v-16c0-6.168-2.406-11.742-6.238-16 3.84-4.258 6.238-9.832 6.238-16v-16c0-13.23-10.77-24-24-24h-40v16h40c4.414 0 8 3.594 8 8zM360 200h-44.688l31.063-31.063C355.031 160.281 360 148.274 360 136c0-8.535-3.328-16.566-9.383-22.617-6.05-6.047-14.09-9.383-22.617-9.383-17.648 0-32 14.352-32 32v8h16v-8c0-8.824 7.176-16 16-16 4.258 0 8.273 1.664 11.305 4.695S344 131.735 344 136c0 8.063-3.258 15.945-8.938 21.625L296 196.688V216h64zM424 200h-16v-96h-32v16h16v80h-16v16h48zm0 0" fill="#ffffff" data-original="#000000"></path></g></svg>