<svg xmlns="http://www.w3.org/2000/svg" version="1.1" xmlns:xlink="http://www.w3.org/1999/xlink" xmlns:svgjs="http://svgjs.com/svgjs" width="512" height="512" x="0" y="0" viewBox="0 0 682.667 682.667" style="enable-background:new 0 0 512 512" xml:space="preserve" class=""><g><defs stroke-width="24" style="stroke-width: 24;"><clipPath id="a" clipPathUnits="userSpaceOnUse" stroke-width="24" style="stroke-width: 24;"><path d="M0 512h512V0H0Z" fill="#ffffff" data-original="#000000" class="" stroke-width="24" style="stroke-width: 24;"></path></clipPath></defs><g clip-path="url(#a)" transform="matrix(1.33333 0 0 -1.33333 0 682.667)" stroke-width="24" style="stroke-width: 24;"><path d="M0 0c0-10.33-5.32-20.189-14.03-25.77-7.17-4.589-14.93-4.82-23.13-4.83h-202.88v137.73c4.46.761 8.79 2.2 12.83 4.28l78.83 51.41c15.109 7.75 33.3 6.241 46.9-3.929l62.34-40.101h-12.68L-77.5 99.38V79.07l-42.56.26c-13.291 0-24.371-11.1-24.371-24.38 0-13.45 10.91-24.359 24.361-24.37l42.57.011h38.729c3.471-.04 6.971.159 10.431-.091C-12.563 29.352 0 15.796 0 0Z" style="stroke-width: 24; stroke-linecap: round; stroke-linejoin: round; stroke-miterlimit: 10; stroke-dasharray: none; stroke-opacity: 1;" transform="translate(312.37 334.27)" fill="none" stroke="#ffffff" stroke-width="24" stroke-linecap="round" stroke-linejoin="round" stroke-miterlimit="10" stroke-dasharray="none" stroke-opacity="" data-original="#000000" class=""></path><path d="m0 0 19.216-6.657a151.62 151.62 0 0 1 70.43-6.909l118.62 16.46h28.089v111.979l-2.629 1.28c-47.33 28.19-72.871 29.65-117.531 10.16h-64.25c-17.299 0-31.33-14.03-31.33-31.33 0-8.65 3.511-16.48 9.181-22.15 5.67-5.67 13.5-9.18 22.149-9.18h64.25v-.04H14.855l-108.669 31.18c-15.23 4.37-31.2-4.09-36.121-19.16a29.543 29.543 0 0 1-1.46-9.16c0-12.21 7.651-23.61 19.821-27.82l28.498-9.873" style="stroke-width: 24; stroke-linecap: round; stroke-linejoin: round; stroke-miterlimit: 10; stroke-dasharray: none; stroke-opacity: 1;" transform="translate(207.324 38.928)" fill="none" stroke="#ffffff" stroke-width="24" stroke-linecap="round" stroke-linejoin="round" stroke-miterlimit="10" stroke-dasharray="none" stroke-opacity="" data-original="#000000" class=""></path><path d="M0 0v-90.279h-32.06c-3.661 11.848-14.6 20.5-26.96 21.399-3.459.25-6.959.051-10.43.091h-38.73V0l25.68 19.41h53.94z" style="stroke-width: 24; stroke-linecap: round; stroke-linejoin: round; stroke-miterlimit: 10; stroke-dasharray: none; stroke-opacity: 1;" transform="translate(343.05 433.65)" fill="none" stroke="#ffffff" stroke-width="24" stroke-linecap="round" stroke-linejoin="round" stroke-miterlimit="10" stroke-dasharray="none" stroke-opacity="" data-original="#000000" class=""></path><path d="M72.327 303.667H10v149.394h62.327z" style="stroke-width: 24; stroke-linecap: round; stroke-linejoin: round; stroke-miterlimit: 10; stroke-dasharray: none; stroke-opacity: 1;" fill="none" stroke="#ffffff" stroke-width="24" stroke-linecap="round" stroke-linejoin="round" stroke-miterlimit="10" stroke-dasharray="none" stroke-opacity="" data-original="#000000" class=""></path><path d="M72.327 303.667H10v149.394h62.327zM502 9.999h-58.322v143.807H502Z" style="stroke-width: 24; stroke-linecap: round; stroke-linejoin: round; stroke-miterlimit: 10; stroke-dasharray: none; stroke-opacity: 1;" fill="none" stroke="#ffffff" stroke-width="24" stroke-linecap="round" stroke-linejoin="round" stroke-miterlimit="10" stroke-dasharray="none" stroke-opacity="" data-original="#000000" class=""></path><path d="M0 0v-122.69h-26.261c1.111 0-19.969 16.639-19.969 16.639v82.401h9.879c8.201.009 15.96.24 23.13 4.83C-6.5-14.511-1.791-7.66 0 0Z" style="stroke-width: 24; stroke-linecap: round; stroke-linejoin: round; stroke-miterlimit: 10; stroke-dasharray: none; stroke-opacity: 1;" transform="translate(311.56 327.321)" fill="none" stroke="#ffffff" stroke-width="24" stroke-linecap="round" stroke-linejoin="round" stroke-miterlimit="10" stroke-dasharray="none" stroke-opacity="" data-original="#000000" class=""></path><path d="M0 0v0" style="stroke-width: 24; stroke-linecap: round; stroke-linejoin: round; stroke-miterlimit: 10; stroke-dasharray: none; stroke-opacity: 1;" transform="translate(288.962 412.541)" fill="none" stroke="#ffffff" stroke-width="24" stroke-linecap="round" stroke-linejoin="round" stroke-miterlimit="10" stroke-dasharray="none" stroke-opacity="" data-original="#000000" class=""></path><path d="M0 0v0" style="stroke-width: 24; stroke-linecap: round; stroke-linejoin: round; stroke-miterlimit: 10; stroke-dasharray: none; stroke-opacity: 1;" transform="translate(165.406 53.418)" fill="none" stroke="#ffffff" stroke-width="24" stroke-linecap="round" stroke-linejoin="round" stroke-miterlimit="10" stroke-dasharray="none" stroke-opacity="" data-original="#000000" class=""></path></g></g></svg>