<svg xmlns="http://www.w3.org/2000/svg" version="1.1" xmlns:xlink="http://www.w3.org/1999/xlink" xmlns:svgjs="http://svgjs.com/svgjs" width="512" height="512" x="0" y="0" viewBox="0 0 511.996 511.996" style="enable-background:new 0 0 512 512" xml:space="preserve"><g><path d="M504.496 257.654v107.527c0 8.284-6.716 15-15 15H22.5c-8.284 0-15-6.716-15-15V146.815c0-8.284 6.716-15 15-15h95.909M151.095 131.815h338.401c8.284 0 15 6.716 15 15v78.12" style="stroke-width:15;stroke-linecap:round;stroke-linejoin:round;stroke-miterlimit:10;" fill="none" stroke="#ffffff" stroke-width="15" stroke-linecap="round" stroke-linejoin="round" stroke-miterlimit="10" data-original="#000000"></path><path d="M208.593 349.384H48.562c-5.523 0-10-4.477-10-10V172.878c0-5.523 4.477-10 10-10h414.872c5.523 0 10 4.477 10 10v166.506c0 5.523-4.477 10-10 10H241.279" style="stroke-width:15;stroke-linecap:round;stroke-linejoin:round;stroke-miterlimit:10;" fill="none" stroke="#ffffff" stroke-width="15" stroke-linecap="round" stroke-linejoin="round" stroke-miterlimit="10" data-original="#000000"></path><path d="M251.305 231.396a28.587 28.587 0 0 0-16.058-4.905c-15.862 0-28.72 12.859-28.72 28.72s12.859 28.72 28.72 28.72c6.442 0 11.741-2.121 15.763-5.703a23.14 23.14 0 0 0 2.331-2.405M69.777 284.781l21.552-56.588c.44-1.077 1.965-1.078 2.407-.002l21.356 56.591M76.499 270.687h31.981M173.141 239.742c0 7.294-5.913 13.207-13.207 13.207-3.617 0-16.672.058-16.672.058v-26.472h16.672c7.294 0 13.207 5.913 13.207 13.207z" style="stroke-width:15;stroke-linecap:round;stroke-linejoin:round;stroke-miterlimit:10;" fill="none" stroke="#ffffff" stroke-width="15" stroke-linecap="round" stroke-linejoin="round" stroke-miterlimit="10" data-original="#000000"></path><path d="M178.295 268.414c0 8.532-6.917 15.449-15.449 15.449-4.232 0-19.584.068-19.584.068v-30.967h19.584c8.532.001 15.449 6.918 15.449 15.45zM429.84 227.172h12.379v57.917M404.416 285.522s-28.179.354-29.514-.091c-1.335-.445 2.14-2.795 20.615-29.192 3.45-4.93 5.35-9.089 6.157-12.573l.286-2.24c0-8.185-6.635-14.82-14.82-14.82-7.202 0-13.204 5.137-14.542 11.947M313.928 238.438c1.338-6.81 7.34-11.947 14.542-11.947 8.185 0 14.82 6.635 14.82 14.82s-6.635 14.82-14.82 14.82M328.47 256.131c8.185 0 14.82 6.635 14.82 14.82s-6.635 14.82-14.82 14.82c-7.483 0-13.671-5.546-14.677-12.753a15.001 15.001 0 0 1-.143-2.067M272.207 253.008h17.401M69.625 193.94h0M442.372 193.94h0M442.372 318.322h0M69.625 318.322h0M69.625 380.181v-30.797M442.372 349.384v30.797M442.372 131.815v31.063M69.625 162.878v-31.063M7.5 193.94h31.062M38.562 318.189H7.5M504.496 318.322h-31.062M473.434 193.94h31.062M100.687 193.94h310.622M100.687 318.322h310.622" style="stroke-width:15;stroke-linecap:round;stroke-linejoin:round;stroke-miterlimit:10;" fill="none" stroke="#ffffff" stroke-width="15" stroke-linecap="round" stroke-linejoin="round" stroke-miterlimit="10" data-original="#000000"></path></g></svg>