<svg xmlns="http://www.w3.org/2000/svg" version="1.1" xmlns:xlink="http://www.w3.org/1999/xlink" xmlns:svgjs="http://svgjs.com/svgjs" width="512" height="512" x="0" y="0" viewBox="0 0 512 512" style="enable-background:new 0 0 512 512" xml:space="preserve" class=""><g><path d="M239.656 420.335c-22.846-9.826-33.388-36.271-23.557-59.124l25.907-60.231h-40.362c-32.726 0-54.49-33.833-40.984-63.6l55.798-122.971c10.254-22.596 36.978-32.637 59.58-22.387 22.65 10.279 32.668 36.927 22.386 59.581l-26.938 59.367h38.869c32.336 0 54.104 33.117 41.342 62.788l-52.914 123.018c-9.839 22.882-36.341 33.363-59.127 23.559zm4.124-293.527-55.797 122.969c-4.506 9.934 2.765 21.2 13.662 21.2h63.145c10.774 0 18.033 11.046 13.781 20.929l-34.909 81.16c-3.276 7.617.235 16.431 7.852 19.708 7.68 3.302 16.458-.293 19.709-7.852l52.914-123.018c4.259-9.9-3.014-20.93-13.781-20.93h-62.149c-10.898 0-18.162-11.284-13.661-21.201l36.558-80.568c3.426-7.551.088-16.433-7.463-19.861-7.526-3.414-16.44-.074-19.861 7.464zM256 57.77c-8.285 0-15.002-6.717-15.002-15.002V15.002C240.998 6.717 247.715 0 256 0s15.002 6.717 15.002 15.002v27.767c0 8.285-6.717 15.001-15.002 15.001zM136.392 78.837 122.51 54.79c-4.143-7.176-1.684-16.35 5.491-20.493 7.174-4.144 16.349-1.686 20.493 5.491l13.882 24.047c4.143 7.176 1.684 16.35-5.491 20.493s-16.35 1.685-20.493-5.491zM63.835 162.375l-24.047-13.882c-7.175-4.142-9.634-13.317-5.491-20.493 4.141-7.176 13.314-9.635 20.493-5.491l24.047 13.882c7.175 4.142 9.634 13.317 5.491 20.492-4.138 7.17-13.309 9.639-20.493 5.492zM42.768 271.002H15.002C6.717 271.002 0 264.285 0 256s6.717-15.002 15.002-15.002h27.767c8.285 0 15.002 6.717 15.002 15.002s-6.717 15.002-15.003 15.002zM34.298 384c-4.143-7.176-1.684-16.35 5.491-20.492l24.047-13.882c7.175-4.143 16.35-1.686 20.493 5.491 4.143 7.176 1.684 16.35-5.491 20.493L54.79 389.49c-7.174 4.144-16.349 1.686-20.492-5.49zM128 477.702c-7.175-4.142-9.634-13.317-5.491-20.493l13.882-24.047c4.141-7.175 13.314-9.636 20.492-5.491 7.175 4.142 9.634 13.317 5.491 20.493l-13.882 24.047c-4.137 7.169-13.308 9.638-20.492 5.491zM256 512c-8.285 0-15.002-6.717-15.002-15.002v-27.767c0-8.285 6.717-15.002 15.002-15.002s15.002 6.717 15.002 15.002v27.767c0 8.285-6.717 15.002-15.002 15.002zM363.507 472.211l-13.882-24.047c-4.143-7.176-1.684-16.35 5.491-20.493 7.176-4.144 16.349-1.686 20.493 5.491l13.882 24.047c4.143 7.176 1.684 16.35-5.491 20.493-7.175 4.144-16.35 1.686-20.493-5.491zM457.21 389.49l-24.047-13.882c-7.175-4.142-9.634-13.317-5.491-20.493 4.141-7.175 13.314-9.635 20.493-5.491l24.047 13.882c7.175 4.142 9.634 13.317 5.491 20.492-4.139 7.17-13.309 9.639-20.493 5.492zM496.998 271.002h-27.767c-8.285 0-15.002-6.717-15.002-15.002s6.717-15.002 15.002-15.002h27.767c8.285 0 15.002 6.717 15.002 15.002s-6.717 15.002-15.002 15.002zM427.672 156.885c-4.143-7.176-1.684-16.35 5.491-20.492l24.047-13.882c7.175-4.143 16.349-1.685 20.493 5.491s1.684 16.35-5.491 20.493l-24.047 13.882c-7.175 4.142-16.35 1.684-20.493-5.492zM355.115 84.328c-7.175-4.142-9.634-13.317-5.491-20.493l13.882-24.047c4.141-7.176 13.313-9.636 20.492-5.491 7.175 4.142 9.634 13.317 5.491 20.493l-13.882 24.047c-4.137 7.168-13.308 9.638-20.492 5.491z" fill="#ffffff" data-original="#000000" class=""></path></g></svg>