<svg xmlns="http://www.w3.org/2000/svg" version="1.1" xmlns:xlink="http://www.w3.org/1999/xlink" xmlns:svgjs="http://svgjs.com/svgjs" width="512" height="512" x="0" y="0" viewBox="0 0 512 512" style="enable-background:new 0 0 512 512" xml:space="preserve" class=""><g><path d="M15 127.667h482v256.667H15z" style="stroke-width: 26; stroke-linecap: square; stroke-miterlimit: 10;" fill="none" stroke="#ffffff" stroke-width="26" stroke-linecap="square" stroke-miterlimit="10" data-original="#000000"></path><path d="M276.627 127.667 67.353 58.61l-22.647 68.63M235.373 384.333l209.274 69.057 22.788-69.057" style="stroke-width: 26; stroke-miterlimit: 10;" fill="none" stroke="#ffffff" stroke-width="26" stroke-miterlimit="10" data-original="#000000"></path><path d="M77 127.667c0 34.242-27.758 62-62 62M497 189.667c-34.242 0-62-27.758-62-62M15 322.333c34.242 0 62 27.758 62 62M435 384.333c0-34.242 27.758-62 62-62" style="stroke-width: 26; stroke-linecap: square; stroke-miterlimit: 10;" fill="none" stroke="#ffffff" stroke-width="26" stroke-linecap="square" stroke-miterlimit="10" data-original="#000000"></path><circle cx="256" cy="256" r="62.333" style="stroke-width: 26; stroke-linecap: square; stroke-miterlimit: 10;" fill="none" stroke="#ffffff" stroke-width="26" stroke-linecap="square" stroke-miterlimit="10" data-original="#000000"></circle><path d="M118 256H94.667M418.667 256h-23.334" style="stroke-width: 26; stroke-linecap: square; stroke-miterlimit: 10;" fill="none" stroke="#ffffff" stroke-width="26" stroke-linecap="square" stroke-miterlimit="10" data-original="#000000"></path></g></svg>