<svg xmlns="http://www.w3.org/2000/svg" version="1.1" xmlns:xlink="http://www.w3.org/1999/xlink" xmlns:svgjs="http://svgjs.com/svgjs" width="512" height="512" x="0" y="0" viewBox="0 0 682.667 682.667" style="enable-background:new 0 0 512 512" xml:space="preserve"><g><defs stroke-width="26" style="stroke-width: 26;"><clipPath id="a" clipPathUnits="userSpaceOnUse" stroke-width="26" style="stroke-width: 26;"><path d="M0 512h512V0H0Z" fill="#ffffff" data-original="#000000" stroke-width="26" style="stroke-width: 26;"></path></clipPath></defs><g clip-path="url(#a)" transform="matrix(1.33333 0 0 -1.33333 0 682.667)" stroke-width="26" style="stroke-width: 26;"><path d="M0 0c-68.093-14.26-119.234-74.64-119.234-146.97 0-82.935 67.232-150.167 150.167-150.167 65.609 0 121.381 42.08 141.824 100.72" style="stroke-width: 26; stroke-linecap: round; stroke-linejoin: round; stroke-miterlimit: 10; stroke-dasharray: none; stroke-opacity: 1;" transform="translate(174.302 312.068)" fill="none" stroke="#ffffff" stroke-width="26" stroke-linecap="round" stroke-linejoin="round" stroke-miterlimit="10" stroke-dasharray="none" stroke-opacity="" data-original="#000000"></path><path d="M0 0c0-22.091-17.909-40-40-40S-80-22.091-80 0s17.909 40 40 40S0 22.091 0 0Z" style="stroke-width: 26; stroke-linecap: round; stroke-linejoin: round; stroke-miterlimit: 10; stroke-dasharray: none; stroke-opacity: 1;" transform="translate(242.879 457.069)" fill="none" stroke="#ffffff" stroke-width="26" stroke-linecap="round" stroke-linejoin="round" stroke-miterlimit="10" stroke-dasharray="none" stroke-opacity="" data-original="#000000"></path><path d="m0 0-108.375 108.375h-105.469v60.754h106.285c16.568 0 30 13.431 30 30 0 16.568-13.432 30-30 30h-106.285v28.622c0 16.347-12.817 30.165-29.157 30.613-16.954.464-30.843-13.14-30.843-29.989v-190c0-11.046 8.954-20 20-20h120.616l90.801-90.802c11.716-11.715 30.711-11.715 42.427 0v0C11.715-30.711 11.715-11.716 0 0Z" style="stroke-width: 26; stroke-linecap: round; stroke-linejoin: round; stroke-miterlimit: 10; stroke-dasharray: none; stroke-opacity: 1;" transform="translate(448.146 99.417)" fill="none" stroke="#ffffff" stroke-width="26" stroke-linecap="round" stroke-linejoin="round" stroke-miterlimit="10" stroke-dasharray="none" stroke-opacity="" data-original="#000000"></path></g></g></svg>