<svg xmlns="http://www.w3.org/2000/svg" version="1.1" xmlns:xlink="http://www.w3.org/1999/xlink" xmlns:svgjs="http://svgjs.com/svgjs" width="512" height="512" x="0" y="0" viewBox="0 0 512 512" style="enable-background:new 0 0 512 512" xml:space="preserve" class=""><g><path d="m419.274 326.297 29.38 46.545L502 386.401l-35.188 42.325 3.59 54.925-51.128-20.387-51.127 20.387 3.59-54.925-35.188-42.325 53.346-13.559zM88.268 63.449h0M50.519 63.449h0M419.161 215.946h0M419.161 98.548v-45.18c0-13.817-11.201-25.019-25.019-25.019H35.019C21.201 28.349 10 39.55 10 53.368v45.18h409.161z" style="stroke-width: 25; stroke-linecap: round; stroke-linejoin: round; stroke-miterlimit: 10;" fill="none" stroke="#ffffff" stroke-width="25" stroke-linecap="round" stroke-linejoin="round" stroke-miterlimit="10" data-original="#000000" class=""></path><path d="M419.162 171.104V98.553H10.004v308.589c0 13.821 11.201 25.022 25.022 25.022h336.492l.22-3.44-35.194-42.324 53.355-13.561 29.263-46.374v-67.364" style="stroke-width: 25; stroke-linecap: round; stroke-linejoin: round; stroke-miterlimit: 10;" fill="none" stroke="#ffffff" stroke-width="25" stroke-linecap="round" stroke-linejoin="round" stroke-miterlimit="10" data-original="#000000" class=""></path><path d="M118.215 194.002h0c-13.075 0-23.674-10.599-23.674-23.674v-4.629c0-13.075 10.599-23.674 23.674-23.674h0c13.075 0 23.674 10.599 23.674 23.674v4.629c0 13.075-10.599 23.674-23.674 23.674zM165.672 221.266v20.622H70.763v-20.622c0-15.061 12.201-27.263 27.263-27.263h40.384c15.06.001 27.262 12.202 27.262 27.263zM118.215 336.915h0c-13.075 0-23.674-10.599-23.674-23.674v-4.629c0-13.075 10.599-23.674 23.674-23.674h0c13.075 0 23.674 10.599 23.674 23.674v4.629c0 13.075-10.599 23.674-23.674 23.674zM165.672 364.179v20.622H70.763v-20.622c0-15.061 12.201-27.263 27.263-27.263h40.384c15.06 0 27.262 12.201 27.262 27.263zM218.426 165.262h137.132M218.426 208.511h68.566M218.426 315.29h137.132M218.426 358.539h68.566" style="stroke-width: 25; stroke-linecap: round; stroke-linejoin: round; stroke-miterlimit: 10;" fill="none" stroke="#ffffff" stroke-width="25" stroke-linecap="round" stroke-linejoin="round" stroke-miterlimit="10" data-original="#000000" class=""></path></g></svg>