<svg xmlns="http://www.w3.org/2000/svg" version="1.1" xmlns:xlink="http://www.w3.org/1999/xlink" xmlns:svgjs="http://svgjs.com/svgjs" width="512" height="512" x="0" y="0" viewBox="0 0 512 512" style="enable-background:new 0 0 512 512" xml:space="preserve" class=""><g><path fill="#7a6d79" d="M304.464 117.326h43.271v58.39h-43.271zM164.265 110.704h43.271v75.012h-43.271z" data-original="#7a6d79"></path><path fill="#ffffff" d="m25.453 462.727 98.623 15.861-20.23-240.176-64.791-25.014c-6.552-2.53-13.602 2.306-13.602 9.329z" data-original="#ecf4fe" class=""></path><path fill="#ffffff" d="m103.846 462.727 45.914 10-15.914-222.732-30-11.583z" data-original="#d9ebfe" class=""></path><path fill="#ffffff" d="m467.735 483.613-99.581-20.887 10-212.732 77.975-30.104 15.209 1.838c6.552-2.53 13.602 2.306 13.602 9.329z" data-original="#ecf4fe" class=""></path><path fill="#ffffff" d="m472.946 213.398-16.816 6.492c.262.894.418 1.84.418 2.836v250l30-10v-240c-.001-7.022-7.051-11.858-13.602-9.328z" data-original="#d9ebfe" class=""></path><path fill="#ffffff" d="M349.154 165.716H143.846c-5.523 0-10 4.477-10 10v32.431l10 91.403-10 67.409v96.002l225.309 15.627V175.716c-.001-5.523-4.478-10-10.001-10z" data-original="#fee97d" class=""></path><path fill="#ffffff" d="M368.154 165.716h-30c5.523 0 10 4.477 10 10v307.245l30-20v-96.002l-10-80.915 10-77.897v-32.431c.001-5.523-4.477-10-10-10z" data-original="#fedf30" class=""></path><path fill="#7a6d79" d="M290.177 483.613h-88.354V366.959l88.354-24.237 10 82.564z" data-original="#7a6d79"></path><path fill="#685e68" d="M290.177 366.959h20v116.655h-20z" data-original="#685e68" class=""></path><path fill="#ffffff" d="M395.983 7.5H106.017c-5.523 0-10 4.477-10 10v104.398c0 5.523 4.477 10 10 10h289.966c5.523 0 10-4.477 10-10V17.5c0-5.523-4.477-10-10-10z" data-original="#fe99a0" class=""></path><path fill="#ffffff" d="M405.983 7.5h-28.06c5.523 0 10 4.477 10 10v104.398c0 5.523-4.477 10-10 10h28.06c5.523 0 10-4.477 10-10V17.5c0-5.523-4.477-10-10-10z" data-original="#fd8087" class=""></path><path fill="#4a78af" d="M479.5 504.5h-467a5 5 0 0 1-5-5v-31.773a5 5 0 0 1 5-5h467a5 5 0 0 1 5 5V499.5a5 5 0 0 1-5 5z" data-original="#8795de" class=""></path><path fill="#395d87" d="M499.5 462.727h-30a5 5 0 0 1 5 5V499.5a5 5 0 0 1-5 5h30a5 5 0 0 0 5-5v-31.773a5 5 0 0 0-5-5z" data-original="#6c7fd8" class=""></path><path fill="#4a78af" d="M347.735 366.959h-43.517l-7.5-10-7.5 10h-66.436l-4.917-10-10.083 10h-73.936v-73.415l10-7.5-10-7.5v-70.397h73.936l7.5 10 7.5-10h66.436l7.5 10 7.5-10h43.517l10 77.897z" data-original="#8795de" class=""></path><path fill="#395d87" d="M348.155 208.146v158.813h30v-73.415l-10.001-7.5 10.001-7.5v-70.398z" data-original="#6c7fd8" class=""></path><path d="M259.098 37.516a8.836 8.836 0 0 0-8.201-5.495h-.01a8.838 8.838 0 0 0-8.265 5.68l-22.663 59.505a7.5 7.5 0 1 0 14.017 5.339l3.804-9.989h26.059l3.762 9.968c3.395 8.994 17.453 3.762 14.034-5.296l-22.457-59.507c-.025-.069-.053-.137-.08-.205zm-15.605 40.041 7.377-19.368 7.309 19.368zM183.127 32.036a8.88 8.88 0 0 0-9.01 6.372L163.265 76.48 152.01 38.332a8.875 8.875 0 0 0-9.079-6.287c-4.015.27-7.35 3.218-8.126 7.254l-10.608 58.774a7.5 7.5 0 0 0 14.762 2.664l6.006-33.278 9.916 33.61a8.846 8.846 0 0 0 8.485 6.307h.047a8.846 8.846 0 0 0 8.463-6.387l9.573-33.582 6.384 33.405c.778 4.069 4.708 6.739 8.774 5.959a7.5 7.5 0 0 0 5.959-8.774l-11.253-58.882a8.87 8.87 0 0 0-8.186-7.079zM306.386 32.021a7.5 7.5 0 0 0-7.5 7.5v60.304a7.5 7.5 0 0 0 6.234 7.392c.535.092.947.163 7.654.163 3.23 0 7.921-.017 14.789-.055a7.5 7.5 0 0 0-.041-15h-.043c-4.669.026-9.672.045-13.593.05V39.521a7.5 7.5 0 0 0-7.5-7.5zM359.289 32.021a7.5 7.5 0 0 0-7.5 7.5v60.304a7.5 7.5 0 0 0 6.234 7.392c.535.092.947.163 7.654.163 3.23 0 7.921-.017 14.789-.055a7.5 7.5 0 0 0-.041-15h-.043c-4.669.026-9.672.045-13.592.05V39.521a7.502 7.502 0 0 0-7.501-7.5z" fill="#000000" data-original="#000000" class=""></path><path d="M499.5 455.227h-5.453v-232.5a17.495 17.495 0 0 0-7.602-14.432 17.495 17.495 0 0 0-16.201-1.894l-84.59 32.658v-63.344c0-9.649-7.851-17.5-17.5-17.5h-12.919v-18.818h50.748c9.649 0 17.5-7.851 17.5-17.5V17.5c0-9.649-7.851-17.5-17.5-17.5H288.854a7.5 7.5 0 0 0 0 15h117.129c1.378 0 2.5 1.122 2.5 2.5v104.398c0 1.378-1.122 2.5-2.5 2.5H106.017a2.503 2.503 0 0 1-2.5-2.5V17.5c0-1.378 1.122-2.5 2.5-2.5H256a7.5 7.5 0 0 0 0-15H106.017c-9.649 0-17.5 7.851-17.5 17.5v104.398c0 9.649 7.851 17.5 17.5 17.5h50.748v18.818h-12.919c-9.649 0-17.5 7.851-17.5 17.5v63.344l-84.59-32.658c-5.383-2.079-11.441-1.371-16.201 1.894s-7.602 8.66-7.602 14.432v95.126a7.5 7.5 0 0 0 15 0v-95.126c0-1.145.681-1.783 1.086-2.062.406-.278 1.247-.683 2.314-.27l89.993 34.744v200.088H32.953V350.539a7.5 7.5 0 0 0-15 0v104.688H12.5c-6.893 0-12.5 5.607-12.5 12.5V499.5c0 6.893 5.607 12.5 12.5 12.5h487c6.893 0 12.5-5.607 12.5-12.5v-31.773c0-6.893-5.607-12.5-12.5-12.5zm-23.853-234.832c1.068-.413 1.908-.008 2.314.27.405.278 1.086.916 1.086 2.062v232.5h-93.393V255.138zm-157.97 234.832v-80.768h52.978v80.768zm-54.177 0v-80.768h39.177v80.768zm-54.177 0v-80.768H248.5v80.768zm79.895-239.581v13.907a7.5 7.5 0 0 0 15 0v-13.907h66.436v62.897h-66.436v-16.305a7.5 7.5 0 0 0-15 0v16.305h-66.437v-62.897zm-66.436 143.812v-65.915h66.437v65.915zm81.436 0v-65.915h66.436v65.915zm-96.436-80.914h-66.436v-62.897h66.436zm-66.436 15h66.436v65.915h-66.436zm198.889-135.328h-28.272v-18.818h28.272zm-125.199 0v-18.818h81.928v18.818zm-43.271-18.818h28.271v18.818h-28.271zm-27.919 33.818h224.309c1.378 0 2.5 1.122 2.5 2.5v24.931H141.346v-24.931c0-1.379 1.121-2.5 2.5-2.5zm-2.5 201.242h52.977v80.768h-52.977zM497 470.227V497H15v-26.773z" fill="#000000" data-original="#000000" class=""></path></g></svg>