<?xml version="1.0" encoding="utf-8"?>
<!-- Generator: Adobe Illustrator 24.1.2, SVG Export Plug-In . SVG Version: 6.00 Build 0)  -->
<svg version="1.1" xmlns="http://www.w3.org/2000/svg" xmlns:xlink="http://www.w3.org/1999/xlink" x="0px" y="0px"
	 viewBox="0 0 745.04 266.09" style="enable-background:new 0 0 745.04 266.09;" xml:space="preserve">
<style type="text/css">
	.st0{fill:#3C79B4;}
	.st1{fill:#05D3A8;}
</style>
<g id="Rectangle_8_copy_xA0_Image_1_">
</g>
<g id="Ticket_In_-_PAY_By_Phone">
	<g>
		<path class="st0" d="M590.13,211.55l-1.65-0.02v1.93h1.46c0.28,0,0.51-0.09,0.7-0.27s0.28-0.41,0.28-0.7
			C590.91,211.96,590.65,211.64,590.13,211.55z"/>
		<path class="st0" d="M590.56,207.49c0-0.3-0.09-0.52-0.28-0.68c-0.19-0.15-0.41-0.23-0.66-0.23h-1.15v1.82l1.34-0.02
			C590.31,208.31,590.56,208.01,590.56,207.49z"/>
		<path class="st0" d="M625.41,207.01h-1.39v2.2h1.39c0.27,0,0.49-0.1,0.68-0.3c0.19-0.2,0.28-0.47,0.28-0.8s-0.09-0.6-0.28-0.8
			S625.68,207.01,625.41,207.01z"/>
		<polygon class="st0" points="553.31,211.96 555.33,211.96 554.32,207.8 		"/>
		<path class="st0" d="M541.54,207.01h-1.39v2.2h1.39c0.27,0,0.49-0.1,0.68-0.3c0.19-0.2,0.28-0.47,0.28-0.8s-0.09-0.6-0.28-0.8
			S541.8,207.01,541.54,207.01z"/>
		<path class="st0" d="M692.73,38.01c-0.28-0.08-0.51-0.32-0.76-0.49c-210.88,0-421.76,0-632.64,0c-0.7,0.32-1.39,0.66-2.11,0.94
			c-4.23,1.69-6.96,4.72-8.21,9.09c-0.08,0.28-0.32,0.51-0.48,0.77c0,56.56,0,113.12,0,169.68c0.33,0.74,0.67,1.47,0.98,2.23
			c1.68,4.14,4.69,6.78,8.94,8.07c0.32,0.1,0.59,0.34,0.88,0.51c210.88,0,421.76,0,632.64,0c0.7-0.31,1.39-0.65,2.11-0.94
			c4.23-1.68,6.95-4.72,8.21-9.09c0.08-0.28,0.32-0.52,0.48-0.78c0-56.56,0-113.12,0-169.68c-0.31-0.71-0.64-1.41-0.93-2.12
			C700.14,41.98,697.1,39.27,692.73,38.01z M674.97,94.95c-7.24,6.82-14.29,13.47-21.46,20.23c-3.93-6.77-7.8-13.44-11.74-20.23
			C652.85,94.95,663.77,94.95,674.97,94.95z M402.1,94.96c12.42,0,24.83,0,37.39,0c0,32.45,0,64.83,0,97.29
			c-12.46,0-24.88,0-37.39,0C402.1,159.85,402.1,127.44,402.1,94.96z M381.89,47.25c0,57.27,0,114.55,0,171.82c0,1.6,0,1.6-1.64,1.6
			c-53.04,0-106.07,0-159.11,0c-52.84,0-105.67-0.01-158.51,0.02c-2.72,0-4.58-1.12-5.65-3.59c-0.17-0.39-0.24-0.84-0.31-1.26
			c-0.05-0.31-0.02-0.64-0.02-0.96c0-54.47,0.02-108.95-0.05-163.42c0-2.98,2.6-5.86,5.89-5.85c45.16,0.07,90.31,0.05,135.47,0.05
			c60.59,0,121.19,0,181.78,0c0.4,0,0.8,0.03,1.2,0c0.75-0.06,1.02,0.29,0.93,1C381.87,46.84,381.89,47.05,381.89,47.25z
			 M410.35,207.01h-2.87v9.77H404v-9.77h-2.87v-3.75h9.22V207.01z M418.35,216.78h-3.48v-13.52h3.48V216.78z M427.41,212.38
			c0.53,0.62,1.23,0.93,2.09,0.93c0.52,0,0.99-0.13,1.4-0.39c0.41-0.26,0.72-0.61,0.91-1.06l3.03,1.93
			c-0.53,1.02-1.28,1.82-2.23,2.42c-0.95,0.59-1.99,0.89-3.11,0.89c-1.83,0-3.35-0.68-4.56-2.03c-1.21-1.35-1.81-3.03-1.81-5.04
			s0.6-3.69,1.81-5.04c1.21-1.35,2.72-2.03,4.56-2.03c1.12,0,2.16,0.3,3.11,0.89c0.95,0.59,1.69,1.39,2.23,2.4l-3.03,1.93
			c-0.2-0.44-0.5-0.79-0.92-1.04c-0.42-0.26-0.88-0.39-1.39-0.39c-0.86,0-1.55,0.31-2.09,0.93s-0.8,1.4-0.8,2.36
			S426.87,211.76,427.41,212.38z M445.68,216.78l-3.03-5.79v5.79h-3.48v-13.52h3.48v5.4l2.85-5.4h3.86l-3.62,6.57l3.79,6.95H445.68z
			 M461.72,216.78h-8v-13.52h7.91v3.52h-4.43v1.47h4v3.48h-4v1.51h4.52V216.78z M475.11,207.01h-2.87v9.77h-3.48v-9.77h-2.87v-3.75
			h9.22V207.01z M453.58,171.94c-1.94,0.13-3.9,0.02-5.95,0.02c0-25.71,0-51.32,0-77.03c9.26-0.45,17.58,1.98,24.82,7.64
			c8.57,6.7,13.24,15.63,14.33,26.41c0.87,8.52-0.22,16.77-4.25,24.43C476.41,165.04,466.6,171.03,453.58,171.94z M490.06,216.78
			h-3.48v-13.52h3.48V216.78z M505.37,216.78h-2.78l-3.83-6.18v6.18h-3.48v-13.52h2.78l3.83,6.18v-6.18h3.48V216.78z M524.49,212.59
			h-6.96v-3.36h6.96V212.59z M544.7,211.64c-0.85,0.88-1.9,1.32-3.16,1.32h-1.39v3.82h-3.48v-13.52h4.87c1.26,0,2.32,0.44,3.16,1.32
			c0.85,0.88,1.27,2.06,1.27,3.53C545.97,209.58,545.55,210.76,544.7,211.64z M556.49,216.78l-0.42-1.74h-3.51l-0.42,1.74h-3.74
			l3.88-13.52h4.07l3.88,13.52H556.49z M569.57,211.65v5.14h-3.48v-5.14l-4.12-8.38h3.86l2,4.75l2-4.75h3.86L569.57,211.65z
			 M568.7,125.39c-6.93,4.37-15.79,1.76-19.75-5.7c-2.22-4.18-2.47-8.61-1.57-13.17c0.07-0.35,0.15-0.7,0.22-1.06
			c0.01-0.07,0-0.15-0.01-0.23c-0.11-0.09-0.22-0.18-0.33-0.26c-2.19,2.25-4.42,4.47-6.55,6.77c-0.31,0.33-0.29,1.05-0.29,1.59
			c-0.01,18.8-0.01,37.59-0.01,56.39c0,0.55,0,1.1,0,1.7c-12.49,0-24.83,0-37.24,0c0-25.48,0-50.93,0-76.46c12.38,0,24.75,0,37.26,0
			c0,3.63,0,7.2,0,10.84c2.13-1.91,4.08-3.79,6.17-5.5c3.84-3.14,8.18-5.13,13.25-5.14c8.82-0.02,15.55,6.38,15.96,15.19
			C576.1,116.62,574.18,121.92,568.7,125.39z M593.3,215.72c-0.73,0.71-1.78,1.06-3.16,1.06h-5.15v-13.52h4.83
			c1.37,0,2.41,0.33,3.13,0.99c0.72,0.66,1.08,1.6,1.08,2.82c0,1.17-0.41,2.09-1.22,2.74c1.04,0.66,1.56,1.66,1.56,2.99
			C594.39,214.04,594.02,215.01,593.3,215.72z M605.12,211.65v5.14h-3.48v-5.14l-4.12-8.38h3.86l2,4.75l2-4.75h3.86L605.12,211.65z
			 M628.58,211.64c-0.85,0.88-1.9,1.32-3.16,1.32h-1.39v3.82h-3.48v-13.52h4.87c1.26,0,2.32,0.44,3.16,1.32
			c0.85,0.88,1.27,2.06,1.27,3.53C629.84,209.58,629.42,210.76,628.58,211.64z M644.28,216.78h-3.48v-4.98h-2.96v4.98h-3.48v-13.52
			h3.48v4.79h2.96v-4.79h3.48V216.78z M660.09,215.06c-1.25,1.36-2.77,2.04-4.58,2.04s-3.34-0.68-4.58-2.04
			c-1.25-1.36-1.87-3.04-1.87-5.03s0.62-3.67,1.87-5.03c1.25-1.36,2.77-2.04,4.58-2.04s3.34,0.68,4.58,2.04
			c1.25,1.36,1.87,3.04,1.87,5.03S661.34,213.7,660.09,215.06z M645.12,171.51c-1.06,0-1.61-0.3-2.11-1.26
			c-4.7-9.07-9.46-18.12-14.21-27.17c-0.16-0.31-0.37-0.6-0.74-1.2c0,10.04,0,19.73,0,29.51c-12.47,0-24.81,0-37.24,0
			c0-34.48,0-68.97,0-103.55c12.38,0,24.76,0,37.28,0c0,23.74,0,47.5,0,71.6c8.63-8.24,16.97-16.21,25.41-24.27
			c11.19,18.76,22.33,37.43,33.58,56.31c-0.68,0-1.1,0-1.53,0C672.08,171.48,658.6,171.47,645.12,171.51z M676.83,216.78h-2.78
			l-3.83-6.18v6.18h-3.48v-13.52h2.78l3.83,6.18v-6.18h3.48V216.78z M690.05,216.78h-8v-13.52h7.91v3.52h-4.43v1.47h4v3.48h-4v1.51
			h4.52V216.78z"/>
		<path class="st0" d="M655.51,206.74c-0.86,0-1.57,0.31-2.13,0.94c-0.56,0.62-0.84,1.41-0.84,2.35c0,0.94,0.28,1.72,0.84,2.35
			c0.56,0.63,1.27,0.94,2.13,0.94c0.86,0,1.57-0.31,2.13-0.94c0.56-0.62,0.84-1.41,0.84-2.35c0-0.94-0.28-1.72-0.84-2.35
			C657.08,207.05,656.37,206.74,655.51,206.74z"/>
		<path class="st0" d="M154.39,114.83c-16.01-14.64-32.15-29.15-48.07-43.89c-2.68-2.48-5.2-3.43-8.79-3.02
			c-11.09,1.25-19.62,6.43-24.2,16.6c-5.73,12.74-3.92,25.05,4.24,36.33c5.08,7.03,11.43,12.91,17.75,18.8
			c12.09,11.28,25.22,21.29,38.27,31.41c0.26,0.21,0.64,0.39,0.96,0.39c6.59-0.01,12.89-1.13,18.44-4.98
			c9.16-6.37,13.25-15.35,13.56-27.4c-0.24-1.61-0.46-4.33-1.05-6.96C163.88,125.03,159.59,119.59,154.39,114.83z"/>
		<path class="st0" d="M326.2,171.38c12.6,0,25.09,0,37.59,0c0-34.56,0-69.02,0-103.55c-12.56,0-25.06,0-37.59,0
			C326.2,102.37,326.2,136.89,326.2,171.38z"/>
		<path class="st0" d="M181.14,192.22c12.54,0,24.99,0,37.44,0c0-32.47,0-64.85,0-97.28c-12.49,0-24.92,0-37.44,0
			C181.14,127.44,181.14,159.85,181.14,192.22z"/>
		<path class="st0" d="M226.69,94.95c0,25.69,0,51.3,0,77.01c2.03,0,3.99,0.1,5.93-0.02c10.96-0.68,20.08-5.08,26.32-14.23
			c8.06-11.81,9.25-24.81,4.76-38.14C258.4,103.8,242.88,93.72,226.69,94.95z"/>
		<path class="st1" d="M311,94.9c-8.11,0.95-15.26,4.15-20.72,10.24c-11.4,12.72-13.94,27.47-8.25,43.32
			c5,13.92,15.24,21.7,30.2,22.82c1.97,0.15,3.95,0.02,5.96,0.02c0-25.6,0-51.11,0-76.71c-0.44-0.02-0.83-0.07-1.22-0.05
			C314.99,94.64,312.98,94.67,311,94.9z"/>
		<path class="st0" d="M70.73,171.43c16.65,0,33.22,0,50.11,0c-16.81-14.64-33.39-29.08-50.11-43.64
			C70.73,142.5,70.73,156.94,70.73,171.43z"/>
		<path class="st0" d="M160.9,67.18c-15.39,0-30.7,0-46.27,0c15.49,14.14,30.8,28.12,46.27,42.24
			C160.9,95.14,160.9,81.17,160.9,67.18z"/>
	</g>
</g>
</svg>
