<svg xmlns="http://www.w3.org/2000/svg" version="1.1" xmlns:xlink="http://www.w3.org/1999/xlink" xmlns:svgjs="http://svgjs.com/svgjs" width="512" height="512" x="0" y="0" viewBox="0 0 512 512" style="enable-background:new 0 0 512 512" xml:space="preserve" class=""><g><path d="m136.118 103.922-56.67-20.113v44.65l56.671-20.113c2.082-.739 2.082-3.685-.001-4.424zM489.302 103.922l-56.671-20.113v44.65l56.671-20.113c2.083-.739 2.083-3.685 0-4.424zM312.67 85.635 256 65.521v44.65l56.671-20.113c2.082-.739 2.082-3.684-.001-4.423z" style="" fill="#ffffff" data-original="#ff4f6d" class=""></path><ellipse cx="256" cy="390.16" rx="247.75" ry="56.31" style="" fill="#ffffff" data-original="#2ecca6" class=""></ellipse><path d="M256 333.849c-7.449 0-14.816.079-22.098.225 126.472 2.542 225.649 26.681 225.649 56.09s-99.177 53.548-225.649 56.09c7.282.146 14.649.225 22.098.225 136.827 0 247.747-25.213 247.747-56.315S392.827 333.849 256 333.849z" style="" fill="#ffffff" data-original="#2ca888" class=""></path><path d="M504.511 212.279H7.489l39.425 171.017h.103c3.118 16.512 108.719 32.735 208.983 32.735s209.858-16.223 212.977-32.735h.103l35.431-171.017z" style="" fill="#ffffff" data-original="#e8e7d9" class=""></path><path d="m459.078 212.279-38.832 189.925c28.634-5.543 47.464-12.202 48.73-18.908h.103l35.431-171.017h-45.432z" style="" fill="#ffffff" data-original="#d1cfbd" class=""></path><ellipse cx="256" cy="212.28" rx="248.51" ry="61.725" style="" fill="#4a78af" data-original="#f9c861" class=""></ellipse><path d="M256 150.554c-7.446 0-14.81.086-22.089.245 126.899 2.777 226.422 29.239 226.422 61.479s-99.523 58.702-226.422 61.479c7.279.159 14.643.245 22.089.245 137.249 0 248.511-27.635 248.511-61.725S393.249 150.554 256 150.554z" style="" fill="#395d87" data-original="#f3a656" class=""></path><path d="M256 235.009c-68.242 0-123.564 13.741-123.564 30.69 0 .049.007.097.007.146 36.394 5.19 78.579 8.158 123.556 8.158s87.162-2.968 123.556-8.158c.001-.049.008-.097.008-.146 0-16.949-55.321-30.69-123.563-30.69z" style="" fill="#ffffff" data-original="#2ecca6" class=""></path><path d="M292.931 348.928h-73.862c-5.89 0-10.666 4.775-10.666 10.665v55.28a1009.77 1009.77 0 0 0 42.693 1.145c1.63.007 3.262.013 4.903.013H256c1.643 0 3.276-.006 4.909-.013 14.19-.074 28.527-.466 42.688-1.131v-55.293c-.001-5.891-4.776-10.666-10.666-10.666z" style="" fill="#395d87" data-original="#f3a656" class=""></path><path d="M166.077 319.589c9.21.881 18.721 1.631 28.27 2.232a7.49 7.49 0 0 0 7.944-7.004 7.49 7.49 0 0 0-7.004-7.944 861.218 861.218 0 0 1-27.785-2.193c-4.115-.397-7.774 2.626-8.167 6.742a7.488 7.488 0 0 0 6.742 8.167zM317.175 321.836c.158 0 .317-.005.477-.015a879.533 879.533 0 0 0 28.272-2.232 7.488 7.488 0 0 0 6.742-8.167 7.477 7.477 0 0 0-8.168-6.742 863.693 863.693 0 0 1-27.786 2.193 7.489 7.489 0 0 0 .463 14.963zM241.838 323.623a1026.533 1026.533 0 0 0 28.321 0 7.49 7.49 0 0 0 7.385-7.592c-.057-4.136-3.463-7.469-7.591-7.385-9.241.129-18.668.129-27.908 0-4.142-.076-7.534 3.25-7.592 7.385a7.49 7.49 0 0 0 7.385 7.592zM391.979 313.666c.399 0 .804-.032 1.212-.098 9.77-1.59 19.195-3.369 28.015-5.287a7.49 7.49 0 1 0-3.183-14.635c-8.564 1.862-17.728 3.591-27.239 5.138a7.489 7.489 0 0 0 1.195 14.882zM90.796 308.282c8.812 1.917 18.238 3.695 28.014 5.286a7.492 7.492 0 0 0 8.595-6.189 7.49 7.49 0 0 0-6.189-8.595c-9.517-1.548-18.68-3.277-27.237-5.138a7.486 7.486 0 0 0-8.909 5.726 7.489 7.489 0 0 0 5.726 8.91zM318.694 370.99a7.49 7.49 0 0 0 7.944 7.004 879.533 879.533 0 0 0 28.272-2.232 7.488 7.488 0 0 0 6.742-8.167 7.477 7.477 0 0 0-8.168-6.742 863.693 863.693 0 0 1-27.786 2.193 7.49 7.49 0 0 0-7.004 7.944zM157.091 375.763c9.21.881 18.721 1.631 28.27 2.232a7.49 7.49 0 0 0 7.944-7.004 7.49 7.49 0 0 0-7.004-7.944 861.218 861.218 0 0 1-27.785-2.193c-4.115-.397-7.774 2.626-8.167 6.742a7.488 7.488 0 0 0 6.742 8.167zM399.771 354.958a7.489 7.489 0 1 0 2.407 14.784c9.77-1.59 19.195-3.369 28.015-5.287a7.49 7.49 0 1 0-3.183-14.635c-8.563 1.862-17.727 3.59-27.239 5.138zM81.809 364.456c8.812 1.917 18.238 3.695 28.014 5.286a7.492 7.492 0 0 0 8.595-6.189 7.49 7.49 0 0 0-6.189-8.595c-9.517-1.548-18.68-3.277-27.237-5.138a7.486 7.486 0 0 0-8.909 5.726 7.49 7.49 0 0 0 5.726 8.91z" fill="#000000" data-original="#000000" class=""></path><path d="m481.829 358.67 28.548-137.794c1.071-2.8 1.623-5.666 1.623-8.597 0-11.177-7.815-21.434-23.226-30.484-6.933-4.071-15.398-7.905-25.29-11.48-.087-.03-.171-.066-.258-.093-7.001-2.52-14.722-4.909-23.128-7.158l.024.006v-29.322l51.685-18.344c3.916-1.39 6.547-5.115 6.547-9.27s-2.631-7.88-6.546-9.269l-56.67-20.113a7.49 7.49 0 0 0-9.994 7.057v75.567c-44.581-10.121-101.333-15.843-161.655-16.281V115.46l51.686-18.344a9.855 9.855 0 0 0 6.547-9.27 9.855 9.855 0 0 0-6.547-9.27h.001l-56.671-20.113a7.49 7.49 0 0 0-9.994 7.057v77.574c-60.315.438-117.059 6.158-161.638 16.277l.064-.015v-25.611l51.685-18.344c3.916-1.39 6.547-5.115 6.547-9.27s-2.631-7.88-6.546-9.269l-56.67-20.113a7.49 7.49 0 0 0-9.994 7.057v79.24c-20.454 5.465-36.835 11.759-48.733 18.746C7.815 190.845 0 201.101 0 212.279c0 3.245.68 6.411 1.992 9.494l31.242 135.522c-21.548 9.411-32.47 20.453-32.47 32.87 0 19.445 26.375 35.299 78.392 47.124 47.322 10.757 110.126 16.68 176.843 16.68 66.718 0 129.521-5.924 176.844-16.68 52.017-11.824 78.392-27.679 78.392-47.124.001-11.822-9.89-22.401-29.406-31.495zM440.121 94.413l33.022 11.72-33.022 11.72v-23.44zM263.488 76.126l33.023 11.72-33.023 11.72v-23.44zM86.937 94.413l33.022 11.72-33.022 11.72v-23.44zm342.981 81.488a335.1 335.1 0 0 1 13.778 3.731l-25.529 16.516a7.488 7.488 0 0 0 4.075 13.777 7.461 7.461 0 0 0 4.061-1.202l35.572-23.013c7.534 2.88 14.037 5.901 19.315 9 10.21 5.996 15.832 12.235 15.832 17.568 0 1.582-.507 3.245-1.469 4.956-1.842 3.175-6.702 8.827-19.386 15.348-11.522 5.869-27.348 11.379-46.249 16.074a426.728 426.728 0 0 1-7.537 1.791c-.359.082-.711.164-1.074.246-11.39 2.568-23.634 4.844-36.556 6.815-2.666-4.523-7.654-8.609-14.938-12.239l27.099-17.531a7.488 7.488 0 0 0 2.219-10.355 7.487 7.487 0 0 0-10.356-2.22l-36.359 23.522a177.582 177.582 0 0 0-7.239-1.954c-8.519-2.116-18.037-3.886-28.262-5.298l47.659-67.166c23.914 2.92 45.976 6.823 65.344 11.634zm-166.43-17.827c29.248.215 57.601 1.688 84.055 4.312l-47.611 67.1c-11.601-1.075-23.85-1.721-36.444-1.905v-69.507zM256 242.498c32.415 0 62.803 3.114 85.568 8.768 12.225 3.036 19.781 6.219 24.314 8.841l-.304.038c-1.927.238-3.866.469-5.816.694-.412.048-.828.093-1.241.14-1.615.183-3.236.363-4.866.538l-1.521.161c-1.68.177-3.368.349-5.064.516-.335.033-.669.067-1.004.099a848.85 848.85 0 0 1-19.721 1.684l-.12.009a920.54 920.54 0 0 1-27.464 1.603l-.276.012c-2.273.098-4.552.189-6.837.272l-.071.003c-4.59.166-9.203.299-13.834.4-.358.008-.718.014-1.077.021-1.815.038-3.633.07-5.454.098l-1.843.026c-1.636.022-3.274.039-4.913.053-.623.005-1.246.012-1.87.016-2.194.014-4.389.024-6.587.024-2.193 0-4.383-.009-6.571-.024-.629-.004-1.257-.011-1.886-.016-1.62-.014-3.24-.031-4.857-.052l-1.912-.027a942.156 942.156 0 0 1-5.339-.096c-.397-.008-.795-.015-1.192-.024-4.545-.1-9.073-.23-13.579-.392l-.751-.028a925.248 925.248 0 0 1-6.082-.242l-.825-.036a933.636 933.636 0 0 1-20.137-1.099l-.823-.055c-1.907-.127-3.808-.26-5.702-.398l-1.059-.077c-2.052-.152-4.097-.31-6.133-.476l-.271-.021a856.998 856.998 0 0 1-6.321-.541c-.493-.044-.983-.09-1.475-.135a830.01 830.01 0 0 1-6.813-.648 741.622 741.622 0 0 1-3.538-.361c-.876-.091-1.754-.182-2.626-.275-1.117-.12-2.225-.244-3.334-.368a772.178 772.178 0 0 1-4.989-.575c-.889-.106-1.78-.21-2.665-.318l-.995-.125c4.534-2.622 12.087-5.803 24.308-8.838 22.765-5.655 53.154-8.769 85.568-8.769zm-7.489-84.424v69.507c-12.619.184-24.893.833-36.515 1.912l-47.611-67.1c26.474-2.629 54.852-4.104 84.126-4.319zM16.933 218.037c-.133-.21-.274-.421-.395-.631-.025-.043-.044-.085-.068-.127a14.859 14.859 0 0 1-.539-1.047c-.625-1.358-.954-2.682-.954-3.953 0-5.333 5.623-11.573 15.832-17.568 5.281-3.101 11.788-6.123 19.326-9.004l35.578 23.017a7.483 7.483 0 0 0 10.355-2.22 7.488 7.488 0 0 0-2.219-10.355l-25.535-16.52a335.374 335.374 0 0 1 13.766-3.728c19.349-4.806 41.388-8.707 65.274-11.626l47.659 67.167c-10.199 1.41-19.693 3.176-28.193 5.288a179.008 179.008 0 0 0-7.226 1.951l-36.353-23.518a7.49 7.49 0 0 0-8.137 12.575l27.091 17.526c-7.287 3.63-12.278 7.717-14.946 12.241-12.576-1.918-24.51-4.124-35.635-6.607a412.495 412.495 0 0 1-3.817-.871l-.071-.017a379.686 379.686 0 0 1-3.72-.887l-.082-.02c-19.597-4.778-35.823-10.373-47.619-16.285-.25-.126-.51-.25-.756-.376-.118-.061-.23-.122-.347-.182a94.065 94.065 0 0 1-4.393-2.414c-6.709-3.94-11.423-7.984-13.876-11.809zm16.194 72.116a173.696 173.696 0 0 0 11.292 4.785c.883.34 1.792.501 2.685.501a7.489 7.489 0 0 0 2.69-14.481c-4.954-1.905-9.49-3.892-13.483-5.906a7.47 7.47 0 0 0-6.671-.028l-7.605-32.99c.399.243.782.488 1.192.729 13.137 7.715 31.724 14.588 55.245 20.431.451.112.913.22 1.367.332l.008.002a432.187 432.187 0 0 0 4.368 1.045c42.545 9.934 96.577 15.79 154.377 16.771l.367.006.43.007.652.01c1.41.022 2.82.044 4.235.06.509.006 1.02.009 1.529.014l1.083.01c.492.004.983.01 1.475.013l1.74.014c1.042.006 2.087.007 3.131.009.922.002 1.842.008 2.765.008 1.045 0 2.086-.006 3.129-.01.93-.003 1.862-.003 2.791-.009.573-.003 1.145-.009 1.717-.013l1.476-.013 1.192-.011c.497-.005.994-.008 1.49-.014 1.391-.016 2.777-.037 4.164-.059l.652-.01.531-.008.392-.006c56.787-.971 109.931-6.648 152.11-16.275a427.83 427.83 0 0 0 7.881-1.872l.005-.001.018-.004a374.057 374.057 0 0 0 4.531-1.156 347.03 347.03 0 0 0 8.235-2.256c1.25-.36 2.476-.721 3.68-1.084l.626-.19a287.78 287.78 0 0 0 6.326-2.002c.594-.196 1.184-.392 1.769-.589l.002-.001c11.97-4.041 22.036-8.436 30.059-13.147.698-.41 1.363-.825 2.029-1.24l-7.114 34.336a7.48 7.48 0 0 0-8-.807c-3.997 2.016-8.534 4.003-13.484 5.906a7.489 7.489 0 0 0-4.302 9.678 7.49 7.49 0 0 0 6.992 4.803c.893 0 1.802-.161 2.685-.501 4.824-1.855 9.292-3.799 13.355-5.785l-15.002 72.412-3.942 19.026c-.078.2-.147.404-.207.612-2.897 3.312-20.647 11.035-69.123 18.005-24.996 3.594-53.137 6.251-81.577 7.793v-47.41c0-10.011-8.144-18.155-18.155-18.155h-73.862c-10.01 0-18.154 8.144-18.154 18.155v47.386c-27.969-1.547-55.471-4.196-79.74-7.774-47.037-6.935-64.191-14.639-66.948-17.934a7.519 7.519 0 0 0-.286-.83l-2.225-9.651-18.588-80.637zm262.98 69.44v48.116l-2.308.091c-1.662.063-3.322.124-4.978.179a1358.295 1358.295 0 0 1-8.772.255 1058.266 1058.266 0 0 1-8.741.178c-1.36.022-2.716.039-4.07.055-1.254.015-2.503.026-3.75.037v-52.087h29.442a3.179 3.179 0 0 1 3.177 3.176zm-47.596-3.177v52.087a988.92 988.92 0 0 1-7.884-.094 1142.449 1142.449 0 0 1-8.846-.183 1106.726 1106.726 0 0 1-8.89-.262c-1.275-.043-2.551-.091-3.828-.139-1.056-.04-2.113-.083-3.169-.126v-48.105a3.18 3.18 0 0 1 3.176-3.177l29.441-.001zm232.221 49.071c-11.716 6.297-29.424 12.243-51.208 17.195C383.259 433.198 321.633 438.99 256 438.99s-127.258-5.792-173.523-16.308c-21.784-4.952-39.492-10.897-51.208-17.195-9.867-5.302-15.526-10.888-15.526-15.324 0-6.895 11.9-13.758 20.926-17.97l2.948 12.785c.061.266.138.524.225.776.023.066.052.128.077.193.069.183.141.365.223.54.008.016.013.034.021.051 2.265 6.304 9.935 11.289 24.424 15.966 12.198 3.937 28.798 7.554 49.341 10.752 37.384 5.818 82.617 9.421 126.28 10.132l.462.008c3.47.055 6.931.093 10.376.111h.034a899.183 899.183 0 0 0 9.869 0c.557-.003 1.125-.014 1.683-.018 2.275-.016 4.557-.041 6.845-.073 1.006-.014 2.006-.025 3.016-.043 3.055-.051 6.118-.117 9.188-.196l.674-.016c40.693-1.073 82.406-4.547 117.688-9.902 20.798-3.157 38.322-6.869 50.678-10.736 15.165-4.746 22.869-9.617 25.127-16.015.017-.036.028-.074.044-.11.076-.168.144-.34.208-.515.032-.086.067-.17.096-.257.086-.264.161-.533.219-.811l2.287-11.036c16.147 8.141 17.558 14.454 17.558 16.384-.002 4.437-5.661 10.022-15.528 15.324z" fill="#000000" data-original="#000000" class=""></path></g></svg>