<?xml version="1.0" encoding="UTF-8"?>
<svg xmlns="http://www.w3.org/2000/svg" id="Layer_3" data-name="Layer 3" viewBox="0 0 64 64" width="512" height="512"><path d="M48,1H16a1,1,0,0,0-1,1V58a1,1,0,0,0,1,1h1v3a1,1,0,0,0,1,1H46a1,1,0,0,0,1-1V59h1a1,1,0,0,0,1-1V2A1,1,0,0,0,48,1ZM47,3V5H17V3ZM45,61H19V59H45ZM17,57V7H47V57Z"/><path d="M44,9H20a1,1,0,0,0-1,1V26a1,1,0,0,0,1,1H44a1,1,0,0,0,1-1V10A1,1,0,0,0,44,9ZM43,25H21V11H43Z"/><path d="M25,47h2v7a1,1,0,0,0,1.707.707L30,53.414l1.293,1.293a1,1,0,0,0,1.414,0L34,53.414l1.293,1.293A1,1,0,0,0,37,54V47h2V45H25Zm10,4.586-.293-.293a1,1,0,0,0-1.414,0L32,52.586l-1.293-1.293a1,1,0,0,0-1.414,0L29,51.586V47h6Z"/><path d="M42,29H22a1,1,0,0,0-1,1V42a1,1,0,0,0,1,1H42a1,1,0,0,0,1-1V30A1,1,0,0,0,42,29ZM41,41H23V31H41Z"/><path d="M31,20h1.5a3.5,3.5,0,0,0,0-7H30a1,1,0,0,0-1,1v9h2Zm0-5h1.5a1.5,1.5,0,0,1,0,3H31Z"/><rect x="25" y="33" width="2" height="2"/><rect x="29" y="33" width="2" height="2"/><rect x="33" y="33" width="2" height="2"/><rect x="37" y="33" width="2" height="2"/><rect x="25" y="37" width="2" height="2"/><rect x="29" y="37" width="2" height="2"/><rect x="33" y="37" width="2" height="2"/><rect x="37" y="37" width="2" height="2"/></svg>
